Catamaran-Medium.ufo
<glyph name="exclam" format="2">
  <advance width="181"/>
  <unicode hex="0021"/>
  <outline>
    <contour>
      <point x="55" y="230" type="line"/>
      <point x="38" y="702" type="line"/>
      <point x="143" y="702" type="line"/>
      <point x="128" y="196" type="line"/>
    </contour>
    <contour>
      <point x="91" y="120" type="curve" smooth="yes"/>
      <point x="124" y="120"/>
      <point x="151" y="93"/>
      <point x="151" y="60" type="curve" smooth="yes"/>
      <point x="151" y="27"/>
      <point x="124" y="0"/>
      <point x="91" y="0" type="curve" smooth="yes"/>
      <point x="58" y="0"/>
      <point x="30" y="27"/>
      <point x="30" y="60" type="curve" smooth="yes"/>
      <point x="30" y="93"/>
      <point x="58" y="120"/>
    </contour>
  </outline>
</glyph>
<glyph name="quotedbl" format="2">
  <advance width="350"/>
  <unicode hex="0022"/>
  <outline>
    <contour>
      <point x="259" y="722" type="curve" smooth="yes"/>
      <point x="292" y="722"/>
      <point x="320" y="693"/>
      <point x="320" y="650" type="curve" smooth="yes"/>
      <point x="320" y="582"/>
      <point x="272" y="503"/>
      <point x="209" y="470" type="curve"/>
      <point x="185" y="515" type="line"/>
      <point x="218" y="540"/>
      <point x="241" y="562"/>
      <point x="248" y="601" type="curve"/>
      <point x="223" y="602"/>
      <point x="198" y="632"/>
      <point x="198" y="661" type="curve" smooth="yes"/>
      <point x="198" y="690"/>
      <point x="226" y="722"/>
    </contour>
    <contour>
      <point x="93" y="722" type="curve" smooth="yes"/>
      <point x="126" y="722"/>
      <point x="155" y="693"/>
      <point x="155" y="650" type="curve" smooth="yes"/>
      <point x="155" y="582"/>
      <point x="106" y="503"/>
      <point x="43" y="470" type="curve"/>
      <point x="20" y="515" type="line"/>
      <point x="52" y="540"/>
      <point x="76" y="562"/>
      <point x="81" y="601" type="curve"/>
      <point x="57" y="602"/>
      <point x="32" y="632"/>
      <point x="32" y="661" type="curve" smooth="yes"/>
      <point x="32" y="690"/>
      <point x="60" y="722"/>
    </contour>
  </outline>
</glyph>
<glyph name="numbersign" format="2">
  <advance width="540"/>
  <unicode hex="0023"/>
  <outline>
    <contour>
      <point x="393" y="511" type="line"/>
      <point x="475" y="509" type="line"/>
      <point x="447" y="389" type="line"/>
      <point x="502" y="389" type="line"/>
      <point x="510" y="316" type="line"/>
      <point x="430" y="316" type="line"/>
      <point x="401" y="194" type="line"/>
      <point x="502" y="194" type="line"/>
      <point x="510" y="121" type="line"/>
      <point x="384" y="121" type="line"/>
      <point x="355" y="-7" type="line"/>
      <point x="275" y="-2" type="line"/>
      <point x="303" y="121" type="line"/>
      <point x="175" y="121" type="line"/>
      <point x="145" y="-7" type="line"/>
      <point x="65" y="-2" type="line"/>
      <point x="93" y="121" type="line"/>
      <point x="39" y="121" type="line"/>
      <point x="30" y="194" type="line"/>
      <point x="110" y="194" type="line"/>
      <point x="138" y="316" type="line"/>
      <point x="39" y="316" type="line"/>
      <point x="30" y="389" type="line"/>
      <point x="156" y="389" type="line"/>
      <point x="185" y="511" type="line"/>
      <point x="266" y="509" type="line"/>
      <point x="237" y="389" type="line"/>
      <point x="365" y="389" type="line"/>
    </contour>
    <contour>
      <point x="348" y="316" type="line"/>
      <point x="221" y="316" type="line"/>
      <point x="192" y="194" type="line"/>
      <point x="319" y="194" type="line"/>
    </contour>
  </outline>
</glyph>
<glyph name="dollar" format="2">
  <advance width="518"/>
  <unicode hex="0024"/>
  <outline>
    <contour>
      <point x="166" y="-119" type="line"/>
      <point x="233" y="-119" type="line"/>
      <point x="233" y="-12.761" type="line"/>
      <point x="243" y="-13" type="line" smooth="yes"/>
      <point x="261.279" y="-13"/>
      <point x="278.622" y="-11.97"/>
      <point x="295" y="-9.98" type="curve"/>
      <point x="295" y="-119" type="line"/>
      <point x="363" y="-119" type="line"/>
      <point x="363" y="5.529" type="line"/>
      <point x="444.102" y="34.319"/>
      <point x="488" y="94.427"/>
      <point x="488" y="170" type="curve" smooth="yes"/>
      <point x="488" y="269"/>
      <point x="423" y="319"/>
      <point x="312" y="369" type="curve" smooth="yes"/>
      <point x="195" y="422"/>
      <point x="136" y="453"/>
      <point x="136" y="522" type="curve" smooth="yes"/>
      <point x="136" y="582"/>
      <point x="194" y="611"/>
      <point x="270" y="611" type="curve" smooth="yes"/>
      <point x="334" y="611"/>
      <point x="376" y="592"/>
      <point x="411" y="575" type="curve"/>
      <point x="443" y="651" type="line"/>
      <point x="420.834" y="662.329"/>
      <point x="393.331" y="673.415"/>
      <point x="363" y="681.75" type="curve"/>
      <point x="363" y="804" type="line"/>
      <point x="295" y="794" type="line"/>
      <point x="295" y="694.442" type="line"/>
      <point x="284.413" y="695.453"/>
      <point x="273.719" y="696"/>
      <point x="263" y="696" type="curve" smooth="yes"/>
      <point x="252.694" y="696"/>
      <point x="242.69" y="695.577"/>
      <point x="233" y="694.752" type="curve"/>
      <point x="233" y="804" type="line"/>
      <point x="166" y="794" type="line"/>
      <point x="166" y="681.269" type="line"/>
      <point x="85.906" y="654.348"/>
      <point x="40" y="593.186"/>
      <point x="40" y="520" type="curve" smooth="yes"/>
      <point x="40" y="417"/>
      <point x="99" y="370"/>
      <point x="216" y="318" type="curve" smooth="yes"/>
      <point x="327" y="269"/>
      <point x="391" y="235"/>
      <point x="391" y="168" type="curve" smooth="yes"/>
      <point x="391" y="109"/>
      <point x="339" y="70"/>
      <point x="242" y="70" type="curve" smooth="yes"/>
      <point x="181" y="70"/>
      <point x="111" y="94"/>
      <point x="74" y="113" type="curve"/>
      <point x="52" y="37" type="line"/>
      <point x="69.036" y="21.857"/>
      <point x="117.921" y="5.918"/>
      <point x="166" y="-3.784" type="curve"/>
    </contour>
  </outline>
</glyph>
<glyph name="percent" format="2">
  <advance width="885"/>
  <unicode hex="0025"/>
  <outline>
    <contour>
      <point x="545" y="710" type="line"/>
      <point x="640" y="706" type="line"/>
      <point x="337" y="-4" type="line"/>
      <point x="242" y="0" type="line"/>
    </contour>
    <contour>
      <point x="191" y="702" type="curve" smooth="yes"/>
      <point x="280" y="702"/>
      <point x="352" y="640"/>
      <point x="352" y="532" type="curve" smooth="yes"/>
      <point x="352" y="428"/>
      <point x="276" y="363"/>
      <point x="191" y="363" type="curve" smooth="yes"/>
      <point x="103" y="363"/>
      <point x="30" y="425"/>
      <point x="30" y="532" type="curve" smooth="yes"/>
      <point x="30" y="636"/>
      <point x="106" y="702"/>
    </contour>
    <contour>
      <point x="191" y="629" type="curve" smooth="yes"/>
      <point x="154" y="629"/>
      <point x="116" y="600"/>
      <point x="116" y="533" type="curve" smooth="yes"/>
      <point x="116" y="465"/>
      <point x="150" y="435"/>
      <point x="191" y="435" type="curve" smooth="yes"/>
      <point x="228" y="435"/>
      <point x="266" y="464"/>
      <point x="266" y="532" type="curve" smooth="yes"/>
      <point x="266" y="599"/>
      <point x="231" y="629"/>
    </contour>
    <contour>
      <point x="696" y="338" type="curve" smooth="yes"/>
      <point x="784" y="338"/>
      <point x="855" y="277"/>
      <point x="855" y="169" type="curve" smooth="yes"/>
      <point x="855" y="65"/>
      <point x="780" y="0"/>
      <point x="696" y="0" type="curve" smooth="yes"/>
      <point x="607" y="0"/>
      <point x="535" y="61"/>
      <point x="535" y="169" type="curve" smooth="yes"/>
      <point x="535" y="273"/>
      <point x="609" y="338"/>
    </contour>
    <contour>
      <point x="696" y="266" type="curve" smooth="yes"/>
      <point x="659" y="266"/>
      <point x="620" y="238"/>
      <point x="620" y="170" type="curve" smooth="yes"/>
      <point x="620" y="102"/>
      <point x="655" y="71"/>
      <point x="696" y="71" type="curve" smooth="yes"/>
      <point x="733" y="71"/>
      <point x="770" y="101"/>
      <point x="770" y="169" type="curve" smooth="yes"/>
      <point x="770" y="234"/>
      <point x="735" y="266"/>
    </contour>
  </outline>
</glyph>
<glyph name="ampersand" format="2">
  <advance width="673"/>
  <unicode hex="0026"/>
  <outline>
    <contour>
      <point x="442" y="127" type="curve"/>
      <point x="246" y="306" type="line" smooth="yes"/>
      <point x="231" y="320"/>
      <point x="215" y="336"/>
      <point x="203" y="350" type="curve"/>
      <point x="164" y="321"/>
      <point x="140" y="271"/>
      <point x="139" y="215" type="curve" smooth="yes"/>
      <point x="139" y="115"/>
      <point x="219" y="72"/>
      <point x="300" y="72" type="curve" smooth="yes"/>
      <point x="359" y="72"/>
      <point x="407" y="92"/>
    </contour>
    <contour>
      <point x="589" y="-8" type="line"/>
      <point x="510" y="65" type="line"/>
      <point x="461" y="16"/>
      <point x="392" y="-12"/>
      <point x="300" y="-12" type="curve" smooth="yes"/>
      <point x="156" y="-11"/>
      <point x="40" y="65"/>
      <point x="40" y="213" type="curve" smooth="yes"/>
      <point x="41" y="294"/>
      <point x="83" y="369"/>
      <point x="144" y="413" type="curve"/>
      <point x="125" y="441"/>
      <point x="114" y="472"/>
      <point x="114" y="512" type="curve" smooth="yes"/>
      <point x="114" y="611"/>
      <point x="187" y="696"/>
      <point x="310" y="696" type="curve" smooth="yes"/>
      <point x="377" y="696"/>
      <point x="432" y="674"/>
      <point x="479" y="651" type="curve"/>
      <point x="446" y="575" type="line"/>
      <point x="409" y="592"/>
      <point x="374" y="613"/>
      <point x="311" y="613" type="curve" smooth="yes"/>
      <point x="248" y="613"/>
      <point x="211" y="567"/>
      <point x="211" y="518" type="curve" smooth="yes"/>
      <point x="211" y="462"/>
      <point x="242" y="427"/>
      <point x="305" y="370" type="curve" smooth="yes"/>
      <point x="490" y="198" type="line"/>
      <point x="511" y="243"/>
      <point x="524" y="299"/>
      <point x="528" y="362" type="curve"/>
      <point x="610" y="330" type="line"/>
      <point x="606" y="255"/>
      <point x="590" y="189"/>
      <point x="562" y="134" type="curve"/>
      <point x="643" y="61" type="line"/>
    </contour>
  </outline>
</glyph>
<glyph name="parenleft" format="2">
  <advance width="279"/>
  <unicode hex="0028"/>
  <outline>
    <contour>
      <point x="249" y="-10" type="curve"/>
      <point x="173" y="-38" type="line"/>
      <point x="92" y="67"/>
      <point x="50" y="200"/>
      <point x="50" y="320" type="curve" smooth="yes"/>
      <point x="50" y="437"/>
      <point x="90" y="567"/>
      <point x="173" y="678" type="curve"/>
      <point x="249" y="651" type="line"/>
      <point x="192" y="580"/>
      <point x="141" y="418"/>
      <point x="141" y="321" type="curve" smooth="yes"/>
      <point x="141" y="221"/>
      <point x="192" y="55"/>
    </contour>
  </outline>
</glyph>
<glyph name="parenright" format="2">
  <advance width="279"/>
  <unicode hex="0029"/>
  <outline>
    <contour>
      <point x="30" y="650" type="curve"/>
      <point x="106" y="678" type="line"/>
      <point x="186" y="573"/>
      <point x="229" y="440"/>
      <point x="229" y="320" type="curve" smooth="yes"/>
      <point x="229" y="203"/>
      <point x="186" y="74"/>
      <point x="106" y="-38" type="curve"/>
      <point x="30" y="-11" type="line"/>
      <point x="87" y="60"/>
      <point x="137" y="223"/>
      <point x="137" y="320" type="curve" smooth="yes"/>
      <point x="137" y="419"/>
      <point x="87" y="585"/>
    </contour>
  </outline>
</glyph>
<glyph name="asterisk" format="2">
  <advance width="363"/>
  <unicode hex="002A"/>
  <outline>
    <contour>
      <point x="219" y="770" type="line"/>
      <point x="220" y="663" type="line"/>
      <point x="332" y="687" type="line"/>
      <point x="353" y="622" type="line"/>
      <point x="241" y="600" type="line"/>
      <point x="319" y="489" type="line"/>
      <point x="262" y="446" type="line"/>
      <point x="182" y="554" type="line"/>
      <point x="101" y="446" type="line"/>
      <point x="44" y="489" type="line"/>
      <point x="122" y="600" type="line"/>
      <point x="10" y="622" type="line"/>
      <point x="31" y="687" type="line"/>
      <point x="142" y="663" type="line"/>
      <point x="144" y="770" type="line"/>
    </contour>
  </outline>
</glyph>
<glyph name="plus" format="2">
  <advance width="537"/>
  <unicode hex="002B"/>
  <outline>
    <contour>
      <point x="497" y="311" type="line"/>
      <point x="507" y="236" type="line"/>
      <point x="315" y="236" type="line"/>
      <point x="315" y="4" type="line"/>
      <point x="226" y="8" type="line"/>
      <point x="226" y="236" type="line"/>
      <point x="38" y="236" type="line"/>
      <point x="30" y="311" type="line"/>
      <point x="226" y="311" type="line"/>
      <point x="226" y="534" type="line"/>
      <point x="315" y="531" type="line"/>
      <point x="315" y="311" type="line"/>
    </contour>
  </outline>
</glyph>
<glyph name="comma" format="2">
  <advance width="185"/>
  <unicode hex="002C"/>
  <outline>
    <contour>
      <point x="93" y="120" type="curve" smooth="yes"/>
      <point x="128" y="120"/>
      <point x="155" y="92"/>
      <point x="155" y="48" type="curve" smooth="yes"/>
      <point x="155" y="-19"/>
      <point x="107" y="-98"/>
      <point x="43" y="-131" type="curve"/>
      <point x="20" y="-86" type="line"/>
      <point x="53" y="-61"/>
      <point x="77" y="-39"/>
      <point x="82" y="0" type="curve"/>
      <point x="58" y="1"/>
      <point x="33" y="31"/>
      <point x="33" y="60" type="curve" smooth="yes"/>
      <point x="33" y="91"/>
      <point x="60" y="120"/>
    </contour>
  </outline>
</glyph>
<glyph name="hyphen" format="2">
  <advance width="324"/>
  <unicode hex="002D"/>
  <outline>
    <contour>
      <point x="285" y="311" type="line"/>
      <point x="294" y="235" type="line"/>
      <point x="39" y="235" type="line"/>
      <point x="30" y="311" type="line"/>
    </contour>
  </outline>
</glyph>
<glyph name="period" format="2">
  <advance width="180"/>
  <unicode hex="002E"/>
  <outline>
    <contour>
      <point x="91" y="0" type="curve" smooth="yes"/>
      <point x="56" y="0"/>
      <point x="30" y="27"/>
      <point x="30" y="60" type="curve" smooth="yes"/>
      <point x="30" y="93"/>
      <point x="56" y="120"/>
      <point x="91" y="120" type="curve" smooth="yes"/>
      <point x="124" y="120"/>
      <point x="150" y="93"/>
      <point x="150" y="60" type="curve" smooth="yes"/>
      <point x="150" y="27"/>
      <point x="124" y="0"/>
    </contour>
  </outline>
</glyph>
<glyph name="slash" format="2">
  <advance width="419"/>
  <unicode hex="002F"/>
  <outline>
    <contour>
      <point x="313" y="710" type="line"/>
      <point x="409" y="706" type="line"/>
      <point x="105" y="-4" type="line"/>
      <point x="10" y="0" type="line"/>
    </contour>
  </outline>
</glyph>
<glyph name="zero" format="2">
  <advance width="597"/>
  <unicode hex="0030"/>
  <outline>
    <contour>
      <point x="30" y="286" type="curve" smooth="yes"/>
      <point x="30" y="456"/>
      <point x="143" y="579"/>
      <point x="299" y="579" type="curve" smooth="yes"/>
      <point x="454" y="579"/>
      <point x="567" y="457"/>
      <point x="567" y="288" type="curve" smooth="yes"/>
      <point x="567" y="113"/>
      <point x="454" y="-13"/>
      <point x="299" y="-13" type="curve" smooth="yes"/>
      <point x="143" y="-13"/>
      <point x="30" y="113"/>
    </contour>
    <contour>
      <point x="122" y="289" type="curve" smooth="yes"/>
      <point x="122" y="161"/>
      <point x="196" y="69"/>
      <point x="299" y="69" type="curve" smooth="yes"/>
      <point x="402" y="69"/>
      <point x="476" y="159"/>
      <point x="476" y="284" type="curve" smooth="yes"/>
      <point x="476" y="408"/>
      <point x="402" y="497"/>
      <point x="299" y="497" type="curve" smooth="yes"/>
      <point x="196" y="497"/>
      <point x="122" y="410"/>
    </contour>
  </outline>
</glyph>
<glyph name="one" format="2">
  <advance width="325"/>
  <unicode hex="0031"/>
  <outline>
    <contour>
      <point x="255" y="0" type="line"/>
      <point x="159" y="0" type="line"/>
      <point x="159" y="458" type="line"/>
      <point x="54" y="402" type="line"/>
      <point x="10" y="478" type="line"/>
      <point x="191" y="566" type="line"/>
      <point x="255" y="566" type="line"/>
    </contour>
  </outline>
</glyph>
<glyph name="two" format="2">
  <advance width="481"/>
  <unicode hex="0032"/>
  <outline>
    <contour>
      <point x="219" y="579" type="curve" smooth="yes"/>
      <point x="347" y="579"/>
      <point x="430" y="522"/>
      <point x="430" y="418" type="curve" smooth="yes"/>
      <point x="430" y="343"/>
      <point x="400" y="279"/>
      <point x="281" y="180" type="curve" smooth="yes"/>
      <point x="154" y="74" type="line"/>
      <point x="443" y="74" type="line"/>
      <point x="461" y="0" type="line"/>
      <point x="25" y="0" type="line"/>
      <point x="25" y="63" type="line"/>
      <point x="236" y="248" type="line" smooth="yes"/>
      <point x="303" y="307"/>
      <point x="342" y="353"/>
      <point x="342" y="405" type="curve" smooth="yes"/>
      <point x="342" y="472"/>
      <point x="292" y="501"/>
      <point x="218" y="501" type="curve" smooth="yes"/>
      <point x="145" y="501"/>
      <point x="96" y="470"/>
      <point x="61" y="450" type="curve"/>
      <point x="38" y="527" type="line"/>
      <point x="75" y="549"/>
      <point x="130" y="579"/>
    </contour>
  </outline>
</glyph>
<glyph name="three" format="2">
  <advance width="470"/>
  <unicode hex="0033"/>
  <outline>
    <contour>
      <point x="218" y="579" type="curve" smooth="yes"/>
      <point x="355" y="579"/>
      <point x="423" y="499"/>
      <point x="423" y="411" type="curve" smooth="yes"/>
      <point x="423" y="344"/>
      <point x="376" y="289"/>
      <point x="325" y="270" type="curve"/>
      <point x="382" y="257"/>
      <point x="435" y="196"/>
      <point x="435" y="113" type="curve" smooth="yes"/>
      <point x="435" y="6"/>
      <point x="345" y="-76"/>
      <point x="204" y="-76" type="curve" smooth="yes"/>
      <point x="129" y="-76"/>
      <point x="53" y="-47"/>
      <point x="0" y="-19" type="curve"/>
      <point x="49" y="47" type="line"/>
      <point x="98" y="18"/>
      <point x="141" y="2"/>
      <point x="206" y="2" type="curve" smooth="yes"/>
      <point x="275" y="2"/>
      <point x="343" y="43"/>
      <point x="343" y="112" type="curve" smooth="yes"/>
      <point x="343" y="184"/>
      <point x="292" y="232"/>
      <point x="169" y="232" type="curve" smooth="yes"/>
      <point x="139" y="232" type="line"/>
      <point x="125" y="305" type="line"/>
      <point x="175" y="305" type="line" smooth="yes"/>
      <point x="271" y="305"/>
      <point x="331" y="346"/>
      <point x="331" y="409" type="curve" smooth="yes"/>
      <point x="331" y="458"/>
      <point x="287" y="501"/>
      <point x="215" y="501" type="curve" smooth="yes"/>
      <point x="150" y="501"/>
      <point x="94" y="473"/>
      <point x="61" y="450" type="curve"/>
      <point x="15" y="514" type="line"/>
      <point x="72" y="551"/>
      <point x="138" y="579"/>
    </contour>
  </outline>
</glyph>
<glyph name="four" format="2">
  <advance width="536"/>
  <unicode hex="0034"/>
  <outline>
    <contour>
      <point x="516" y="145" type="line"/>
      <point x="505" y="66" type="line"/>
      <point x="411" y="66" type="line"/>
      <point x="411" y="-69" type="line"/>
      <point x="315" y="-69" type="line"/>
      <point x="315" y="66" type="line"/>
      <point x="23" y="66" type="line"/>
      <point x="10" y="145" type="line"/>
      <point x="342" y="571" type="line"/>
      <point x="411" y="571" type="line"/>
      <point x="411" y="145" type="line"/>
    </contour>
    <contour>
      <point x="315" y="409" type="line"/>
      <point x="113" y="145" type="line"/>
      <point x="315" y="145" type="line"/>
    </contour>
  </outline>
</glyph>
<glyph name="five" format="2">
  <advance width="501"/>
  <unicode hex="0035"/>
  <outline>
    <contour>
      <point x="157" y="218" type="curve"/>
      <point x="68" y="218" type="line"/>
      <point x="84" y="566" type="line"/>
      <point x="434" y="566" type="line"/>
      <point x="423" y="487" type="line"/>
      <point x="169" y="487" type="line"/>
      <point x="161" y="317" type="line"/>
      <point x="190" y="334"/>
      <point x="223" y="343"/>
      <point x="255" y="343" type="curve" smooth="yes"/>
      <point x="403" y="343"/>
      <point x="470" y="249"/>
      <point x="471" y="138" type="curve" smooth="yes"/>
      <point x="471" y="18"/>
      <point x="384" y="-76"/>
      <point x="232" y="-76" type="curve" smooth="yes"/>
      <point x="159" y="-76"/>
      <point x="83" y="-48"/>
      <point x="30" y="-19" type="curve"/>
      <point x="78" y="48" type="line"/>
      <point x="127" y="19"/>
      <point x="169" y="4"/>
      <point x="236" y="4" type="curve" smooth="yes"/>
      <point x="320" y="4"/>
      <point x="379" y="55"/>
      <point x="379" y="138" type="curve" smooth="yes"/>
      <point x="379" y="219"/>
      <point x="329" y="266"/>
      <point x="260" y="266" type="curve" smooth="yes"/>
      <point x="209" y="266"/>
      <point x="172" y="237"/>
    </contour>
  </outline>
</glyph>
<glyph name="six" format="2">
  <advance width="520"/>
  <unicode hex="0036"/>
  <outline>
    <contour>
      <point x="69" y="285" type="line"/>
      <point x="127" y="341"/>
      <point x="182" y="387"/>
      <point x="271" y="387" type="curve" smooth="yes"/>
      <point x="401" y="387"/>
      <point x="490" y="307"/>
      <point x="490" y="190" type="curve" smooth="yes"/>
      <point x="490" y="72"/>
      <point x="400" y="-13"/>
      <point x="274" y="-13" type="curve" smooth="yes"/>
      <point x="135" y="-13"/>
      <point x="30" y="77"/>
      <point x="30" y="252" type="curve" smooth="yes"/>
      <point x="30" y="487"/>
      <point x="244" y="613"/>
      <point x="405" y="634" type="curve"/>
      <point x="423" y="558" type="line"/>
      <point x="293" y="533"/>
      <point x="122" y="451"/>
      <point x="122" y="261" type="curve" smooth="yes"/>
      <point x="122" y="132"/>
      <point x="190" y="67"/>
      <point x="270" y="67" type="curve" smooth="yes"/>
      <point x="347" y="67"/>
      <point x="401" y="117"/>
      <point x="401" y="185" type="curve" smooth="yes"/>
      <point x="401" y="261"/>
      <point x="349" y="310"/>
      <point x="268" y="310" type="curve" smooth="yes"/>
      <point x="200" y="310"/>
      <point x="141" y="266"/>
      <point x="94" y="218" type="curve"/>
    </contour>
  </outline>
</glyph>
<glyph name="seven" format="2">
  <advance width="451"/>
  <unicode hex="0037"/>
  <outline>
    <contour>
      <point x="218" y="-69" type="line"/>
      <point x="128" y="-42" type="line"/>
      <point x="322" y="487" type="line"/>
      <point x="22" y="487" type="line"/>
      <point x="10" y="566" type="line"/>
      <point x="401" y="566" type="line"/>
      <point x="431" y="525" type="line"/>
    </contour>
  </outline>
</glyph>
<glyph name="eight" format="2">
  <advance width="515"/>
  <unicode hex="0038"/>
  <outline>
    <contour>
      <point x="258" y="643" type="curve" smooth="yes"/>
      <point x="386" y="643"/>
      <point x="459" y="563"/>
      <point x="459" y="474" type="curve" smooth="yes"/>
      <point x="459" y="413"/>
      <point x="413" y="363"/>
      <point x="361" y="339" type="curve"/>
      <point x="425" y="322"/>
      <point x="485" y="253"/>
      <point x="485" y="177" type="curve" smooth="yes"/>
      <point x="485" y="74"/>
      <point x="403" y="-13"/>
      <point x="258" y="-13" type="curve" smooth="yes"/>
      <point x="111" y="-13"/>
      <point x="30" y="73"/>
      <point x="30" y="177" type="curve" smooth="yes"/>
      <point x="30" y="246"/>
      <point x="89" y="322"/>
      <point x="154" y="339" type="curve"/>
      <point x="98" y="363"/>
      <point x="57" y="413"/>
      <point x="57" y="474" type="curve" smooth="yes"/>
      <point x="57" y="563"/>
      <point x="130" y="643"/>
    </contour>
    <contour>
      <point x="256" y="565" type="curve" smooth="yes"/>
      <point x="187" y="565"/>
      <point x="146" y="521"/>
      <point x="146" y="473" type="curve" smooth="yes"/>
      <point x="146" y="424"/>
      <point x="186" y="383"/>
      <point x="258" y="372" type="curve"/>
      <point x="330" y="383"/>
      <point x="369" y="424"/>
      <point x="369" y="473" type="curve" smooth="yes"/>
      <point x="369" y="522"/>
      <point x="328" y="565"/>
    </contour>
    <contour>
      <point x="258" y="302" type="curve"/>
      <point x="166" y="289"/>
      <point x="120" y="236"/>
      <point x="120" y="175" type="curve" smooth="yes"/>
      <point x="120" y="107"/>
      <point x="183" y="65"/>
      <point x="258" y="65" type="curve" smooth="yes"/>
      <point x="330" y="65"/>
      <point x="395" y="107"/>
      <point x="395" y="175" type="curve" smooth="yes"/>
      <point x="395" y="236"/>
      <point x="349" y="289"/>
    </contour>
  </outline>
</glyph>
<glyph name="nine" format="2">
  <advance width="520"/>
  <unicode hex="0039"/>
  <outline>
    <contour>
      <point x="451" y="281" type="line"/>
      <point x="393" y="225"/>
      <point x="338" y="179"/>
      <point x="249" y="179" type="curve" smooth="yes"/>
      <point x="119" y="179"/>
      <point x="30" y="259"/>
      <point x="30" y="376" type="curve" smooth="yes"/>
      <point x="30" y="494"/>
      <point x="120" y="579"/>
      <point x="246" y="579" type="curve" smooth="yes"/>
      <point x="385" y="579"/>
      <point x="490" y="489"/>
      <point x="490" y="314" type="curve" smooth="yes"/>
      <point x="490" y="79"/>
      <point x="276" y="-47"/>
      <point x="115" y="-68" type="curve"/>
      <point x="97" y="8" type="line"/>
      <point x="227" y="33"/>
      <point x="398" y="115"/>
      <point x="398" y="305" type="curve" smooth="yes"/>
      <point x="398" y="434"/>
      <point x="330" y="499"/>
      <point x="250" y="499" type="curve" smooth="yes"/>
      <point x="173" y="499"/>
      <point x="119" y="449"/>
      <point x="119" y="381" type="curve" smooth="yes"/>
      <point x="119" y="305"/>
      <point x="171" y="256"/>
      <point x="252" y="256" type="curve" smooth="yes"/>
      <point x="320" y="256"/>
      <point x="379" y="300"/>
      <point x="426" y="348" type="curve"/>
    </contour>
  </outline>
</glyph>
<glyph name="colon" format="2">
  <advance width="180"/>
  <unicode hex="003A"/>
  <outline>
    <contour>
      <point x="90" y="341" type="curve" smooth="yes"/>
      <point x="57" y="341"/>
      <point x="30" y="368"/>
      <point x="30" y="401" type="curve" smooth="yes"/>
      <point x="30" y="434"/>
      <point x="57" y="462"/>
      <point x="90" y="462" type="curve" smooth="yes"/>
      <point x="123" y="462"/>
      <point x="150" y="434"/>
      <point x="150" y="401" type="curve" smooth="yes"/>
      <point x="150" y="368"/>
      <point x="123" y="341"/>
    </contour>
    <contour>
      <point x="90" y="18" type="curve" smooth="yes"/>
      <point x="57" y="18"/>
      <point x="30" y="45"/>
      <point x="30" y="78" type="curve" smooth="yes"/>
      <point x="30" y="113"/>
      <point x="57" y="139"/>
      <point x="90" y="139" type="curve" smooth="yes"/>
      <point x="123" y="139"/>
      <point x="150" y="113"/>
      <point x="150" y="78" type="curve" smooth="yes"/>
      <point x="150" y="45"/>
      <point x="123" y="18"/>
    </contour>
  </outline>
</glyph>
<glyph name="semicolon" format="2">
  <advance width="186"/>
  <unicode hex="003B"/>
  <outline>
    <contour>
      <point x="96" y="341" type="curve" smooth="yes"/>
      <point x="61" y="341"/>
      <point x="34" y="368"/>
      <point x="34" y="401" type="curve" smooth="yes"/>
      <point x="34" y="434"/>
      <point x="61" y="462"/>
      <point x="96" y="462" type="curve" smooth="yes"/>
      <point x="129" y="462"/>
      <point x="156" y="434"/>
      <point x="156" y="401" type="curve" smooth="yes"/>
      <point x="156" y="368"/>
      <point x="129" y="341"/>
    </contour>
    <contour>
      <point x="93" y="139" type="curve" smooth="yes"/>
      <point x="128" y="139"/>
      <point x="155" y="110"/>
      <point x="155" y="66" type="curve" smooth="yes"/>
      <point x="155" y="-1"/>
      <point x="107" y="-80"/>
      <point x="43" y="-113" type="curve"/>
      <point x="20" y="-68" type="line"/>
      <point x="53" y="-43"/>
      <point x="77" y="-21"/>
      <point x="82" y="18" type="curve"/>
      <point x="58" y="19"/>
      <point x="33" y="47"/>
      <point x="33" y="78" type="curve" smooth="yes"/>
      <point x="33" y="109"/>
      <point x="60" y="139"/>
    </contour>
  </outline>
</glyph>
<glyph name="less" format="2">
  <advance width="335"/>
  <unicode hex="003C"/>
  <outline>
    <contour>
      <point x="315" y="95" type="line"/>
      <point x="292" y="19" type="line"/>
      <point x="30" y="218" type="line"/>
      <point x="30" y="271" type="line"/>
      <point x="292" y="470" type="line"/>
      <point x="315" y="394" type="line"/>
      <point x="123" y="245" type="line"/>
    </contour>
  </outline>
</glyph>
<glyph name="equal" format="2">
  <advance width="506"/>
  <unicode hex="003D"/>
  <outline>
    <contour>
      <point x="468" y="389" type="line"/>
      <point x="476" y="316" type="line"/>
      <point x="39" y="316" type="line"/>
      <point x="30" y="389" type="line"/>
    </contour>
    <contour>
      <point x="468" y="194" type="line"/>
      <point x="476" y="121" type="line"/>
      <point x="39" y="121" type="line"/>
      <point x="30" y="194" type="line"/>
    </contour>
  </outline>
</glyph>
<glyph name="greater" format="2">
  <advance width="335"/>
  <unicode hex="003E"/>
  <outline>
    <contour>
      <point x="305" y="271" type="line"/>
      <point x="305" y="218" type="line"/>
      <point x="43" y="19" type="line"/>
      <point x="20" y="95" type="line"/>
      <point x="212" y="245" type="line"/>
      <point x="20" y="394" type="line"/>
      <point x="43" y="470" type="line"/>
    </contour>
  </outline>
</glyph>
<glyph name="question" format="2">
  <advance width="419"/>
  <unicode hex="003F"/>
  <outline>
    <contour>
      <point x="195" y="701" type="curve" smooth="yes"/>
      <point x="327" y="701"/>
      <point x="389" y="630"/>
      <point x="389" y="530" type="curve" smooth="yes"/>
      <point x="389" y="455"/>
      <point x="319" y="373"/>
      <point x="216" y="324" type="curve"/>
      <point x="204" y="159" type="line"/>
      <point x="135" y="187" type="line"/>
      <point x="127" y="373" type="line"/>
      <point x="226" y="405"/>
      <point x="297" y="463"/>
      <point x="297" y="528" type="curve" smooth="yes"/>
      <point x="297" y="591"/>
      <point x="257" y="620"/>
      <point x="192" y="620" type="curve" smooth="yes"/>
      <point x="135" y="620"/>
      <point x="82" y="599"/>
      <point x="22" y="558" type="curve"/>
      <point x="10" y="643" type="line"/>
      <point x="67" y="679"/>
      <point x="119" y="701"/>
    </contour>
    <contour>
      <point x="165" y="120" type="curve" smooth="yes"/>
      <point x="198" y="120"/>
      <point x="226" y="93"/>
      <point x="226" y="60" type="curve" smooth="yes"/>
      <point x="226" y="27"/>
      <point x="198" y="0"/>
      <point x="165" y="0" type="curve" smooth="yes"/>
      <point x="132" y="0"/>
      <point x="105" y="27"/>
      <point x="105" y="60" type="curve" smooth="yes"/>
      <point x="105" y="93"/>
      <point x="132" y="120"/>
    </contour>
  </outline>
</glyph>
<glyph name="at" format="2">
  <advance width="764"/>
  <unicode hex="0040"/>
  <outline>
    <contour>
      <point x="547" y="386" type="line"/>
      <point x="524" y="182" type="line" smooth="yes"/>
      <point x="520" y="149"/>
      <point x="547" y="137"/>
      <point x="564" y="137" type="curve" smooth="yes"/>
      <point x="613" y="137"/>
      <point x="653" y="199"/>
      <point x="653" y="299" type="curve" smooth="yes"/>
      <point x="653" y="430"/>
      <point x="559" y="522"/>
      <point x="419" y="522" type="curve" smooth="yes"/>
      <point x="263" y="522"/>
      <point x="118" y="406"/>
      <point x="118" y="219" type="curve" smooth="yes"/>
      <point x="118" y="68"/>
      <point x="231" y="-23"/>
      <point x="366" y="-23" type="curve" smooth="yes"/>
      <point x="418" y="-23"/>
      <point x="482" y="-13"/>
      <point x="531" y="12" type="curve"/>
      <point x="555" y="-60" type="line"/>
      <point x="491" y="-93"/>
      <point x="422" y="-102"/>
      <point x="355" y="-102" type="curve" smooth="yes"/>
      <point x="191" y="-102"/>
      <point x="30" y="24"/>
      <point x="30" y="219" type="curve" smooth="yes"/>
      <point x="30" y="424"/>
      <point x="180" y="598"/>
      <point x="421" y="598" type="curve" smooth="yes"/>
      <point x="604" y="598"/>
      <point x="734" y="474"/>
      <point x="734" y="305" type="curve" smooth="yes"/>
      <point x="734" y="144"/>
      <point x="661" y="62"/>
      <point x="557" y="62" type="curve" smooth="yes"/>
      <point x="526" y="62"/>
      <point x="497" y="72"/>
      <point x="477" y="92" type="curve"/>
      <point x="453" y="77"/>
      <point x="419" y="63"/>
      <point x="386" y="63" type="curve" smooth="yes"/>
      <point x="270" y="63"/>
      <point x="216" y="126"/>
      <point x="216" y="217" type="curve" smooth="yes"/>
      <point x="216" y="341"/>
      <point x="326" y="421"/>
      <point x="443" y="421" type="curve" smooth="yes"/>
      <point x="519" y="421" type="line"/>
    </contour>
    <contour>
      <point x="385" y="137" type="curve" smooth="yes"/>
      <point x="413" y="137"/>
      <point x="436" y="153"/>
      <point x="445" y="174" type="curve"/>
      <point x="444" y="176"/>
      <point x="443" y="181"/>
      <point x="444" y="187" type="curve" smooth="yes"/>
      <point x="465" y="352" type="line"/>
      <point x="449" y="352" type="line" smooth="yes"/>
      <point x="373" y="352"/>
      <point x="303" y="306"/>
      <point x="303" y="217" type="curve" smooth="yes"/>
      <point x="303" y="178"/>
      <point x="325" y="137"/>
    </contour>
  </outline>
</glyph>
<glyph name="A" format="2">
  <advance width="625"/>
  <unicode hex="0041"/>
  <anchor x="566" y="2" name="bottom"/>
  <anchor x="308" y="680" name="topU"/>
  <outline>
    <contour>
      <point x="420" y="259" type="line"/>
      <point x="308" y="551" type="line"/>
      <point x="199" y="259" type="line"/>
    </contour>
    <contour>
      <point x="266" y="680" type="line"/>
      <point x="353" y="680" type="line"/>
      <point x="615" y="6" type="line"/>
      <point x="520" y="-8" type="line"/>
      <point x="449" y="182" type="line"/>
      <point x="172" y="182" type="line"/>
      <point x="104" y="0" type="line"/>
      <point x="10" y="0" type="line"/>
    </contour>
  </outline>
</glyph>
<glyph name="B" format="2">
  <advance width="603"/>
  <unicode hex="0042"/>
  <outline>
    <contour>
      <point x="325" y="0" type="curve" smooth="yes"/>
      <point x="90" y="0" type="line"/>
      <point x="90" y="680" type="line"/>
      <point x="304" y="680" type="line" smooth="yes"/>
      <point x="441" y="680"/>
      <point x="538" y="633"/>
      <point x="538" y="496" type="curve" smooth="yes"/>
      <point x="538" y="437"/>
      <point x="496" y="394"/>
      <point x="451" y="365" type="curve"/>
      <point x="523" y="337"/>
      <point x="573" y="282"/>
      <point x="573" y="194" type="curve" smooth="yes"/>
      <point x="573" y="59"/>
      <point x="468" y="0"/>
    </contour>
    <contour>
      <point x="296" y="599" type="curve" smooth="yes"/>
      <point x="186" y="599" type="line"/>
      <point x="186" y="390" type="line"/>
      <point x="279" y="390" type="line" smooth="yes"/>
      <point x="367" y="391"/>
      <point x="439" y="418"/>
      <point x="439" y="495" type="curve" smooth="yes"/>
      <point x="439" y="579"/>
      <point x="383" y="599"/>
    </contour>
    <contour>
      <point x="331" y="312" type="curve" smooth="yes"/>
      <point x="186" y="312" type="line"/>
      <point x="186" y="79" type="line"/>
      <point x="321" y="79" type="line" smooth="yes"/>
      <point x="409" y="79"/>
      <point x="475" y="111"/>
      <point x="475" y="192" type="curve" smooth="yes"/>
      <point x="475" y="275"/>
      <point x="418" y="312"/>
    </contour>
  </outline>
</glyph>
<glyph name="C" format="2">
  <advance width="559"/>
  <unicode hex="0043"/>
  <anchor x="357" y="0" name="bottom"/>
  <anchor x="363" y="680" name="topU"/>
  <outline>
    <contour>
      <point x="536" y="653" type="curve"/>
      <point x="506" y="584" type="line"/>
      <point x="457" y="601"/>
      <point x="426" y="612"/>
      <point x="361" y="612" type="curve" smooth="yes"/>
      <point x="237" y="612"/>
      <point x="140" y="501"/>
      <point x="140" y="337" type="curve" smooth="yes"/>
      <point x="140" y="190"/>
      <point x="218" y="68"/>
      <point x="353" y="68" type="curve" smooth="yes"/>
      <point x="418" y="68"/>
      <point x="465" y="81"/>
      <point x="502" y="98" type="curve"/>
      <point x="539" y="26" type="line"/>
      <point x="494" y="3"/>
      <point x="414" y="-14"/>
      <point x="357" y="-14" type="curve" smooth="yes"/>
      <point x="148" y="-14"/>
      <point x="40" y="145"/>
      <point x="40" y="336" type="curve" smooth="yes"/>
      <point x="40" y="540"/>
      <point x="164" y="694"/>
      <point x="363" y="694" type="curve" smooth="yes"/>
      <point x="403" y="694"/>
      <point x="487" y="682"/>
    </contour>
  </outline>
</glyph>
<glyph name="D" format="2">
  <advance width="678"/>
  <unicode hex="0044"/>
  <anchor x="325" y="680" name="topU"/>
  <outline>
    <contour>
      <point x="331" y="0" type="curve" smooth="yes"/>
      <point x="90" y="0" type="line"/>
      <point x="90" y="680" type="line"/>
      <point x="335" y="680" type="line" smooth="yes"/>
      <point x="546" y="680"/>
      <point x="638" y="535"/>
      <point x="638" y="344" type="curve" smooth="yes"/>
      <point x="638" y="145"/>
      <point x="530" y="0"/>
    </contour>
    <contour>
      <point x="339" y="598" type="curve" smooth="yes"/>
      <point x="186" y="598" type="line"/>
      <point x="186" y="80" type="line"/>
      <point x="331" y="80" type="line" smooth="yes"/>
      <point x="456" y="80"/>
      <point x="541" y="171"/>
      <point x="541" y="343" type="curve" smooth="yes"/>
      <point x="541" y="494"/>
      <point x="478" y="598"/>
    </contour>
  </outline>
</glyph>
<glyph name="E" format="2">
  <advance width="542"/>
  <unicode hex="0045"/>
  <anchor x="411" y="0" name="bottom"/>
  <anchor x="295" y="680" name="topU"/>
  <outline>
    <contour>
      <point x="522" y="0" type="line"/>
      <point x="90" y="0" type="line"/>
      <point x="90" y="680" type="line"/>
      <point x="473" y="680" type="line"/>
      <point x="486" y="606" type="line"/>
      <point x="186" y="606" type="line"/>
      <point x="186" y="383" type="line"/>
      <point x="417" y="383" type="line"/>
      <point x="430" y="309" type="line"/>
      <point x="186" y="309" type="line"/>
      <point x="186" y="75" type="line"/>
      <point x="509" y="75" type="line"/>
    </contour>
  </outline>
</glyph>
<glyph name="F" format="2">
  <advance width="491"/>
  <unicode hex="0046"/>
  <outline>
    <contour>
      <point x="407" y="378" type="line"/>
      <point x="419" y="305" type="line"/>
      <point x="186" y="305" type="line"/>
      <point x="186" y="0" type="line"/>
      <point x="90" y="0" type="line"/>
      <point x="90" y="680" type="line"/>
      <point x="457" y="680" type="line"/>
      <point x="471" y="606" type="line"/>
      <point x="186" y="606" type="line"/>
      <point x="186" y="378" type="line"/>
    </contour>
  </outline>
</glyph>
<glyph name="G" format="2">
  <advance width="628"/>
  <unicode hex="0047"/>
  <anchor x="380" y="0" name="bottom"/>
  <anchor x="364" y="680" name="topU"/>
  <outline>
    <contour>
      <point x="341" y="284" type="line"/>
      <point x="349" y="357" type="line"/>
      <point x="578" y="357" type="line"/>
      <point x="577" y="34" type="line"/>
      <point x="531" y="7"/>
      <point x="453" y="-14"/>
      <point x="380" y="-14" type="curve" smooth="yes"/>
      <point x="171" y="-14"/>
      <point x="40" y="139"/>
      <point x="40" y="336" type="curve" smooth="yes"/>
      <point x="40" y="547"/>
      <point x="191" y="694"/>
      <point x="391" y="694" type="curve" smooth="yes"/>
      <point x="432" y="694"/>
      <point x="519" y="682"/>
      <point x="567" y="653" type="curve"/>
      <point x="537" y="584" type="line"/>
      <point x="488" y="601"/>
      <point x="458" y="612"/>
      <point x="393" y="612" type="curve" smooth="yes"/>
      <point x="261" y="612"/>
      <point x="140" y="516"/>
      <point x="140" y="337" type="curve" smooth="yes"/>
      <point x="140" y="172"/>
      <point x="242" y="68"/>
      <point x="378" y="68" type="curve" smooth="yes"/>
      <point x="423" y="68"/>
      <point x="460" y="76"/>
      <point x="489" y="85" type="curve"/>
      <point x="489" y="284" type="line"/>
    </contour>
  </outline>
</glyph>
<glyph name="H" format="2">
  <advance width="674"/>
  <unicode hex="0048"/>
  <outline>
    <contour>
      <point x="584" y="0" type="line"/>
      <point x="488" y="0" type="line"/>
      <point x="488" y="303" type="line"/>
      <point x="186" y="303" type="line"/>
      <point x="186" y="0" type="line"/>
      <point x="90" y="0" type="line"/>
      <point x="90" y="680" type="line"/>
      <point x="186" y="685" type="line"/>
      <point x="186" y="380" type="line"/>
      <point x="488" y="380" type="line"/>
      <point x="488" y="680" type="line"/>
      <point x="584" y="680" type="line"/>
    </contour>
  </outline>
</glyph>
<glyph name="I" format="2">
  <advance width="276"/>
  <unicode hex="0049"/>
  <anchor x="137" y="0" name="bottom"/>
  <anchor x="140" y="680" name="topU"/>
  <outline>
    <contour>
      <point x="186" y="0" type="line"/>
      <point x="90" y="0" type="line"/>
      <point x="90" y="680" type="line"/>
      <point x="186" y="680" type="line"/>
    </contour>
  </outline>
</glyph>
<glyph name="J" format="2">
  <advance width="268"/>
  <unicode hex="004A"/>
  <outline>
    <contour>
      <point x="92" y="73" type="curve" smooth="yes"/>
      <point x="92" y="680" type="line"/>
      <point x="188" y="680" type="line"/>
      <point x="188" y="55" type="line" smooth="yes"/>
      <point x="188" y="-32"/>
      <point x="156" y="-69"/>
      <point x="48" y="-102" type="curve"/>
      <point x="10" y="-33" type="line"/>
      <point x="78" y="-8"/>
      <point x="92" y="5"/>
    </contour>
  </outline>
</glyph>
<glyph name="K" format="2">
  <advance width="625"/>
  <unicode hex="004B"/>
  <anchor x="338" y="0" name="bottom"/>
  <outline>
    <contour>
      <point x="498" y="0" type="line"/>
      <point x="615" y="0" type="line"/>
      <point x="323.432" y="381.885" type="line"/>
      <point x="564" y="639" type="line"/>
      <point x="496" y="695" type="line"/>
      <point x="186" y="365" type="line"/>
      <point x="186" y="680" type="line"/>
      <point x="90" y="680" type="line"/>
      <point x="90" y="0" type="line"/>
      <point x="186" y="0" type="line"/>
      <point x="186" y="235" type="line"/>
      <point x="259.021" y="313.043" type="line"/>
    </contour>
  </outline>
</glyph>
<glyph name="L" format="2">
  <advance width="515"/>
  <unicode hex="004C"/>
  <anchor x="341" y="0" name="bottom"/>
  <anchor x="186" y="680" name="topU"/>
  <outline>
    <contour>
      <point x="493" y="75" type="line"/>
      <point x="505" y="0" type="line"/>
      <point x="90" y="0" type="line"/>
      <point x="90" y="680" type="line"/>
      <point x="186" y="680" type="line"/>
      <point x="186" y="75" type="line"/>
    </contour>
  </outline>
</glyph>
<glyph name="M" format="2">
  <advance width="765"/>
  <unicode hex="004D"/>
  <outline>
    <contour>
      <point x="409" y="223" type="line"/>
      <point x="374" y="218" type="line"/>
      <point x="186" y="481" type="line"/>
      <point x="186" y="0" type="line"/>
      <point x="90" y="0" type="line"/>
      <point x="90" y="680" type="line"/>
      <point x="149" y="680" type="line"/>
      <point x="388" y="344" type="line"/>
      <point x="615" y="680" type="line"/>
      <point x="675" y="680" type="line"/>
      <point x="675" y="0" type="line"/>
      <point x="578" y="0" type="line"/>
      <point x="578" y="472" type="line"/>
    </contour>
  </outline>
</glyph>
<glyph name="N" format="2">
  <advance width="715"/>
  <unicode hex="004E"/>
  <anchor x="361" y="0" name="bottom"/>
  <anchor x="362" y="680" name="topU"/>
  <outline>
    <contour>
      <point x="186" y="0" type="line"/>
      <point x="90" y="0" type="line"/>
      <point x="90" y="680" type="line"/>
      <point x="175" y="680" type="line"/>
      <point x="480" y="252" type="line"/>
      <point x="528" y="177" type="line"/>
      <point x="528" y="680" type="line"/>
      <point x="625" y="680" type="line"/>
      <point x="625" y="0" type="line"/>
      <point x="539" y="0" type="line"/>
      <point x="224" y="447" type="line"/>
      <point x="186" y="507" type="line"/>
    </contour>
  </outline>
</glyph>
<glyph name="O" format="2">
  <advance width="729"/>
  <unicode hex="004F"/>
  <anchor x="364" y="680" name="topU"/>
  <outline>
    <contour>
      <point x="362" y="-14" type="curve" smooth="yes"/>
      <point x="552" y="-11"/>
      <point x="689" y="139"/>
      <point x="689" y="344" type="curve" smooth="yes"/>
      <point x="689" y="548"/>
      <point x="553" y="696"/>
      <point x="365" y="696" type="curve" smooth="yes"/>
      <point x="177" y="692"/>
      <point x="40" y="541"/>
      <point x="40" y="337" type="curve" smooth="yes"/>
      <point x="40" y="133"/>
      <point x="175" y="-14"/>
    </contour>
    <contour>
      <point x="361" y="68" type="curve" smooth="yes"/>
      <point x="233" y="68"/>
      <point x="140" y="181"/>
      <point x="140" y="338" type="curve" smooth="yes"/>
      <point x="140" y="497"/>
      <point x="235" y="613"/>
      <point x="367" y="613" type="curve" smooth="yes"/>
      <point x="495" y="613"/>
      <point x="587" y="500"/>
      <point x="587" y="344" type="curve" smooth="yes"/>
      <point x="587" y="184"/>
      <point x="492" y="68"/>
    </contour>
  </outline>
</glyph>
<glyph name="Q" format="2">
  <advance width="729"/>
  <unicode hex="0051"/>
  <outline>
    <contour>
      <point x="458" y="237" type="line"/>
      <point x="675" y="24" type="line"/>
      <point x="619" y="-25" type="line"/>
      <point x="392" y="187" type="line"/>
    </contour>
    <contour>
      <point x="365" y="696" type="curve" smooth="yes"/>
      <point x="553" y="696"/>
      <point x="689" y="548"/>
      <point x="689" y="344" type="curve" smooth="yes"/>
      <point x="689" y="139"/>
      <point x="552" y="-11"/>
      <point x="362" y="-14" type="curve" smooth="yes"/>
      <point x="175" y="-14"/>
      <point x="40" y="133"/>
      <point x="40" y="337" type="curve" smooth="yes"/>
      <point x="40" y="541"/>
      <point x="177" y="692"/>
    </contour>
    <contour>
      <point x="140" y="338" type="curve" smooth="yes"/>
      <point x="140" y="181"/>
      <point x="233" y="68"/>
      <point x="361" y="68" type="curve" smooth="yes"/>
      <point x="492" y="68"/>
      <point x="587" y="184"/>
      <point x="587" y="344" type="curve" smooth="yes"/>
      <point x="587" y="500"/>
      <point x="495" y="613"/>
      <point x="367" y="613" type="curve" smooth="yes"/>
      <point x="235" y="613"/>
      <point x="140" y="497"/>
    </contour>
  </outline>
</glyph>
<glyph name="R" format="2">
  <advance width="604"/>
  <unicode hex="0052"/>
  <anchor x="325" y="0" name="bottom"/>
  <anchor x="287" y="680" name="topU"/>
  <outline>
    <contour>
      <point x="284" y="599" type="curve" smooth="yes"/>
      <point x="186" y="599" type="line"/>
      <point x="186" y="350" type="line"/>
      <point x="279" y="350" type="line" smooth="yes"/>
      <point x="368" y="350"/>
      <point x="441" y="382"/>
      <point x="442" y="474" type="curve" smooth="yes"/>
      <point x="442" y="570"/>
      <point x="379" y="599"/>
    </contour>
    <contour>
      <point x="90" y="680" type="line"/>
      <point x="285" y="680" type="line" smooth="yes"/>
      <point x="429" y="680"/>
      <point x="542" y="621"/>
      <point x="542" y="478" type="curve" smooth="yes"/>
      <point x="541" y="389"/>
      <point x="492" y="329"/>
      <point x="423" y="300" type="curve"/>
      <point x="594" y="0" type="line"/>
      <point x="490" y="0" type="line"/>
      <point x="338" y="275" type="line"/>
      <point x="327" y="273"/>
      <point x="293" y="272"/>
      <point x="275" y="272" type="curve" smooth="yes"/>
      <point x="186" y="272" type="line"/>
      <point x="186" y="0" type="line"/>
      <point x="90" y="0" type="line"/>
    </contour>
  </outline>
</glyph>
<glyph name="S" format="2">
  <advance width="518"/>
  <unicode hex="0053"/>
  <anchor x="244" y="0" name="bottom"/>
  <anchor x="263" y="680" name="topU"/>
  <outline>
    <contour>
      <point x="52" y="37" type="curve"/>
      <point x="74" y="113" type="line"/>
      <point x="111" y="94"/>
      <point x="181" y="70"/>
      <point x="242" y="70" type="curve" smooth="yes"/>
      <point x="339" y="70"/>
      <point x="391" y="109"/>
      <point x="391" y="168" type="curve" smooth="yes"/>
      <point x="391" y="235"/>
      <point x="327" y="269"/>
      <point x="216" y="318" type="curve" smooth="yes"/>
      <point x="99" y="370"/>
      <point x="40" y="417"/>
      <point x="40" y="520" type="curve" smooth="yes"/>
      <point x="40" y="619"/>
      <point x="124" y="696"/>
      <point x="263" y="696" type="curve" smooth="yes"/>
      <point x="331" y="696"/>
      <point x="398" y="674"/>
      <point x="443" y="651" type="curve"/>
      <point x="411" y="575" type="line"/>
      <point x="376" y="592"/>
      <point x="334" y="611"/>
      <point x="270" y="611" type="curve" smooth="yes"/>
      <point x="194" y="611"/>
      <point x="136" y="582"/>
      <point x="136" y="522" type="curve" smooth="yes"/>
      <point x="136" y="453"/>
      <point x="195" y="422"/>
      <point x="312" y="369" type="curve" smooth="yes"/>
      <point x="423" y="319"/>
      <point x="488" y="269"/>
      <point x="488" y="170" type="curve" smooth="yes"/>
      <point x="488" y="63"/>
      <point x="400" y="-13"/>
      <point x="243" y="-13" type="curve" smooth="yes"/>
      <point x="186" y="-13"/>
      <point x="79" y="13"/>
    </contour>
  </outline>
</glyph>
<glyph name="T" format="2">
  <advance width="572"/>
  <unicode hex="0054"/>
  <anchor x="284" y="0" name="bottom"/>
  <anchor x="281" y="680" name="topU"/>
  <outline>
    <contour>
      <point x="549" y="680" type="line"/>
      <point x="562" y="604" type="line"/>
      <point x="328" y="604" type="line"/>
      <point x="328" y="0" type="line"/>
      <point x="231" y="0" type="line"/>
      <point x="231" y="604" type="line"/>
      <point x="10" y="604" type="line"/>
      <point x="10" y="680" type="line"/>
    </contour>
  </outline>
</glyph>
<glyph name="U" format="2">
  <advance width="690"/>
  <unicode hex="0055"/>
  <anchor x="345" y="0" name="bottom"/>
  <anchor x="345" y="680" name="topU"/>
  <outline>
    <contour>
      <point x="176" y="680" type="line"/>
      <point x="176" y="252" type="line" smooth="yes"/>
      <point x="176" y="137"/>
      <point x="245" y="68"/>
      <point x="345" y="68" type="curve" smooth="yes"/>
      <point x="449" y="68"/>
      <point x="513" y="140"/>
      <point x="513" y="252" type="curve" smooth="yes"/>
      <point x="513" y="680" type="line"/>
      <point x="610" y="680" type="line"/>
      <point x="610" y="243" type="line" smooth="yes"/>
      <point x="610" y="98"/>
      <point x="508" y="-11"/>
      <point x="345" y="-11" type="curve" smooth="yes"/>
      <point x="182" y="-11"/>
      <point x="80" y="96"/>
      <point x="80" y="243" type="curve" smooth="yes"/>
      <point x="80" y="680" type="line"/>
    </contour>
  </outline>
</glyph>
<glyph name="V" format="2">
  <advance width="625"/>
  <unicode hex="0056"/>
  <outline>
    <contour>
      <point x="105" y="688" type="line"/>
      <point x="317" y="129" type="line"/>
      <point x="521" y="680" type="line"/>
      <point x="615" y="680" type="line"/>
      <point x="359" y="0" type="line"/>
      <point x="272" y="0" type="line"/>
      <point x="10" y="674" type="line"/>
    </contour>
  </outline>
</glyph>
<glyph name="W" format="2">
  <advance width="893"/>
  <unicode hex="0057"/>
  <outline>
    <contour>
      <point x="883" y="680" type="line"/>
      <point x="789" y="680" type="line"/>
      <point x="645" y="129" type="line"/>
      <point x="495" y="680" type="line"/>
      <point x="401" y="680" type="line"/>
      <point x="257" y="129" type="line"/>
      <point x="105" y="688" type="line"/>
      <point x="10" y="674" type="line"/>
      <point x="212" y="0" type="line"/>
      <point x="299" y="0" type="line"/>
      <point x="447" y="542" type="line"/>
      <point x="600" y="0" type="line"/>
      <point x="687" y="0" type="line"/>
    </contour>
  </outline>
</glyph>
<glyph name="X" format="2">
  <advance width="604"/>
  <unicode hex="0058"/>
  <outline>
    <contour>
      <point x="110" y="0" type="line"/>
      <point x="10" y="0" type="line"/>
      <point x="253" y="344" type="line"/>
      <point x="38" y="660" type="line"/>
      <point x="116" y="700" type="line"/>
      <point x="315" y="402" type="line"/>
      <point x="493" y="680" type="line"/>
      <point x="594" y="680" type="line"/>
      <point x="364" y="335" type="line"/>
      <point x="581" y="0" type="line"/>
      <point x="478" y="0" type="line"/>
      <point x="303" y="276" type="line"/>
    </contour>
  </outline>
</glyph>
<glyph name="Y" format="2">
  <advance width="579"/>
  <unicode hex="0059"/>
  <anchor x="283" y="680" name="topU"/>
  <outline>
    <contour>
      <point x="331" y="0" type="line"/>
      <point x="235" y="0" type="line"/>
      <point x="235" y="270" type="line"/>
      <point x="10" y="663" type="line"/>
      <point x="103" y="697" type="line"/>
      <point x="283" y="366" type="line"/>
      <point x="467" y="680" type="line"/>
      <point x="569" y="680" type="line"/>
      <point x="332" y="271" type="line"/>
    </contour>
  </outline>
</glyph>
<glyph name="Z" format="2">
  <advance width="564"/>
  <unicode hex="005A"/>
  <anchor x="309" y="680" name="topU"/>
  <outline>
    <contour>
      <point x="531" y="75" type="line"/>
      <point x="541" y="0" type="line"/>
      <point x="31" y="0" type="line"/>
      <point x="20" y="75" type="line"/>
      <point x="435" y="604" type="line"/>
      <point x="61" y="604" type="line"/>
      <point x="48" y="680" type="line"/>
      <point x="534" y="680" type="line"/>
      <point x="544" y="604" type="line"/>
      <point x="125" y="75" type="line"/>
    </contour>
  </outline>
</glyph>
<glyph name="bracketleft" format="2">
  <advance width="318"/>
  <unicode hex="005B"/>
  <outline>
    <contour>
      <point x="100" y="-88" type="line"/>
      <point x="100" y="696" type="line"/>
      <point x="308" y="696" type="line"/>
      <point x="294" y="622" type="line"/>
      <point x="193" y="622" type="line"/>
      <point x="193" y="-15" type="line"/>
      <point x="294" y="-15" type="line"/>
      <point x="308" y="-88" type="line"/>
    </contour>
  </outline>
</glyph>
<glyph name="backslash" format="2">
  <advance width="419"/>
  <unicode hex="005C"/>
  <outline>
    <contour>
      <point x="409" y="0" type="line"/>
      <point x="313" y="-4" type="line"/>
      <point x="10" y="706" type="line"/>
      <point x="106" y="710" type="line"/>
    </contour>
  </outline>
</glyph>
<glyph name="bracketright" format="2">
  <advance width="317"/>
  <unicode hex="005D"/>
  <outline>
    <contour>
      <point x="217" y="696" type="line"/>
      <point x="217" y="-88" type="line"/>
      <point x="10" y="-88" type="line"/>
      <point x="23" y="-15" type="line"/>
      <point x="123" y="-15" type="line"/>
      <point x="123" y="622" type="line"/>
      <point x="23" y="622" type="line"/>
      <point x="10" y="696" type="line"/>
    </contour>
  </outline>
</glyph>
<glyph name="asciicircum" format="2">
  <advance width="432"/>
  <unicode hex="005E"/>
  <outline>
    <contour>
      <point x="216" y="301" type="line"/>
      <point x="107" y="143" type="line"/>
      <point x="10" y="143" type="line"/>
      <point x="182" y="390" type="line"/>
      <point x="251" y="390" type="line"/>
      <point x="422" y="143" type="line"/>
      <point x="325" y="143" type="line"/>
    </contour>
  </outline>
</glyph>
<glyph name="underscore" format="2">
  <advance width="440"/>
  <unicode hex="005F"/>
  <outline>
    <contour>
      <point x="401" y="75" type="line"/>
      <point x="410" y="0" type="line"/>
      <point x="39" y="0" type="line"/>
      <point x="30" y="75" type="line"/>
    </contour>
  </outline>
</glyph>
<glyph name="grave" format="2">
  <advance width="176"/>
  <unicode hex="0060"/>
  <outline>
    <contour>
      <point x="100" y="589" type="line"/>
      <point x="10" y="747" type="line"/>
      <point x="112" y="747" type="line"/>
      <point x="166" y="606" type="line"/>
    </contour>
  </outline>
</glyph>
<glyph name="a" format="2">
  <advance width="493"/>
  <unicode hex="0061"/>
  <anchor x="388" y="0" name="bottom"/>
  <anchor x="241" y="485" name="top"/>
  <outline>
    <contour>
      <point x="133" y="140" type="curve" smooth="yes"/>
      <point x="133" y="103"/>
      <point x="159" y="64"/>
      <point x="214" y="64" type="curve" smooth="yes"/>
      <point x="263" y="64"/>
      <point x="308" y="91"/>
      <point x="341" y="128" type="curve"/>
      <point x="341" y="226" type="line"/>
      <point x="223" y="226" type="line" smooth="yes"/>
      <point x="164" y="226"/>
      <point x="133" y="185"/>
    </contour>
    <contour>
      <point x="103" y="379" type="curve"/>
      <point x="76" y="455" type="line"/>
      <point x="113" y="480"/>
      <point x="200" y="498"/>
      <point x="241" y="498" type="curve" smooth="yes"/>
      <point x="353" y="498"/>
      <point x="437" y="423"/>
      <point x="437" y="329" type="curve" smooth="yes"/>
      <point x="437" y="0" type="line"/>
      <point x="370" y="0" type="line"/>
      <point x="358" y="46" type="line"/>
      <point x="325" y="17"/>
      <point x="268" y="-12"/>
      <point x="216" y="-12" type="curve" smooth="yes"/>
      <point x="101" y="-12"/>
      <point x="47" y="52"/>
      <point x="47" y="140" type="curve" smooth="yes"/>
      <point x="47" y="237"/>
      <point x="120" y="290"/>
      <point x="225" y="290" type="curve" smooth="yes"/>
      <point x="340" y="290" type="line"/>
      <point x="340" y="295" type="line" smooth="yes"/>
      <point x="340" y="362"/>
      <point x="319" y="412"/>
      <point x="243" y="412" type="curve" smooth="yes"/>
      <point x="186" y="412"/>
      <point x="139" y="395"/>
    </contour>
  </outline>
</glyph>
<glyph name="b" format="2">
  <advance width="537"/>
  <unicode hex="0062"/>
  <outline>
    <contour>
      <point x="124" y="0" type="line"/>
      <point x="70" y="0" type="line"/>
      <point x="70" y="695" type="line"/>
      <point x="166" y="706" type="line"/>
      <point x="166" y="63" type="line"/>
    </contour>
    <contour>
      <point x="130" y="343" type="curve"/>
      <point x="101" y="412" type="line"/>
      <point x="144" y="471"/>
      <point x="225" y="498"/>
      <point x="266" y="498" type="curve" smooth="yes"/>
      <point x="415" y="498"/>
      <point x="507" y="395"/>
      <point x="507" y="239" type="curve" smooth="yes"/>
      <point x="507" y="88"/>
      <point x="411" y="-13"/>
      <point x="265" y="-13" type="curve" smooth="yes"/>
      <point x="225" y="-13"/>
      <point x="142" y="10"/>
      <point x="99" y="74" type="curve"/>
      <point x="127" y="142" type="line"/>
      <point x="168" y="90"/>
      <point x="209" y="69"/>
      <point x="266" y="69" type="curve" smooth="yes"/>
      <point x="357" y="69"/>
      <point x="409" y="142"/>
      <point x="409" y="238" type="curve" smooth="yes"/>
      <point x="409" y="342"/>
      <point x="358" y="416"/>
      <point x="266" y="416" type="curve" smooth="yes"/>
      <point x="207" y="416"/>
      <point x="171" y="393"/>
    </contour>
  </outline>
</glyph>
<glyph name="d" format="2">
  <advance width="544"/>
  <unicode hex="0064"/>
  <outline>
    <contour>
      <point x="377" y="82" type="line"/>
      <point x="377" y="695" type="line"/>
      <point x="474" y="705" type="line"/>
      <point x="474" y="0" type="line"/>
      <point x="419" y="0" type="line"/>
    </contour>
    <contour>
      <point x="407" y="142" type="curve"/>
      <point x="436" y="73" type="line"/>
      <point x="393" y="14"/>
      <point x="312" y="-13"/>
      <point x="271" y="-13" type="curve" smooth="yes"/>
      <point x="122" y="-13"/>
      <point x="30" y="90"/>
      <point x="30" y="246" type="curve" smooth="yes"/>
      <point x="30" y="397"/>
      <point x="126" y="498"/>
      <point x="272" y="498" type="curve" smooth="yes"/>
      <point x="312" y="498"/>
      <point x="395" y="475"/>
      <point x="438" y="411" type="curve"/>
      <point x="410" y="343" type="line"/>
      <point x="369" y="395"/>
      <point x="328" y="416"/>
      <point x="271" y="416" type="curve" smooth="yes"/>
      <point x="180" y="416"/>
      <point x="128" y="343"/>
      <point x="128" y="247" type="curve" smooth="yes"/>
      <point x="128" y="143"/>
      <point x="179" y="69"/>
      <point x="271" y="69" type="curve" smooth="yes"/>
      <point x="330" y="69"/>
      <point x="366" y="92"/>
    </contour>
  </outline>
</glyph>
<glyph name="f" format="2">
  <advance width="324"/>
  <unicode hex="0066"/>
  <outline>
    <contour>
      <point x="16" y="406" type="line"/>
      <point x="15" y="479" type="line"/>
      <point x="89" y="479" type="line"/>
      <point x="89" y="542" type="line" smooth="yes"/>
      <point x="89" y="639"/>
      <point x="147" y="702"/>
      <point x="243" y="702" type="curve" smooth="yes"/>
      <point x="272" y="702"/>
      <point x="307" y="691"/>
      <point x="324" y="680" type="curve"/>
      <point x="300" y="606" type="line"/>
      <point x="287" y="611"/>
      <point x="267" y="617"/>
      <point x="252" y="617" type="curve" smooth="yes"/>
      <point x="204" y="617"/>
      <point x="185" y="582"/>
      <point x="185" y="533" type="curve" smooth="yes"/>
      <point x="185" y="479" type="line"/>
      <point x="275" y="479" type="line"/>
      <point x="306" y="406" type="line"/>
      <point x="185" y="406" type="line"/>
      <point x="185" y="0" type="line"/>
      <point x="89" y="0" type="line"/>
      <point x="89" y="406" type="line"/>
    </contour>
  </outline>
</glyph>
<glyph name="g" format="2">
  <advance width="540"/>
  <unicode hex="0067"/>
  <anchor x="261" y="485" name="top"/>
  <outline>
    <contour>
      <point x="474" y="485" type="line"/>
      <point x="474" y="-43" type="line" smooth="yes"/>
      <point x="474" y="-150"/>
      <point x="391" y="-230"/>
      <point x="242" y="-230" type="curve" smooth="yes"/>
      <point x="201" y="-230"/>
      <point x="115" y="-213"/>
      <point x="70" y="-182" type="curve"/>
      <point x="99" y="-113" type="line"/>
      <point x="146" y="-134"/>
      <point x="180" y="-152"/>
      <point x="239" y="-152" type="curve" smooth="yes"/>
      <point x="319" y="-152"/>
      <point x="377" y="-114"/>
      <point x="377" y="-42" type="curve" smooth="yes"/>
      <point x="377" y="412" type="line"/>
      <point x="419" y="485" type="line"/>
    </contour>
    <contour>
      <point x="407" y="142" type="curve"/>
      <point x="436" y="73" type="line"/>
      <point x="393" y="14"/>
      <point x="312" y="-13"/>
      <point x="271" y="-13" type="curve" smooth="yes"/>
      <point x="122" y="-13"/>
      <point x="30" y="90"/>
      <point x="30" y="246" type="curve" smooth="yes"/>
      <point x="30" y="397"/>
      <point x="126" y="498"/>
      <point x="272" y="498" type="curve" smooth="yes"/>
      <point x="312" y="498"/>
      <point x="395" y="475"/>
      <point x="438" y="411" type="curve"/>
      <point x="410" y="343" type="line"/>
      <point x="369" y="395"/>
      <point x="328" y="416"/>
      <point x="271" y="416" type="curve" smooth="yes"/>
      <point x="180" y="416"/>
      <point x="128" y="343"/>
      <point x="128" y="247" type="curve" smooth="yes"/>
      <point x="128" y="143"/>
      <point x="179" y="69"/>
      <point x="271" y="69" type="curve" smooth="yes"/>
      <point x="330" y="69"/>
      <point x="366" y="92"/>
    </contour>
  </outline>
</glyph>
<glyph name="h" format="2">
  <advance width="551"/>
  <unicode hex="0068"/>
  <outline>
    <contour>
      <point x="166" y="342" type="curve"/>
      <point x="154" y="421" type="line"/>
      <point x="203" y="466"/>
      <point x="273" y="501"/>
      <point x="339" y="501" type="curve" smooth="yes"/>
      <point x="449" y="501"/>
      <point x="495" y="424"/>
      <point x="495" y="320" type="curve" smooth="yes"/>
      <point x="495" y="0" type="line"/>
      <point x="399" y="0" type="line"/>
      <point x="399" y="311" type="line" smooth="yes"/>
      <point x="399" y="376"/>
      <point x="382" y="419"/>
      <point x="319" y="419" type="curve" smooth="yes"/>
      <point x="270" y="419"/>
      <point x="213" y="383"/>
    </contour>
    <contour>
      <point x="166" y="0" type="line"/>
      <point x="70" y="0" type="line"/>
      <point x="70" y="695" type="line"/>
      <point x="166" y="706" type="line"/>
    </contour>
  </outline>
</glyph>
<glyph name="i" format="2">
  <advance width="217"/>
  <unicode hex="0069"/>
  <anchor x="110" y="0" name="bottom"/>
  <outline>
    <contour>
      <point x="157" y="0" type="line"/>
      <point x="60" y="0" type="line"/>
      <point x="60" y="485" type="line"/>
      <point x="157" y="485" type="line"/>
    </contour>
    <contour>
      <point x="107" y="572" type="curve" smooth="yes"/>
      <point x="74" y="572"/>
      <point x="48" y="599"/>
      <point x="48" y="632" type="curve" smooth="yes"/>
      <point x="48" y="665"/>
      <point x="74" y="692"/>
      <point x="107" y="692" type="curve" smooth="yes"/>
      <point x="140" y="692"/>
      <point x="168" y="665"/>
      <point x="168" y="632" type="curve" smooth="yes"/>
      <point x="168" y="599"/>
      <point x="140" y="572"/>
    </contour>
  </outline>
</glyph>
<glyph name="j" format="2">
  <advance width="240"/>
  <unicode hex="006A"/>
  <outline>
    <contour>
      <point x="123" y="572" type="curve" smooth="yes"/>
      <point x="156" y="572"/>
      <point x="184" y="599"/>
      <point x="184" y="632" type="curve" smooth="yes"/>
      <point x="184" y="665"/>
      <point x="156" y="692"/>
      <point x="123" y="692" type="curve" smooth="yes"/>
      <point x="90" y="692"/>
      <point x="63" y="665"/>
      <point x="63" y="632" type="curve" smooth="yes"/>
      <point x="63" y="599"/>
      <point x="90" y="572"/>
    </contour>
    <contour>
      <point x="172" y="485" type="line"/>
      <point x="75" y="485" type="line"/>
      <point x="75" y="-13" type="line" smooth="yes"/>
      <point x="75" y="-81"/>
      <point x="69" y="-110"/>
      <point x="0" y="-135" type="curve"/>
      <point x="37" y="-206" type="line"/>
      <point x="164" y="-166"/>
      <point x="172" y="-114"/>
      <point x="172" y="2" type="curve" smooth="yes"/>
    </contour>
  </outline>
</glyph>
<glyph name="k" format="2">
  <advance width="487"/>
  <unicode hex="006B"/>
  <anchor x="272" y="0" name="bottom"/>
  <outline>
    <contour>
      <point x="166" y="0" type="line"/>
      <point x="70" y="0" type="line"/>
      <point x="70" y="695" type="line"/>
      <point x="166" y="706" type="line"/>
      <point x="166" y="287" type="line"/>
      <point x="382" y="498" type="line"/>
      <point x="438" y="434" type="line"/>
      <point x="294" y="296" type="line"/>
      <point x="487" y="0" type="line"/>
      <point x="375" y="0" type="line"/>
      <point x="228" y="234" type="line"/>
      <point x="166" y="174" type="line"/>
    </contour>
  </outline>
</glyph>
<glyph name="l" format="2">
  <advance width="236"/>
  <unicode hex="006C"/>
  <anchor x="121" y="0" name="bottom"/>
  <outline>
    <contour>
      <point x="166" y="0" type="line"/>
      <point x="70" y="0" type="line"/>
      <point x="70" y="695" type="line"/>
      <point x="166" y="706" type="line"/>
    </contour>
  </outline>
</glyph>
<glyph name="m" format="2">
  <advance width="842"/>
  <unicode hex="006D"/>
  <outline>
    <contour>
      <point x="156" y="0" type="line"/>
      <point x="60" y="0" type="line"/>
      <point x="60" y="485" type="line"/>
      <point x="127" y="485" type="line"/>
      <point x="144" y="421" type="line"/>
      <point x="193" y="466"/>
      <point x="262" y="501"/>
      <point x="323" y="501" type="curve" smooth="yes"/>
      <point x="428" y="501"/>
      <point x="475" y="424"/>
      <point x="475" y="320" type="curve" smooth="yes"/>
      <point x="475" y="0" type="line"/>
      <point x="379" y="0" type="line"/>
      <point x="379" y="311" type="line" smooth="yes"/>
      <point x="379" y="376"/>
      <point x="361" y="419"/>
      <point x="303" y="419" type="curve" smooth="yes"/>
      <point x="259" y="419"/>
      <point x="203" y="383"/>
      <point x="156" y="342" type="curve"/>
    </contour>
    <contour>
      <point x="467" y="342" type="curve"/>
      <point x="455" y="421" type="line"/>
      <point x="504" y="466"/>
      <point x="573" y="501"/>
      <point x="634" y="501" type="curve" smooth="yes"/>
      <point x="739" y="501"/>
      <point x="786" y="424"/>
      <point x="786" y="320" type="curve" smooth="yes"/>
      <point x="786" y="0" type="line"/>
      <point x="690" y="0" type="line"/>
      <point x="690" y="311" type="line" smooth="yes"/>
      <point x="690" y="376"/>
      <point x="672" y="419"/>
      <point x="614" y="419" type="curve" smooth="yes"/>
      <point x="570" y="419"/>
      <point x="514" y="383"/>
    </contour>
  </outline>
</glyph>
<glyph name="n" format="2">
  <advance width="541"/>
  <unicode hex="006E"/>
  <anchor x="282" y="0" name="bottom"/>
  <anchor x="283" y="485" name="top"/>
  <outline>
    <contour>
      <point x="156" y="0" type="line"/>
      <point x="60" y="0" type="line"/>
      <point x="60" y="485" type="line"/>
      <point x="127" y="485" type="line"/>
      <point x="144" y="421" type="line"/>
      <point x="193" y="466"/>
      <point x="263" y="501"/>
      <point x="329" y="501" type="curve" smooth="yes"/>
      <point x="439" y="501"/>
      <point x="485" y="424"/>
      <point x="485" y="320" type="curve" smooth="yes"/>
      <point x="485" y="0" type="line"/>
      <point x="389" y="0" type="line"/>
      <point x="389" y="311" type="line" smooth="yes"/>
      <point x="389" y="376"/>
      <point x="372" y="419"/>
      <point x="309" y="419" type="curve" smooth="yes"/>
      <point x="260" y="419"/>
      <point x="203" y="383"/>
      <point x="156" y="342" type="curve"/>
    </contour>
  </outline>
</glyph>
<glyph name="p" format="2">
  <advance width="533"/>
  <unicode hex="0070"/>
  <outline>
    <contour>
      <point x="162" y="-208" type="line"/>
      <point x="66" y="-219" type="line"/>
      <point x="66" y="485" type="line"/>
      <point x="120" y="485" type="line"/>
      <point x="162" y="425" type="line"/>
    </contour>
    <contour>
      <point x="126" y="343" type="curve"/>
      <point x="97" y="412" type="line"/>
      <point x="140" y="471"/>
      <point x="221" y="498"/>
      <point x="262" y="498" type="curve" smooth="yes"/>
      <point x="411" y="498"/>
      <point x="503" y="395"/>
      <point x="503" y="239" type="curve" smooth="yes"/>
      <point x="503" y="88"/>
      <point x="407" y="-13"/>
      <point x="261" y="-13" type="curve" smooth="yes"/>
      <point x="221" y="-13"/>
      <point x="138" y="10"/>
      <point x="95" y="74" type="curve"/>
      <point x="123" y="142" type="line"/>
      <point x="164" y="90"/>
      <point x="205" y="69"/>
      <point x="262" y="69" type="curve" smooth="yes"/>
      <point x="353" y="69"/>
      <point x="405" y="142"/>
      <point x="405" y="238" type="curve" smooth="yes"/>
      <point x="405" y="342"/>
      <point x="354" y="416"/>
      <point x="262" y="416" type="curve" smooth="yes"/>
      <point x="203" y="416"/>
      <point x="167" y="393"/>
    </contour>
  </outline>
</glyph>
<glyph name="r" format="2">
  <advance width="338"/>
  <unicode hex="0072"/>
  <anchor x="111" y="0" name="bottom"/>
  <anchor x="173" y="485" name="top"/>
  <outline>
    <contour>
      <point x="156" y="0" type="line"/>
      <point x="60" y="0" type="line"/>
      <point x="60" y="485" type="line"/>
      <point x="114" y="485" type="line"/>
      <point x="145" y="406" type="line"/>
      <point x="182" y="438"/>
      <point x="255" y="485"/>
      <point x="307" y="485" type="curve"/>
      <point x="328" y="408" type="line"/>
      <point x="275" y="408"/>
      <point x="203" y="366"/>
      <point x="156" y="321" type="curve"/>
    </contour>
  </outline>
</glyph>
<glyph name="s" format="2">
  <advance width="421"/>
  <unicode hex="0073"/>
  <anchor x="194" y="0" name="bottom"/>
  <anchor x="215" y="485" name="top"/>
  <outline>
    <contour>
      <point x="34" y="31" type="curve"/>
      <point x="64" y="98" type="line"/>
      <point x="105" y="78"/>
      <point x="150" y="65"/>
      <point x="194" y="65" type="curve" smooth="yes"/>
      <point x="258" y="65"/>
      <point x="299" y="90"/>
      <point x="299" y="127" type="curve" smooth="yes"/>
      <point x="299" y="164"/>
      <point x="254" y="191"/>
      <point x="191" y="211" type="curve" smooth="yes"/>
      <point x="115" y="236"/>
      <point x="32" y="278"/>
      <point x="32" y="357" type="curve" smooth="yes"/>
      <point x="32" y="445"/>
      <point x="103" y="498"/>
      <point x="216" y="498" type="curve" smooth="yes"/>
      <point x="257" y="498"/>
      <point x="331" y="481"/>
      <point x="372" y="452" type="curve"/>
      <point x="342" y="387" type="line"/>
      <point x="305" y="404"/>
      <point x="266" y="420"/>
      <point x="214" y="420" type="curve" smooth="yes"/>
      <point x="163" y="420"/>
      <point x="127" y="394"/>
      <point x="127" y="359" type="curve" smooth="yes"/>
      <point x="128" y="330"/>
      <point x="168" y="309"/>
      <point x="227" y="289" type="curve" smooth="yes"/>
      <point x="307" y="260"/>
      <point x="391" y="212"/>
      <point x="391" y="132" type="curve" smooth="yes"/>
      <point x="391" y="41"/>
      <point x="322" y="-13"/>
      <point x="194" y="-13" type="curve" smooth="yes"/>
      <point x="153" y="-13"/>
      <point x="75" y="2"/>
    </contour>
  </outline>
</glyph>
<glyph name="t" format="2">
  <advance width="341"/>
  <unicode hex="0074"/>
  <anchor x="210" y="0" name="bottom"/>
  <outline>
    <contour>
      <point x="268" y="479" type="line"/>
      <point x="298" y="406" type="line"/>
      <point x="180" y="406" type="line"/>
      <point x="180" y="150" type="line" smooth="yes"/>
      <point x="180" y="101"/>
      <point x="201" y="66"/>
      <point x="249" y="66" type="curve" smooth="yes"/>
      <point x="265" y="66"/>
      <point x="283" y="72"/>
      <point x="296" y="77" type="curve"/>
      <point x="321" y="4" type="line"/>
      <point x="304" y="-5"/>
      <point x="268" y="-17"/>
      <point x="239" y="-17" type="curve" smooth="yes"/>
      <point x="144" y="-17"/>
      <point x="84" y="36"/>
      <point x="84" y="135" type="curve" smooth="yes"/>
      <point x="84" y="406" type="line"/>
      <point x="16" y="406" type="line"/>
      <point x="15" y="479" type="line"/>
      <point x="84" y="479" type="line"/>
      <point x="84" y="600" type="line"/>
      <point x="180" y="622" type="line"/>
      <point x="180" y="479" type="line"/>
    </contour>
  </outline>
</glyph>
<glyph name="u" format="2">
  <advance width="541"/>
  <unicode hex="0075"/>
  <anchor x="431" y="-2" name="bottom"/>
  <anchor x="269" y="485" name="top"/>
  <outline>
    <contour>
      <point x="385" y="485" type="line"/>
      <point x="481" y="485" type="line"/>
      <point x="481" y="0" type="line"/>
      <point x="414" y="0" type="line"/>
      <point x="397" y="64" type="line"/>
      <point x="348" y="19"/>
      <point x="278" y="-16"/>
      <point x="212" y="-16" type="curve" smooth="yes"/>
      <point x="102" y="-16"/>
      <point x="56" y="61"/>
      <point x="56" y="165" type="curve" smooth="yes"/>
      <point x="56" y="485" type="line"/>
      <point x="152" y="485" type="line"/>
      <point x="152" y="174" type="line" smooth="yes"/>
      <point x="152" y="109"/>
      <point x="169" y="66"/>
      <point x="232" y="66" type="curve" smooth="yes"/>
      <point x="281" y="66"/>
      <point x="338" y="102"/>
      <point x="385" y="143" type="curve"/>
    </contour>
  </outline>
</glyph>
<glyph name="v" format="2">
  <advance width="473"/>
  <unicode hex="0076"/>
  <outline>
    <contour>
      <point x="279" y="0" type="line"/>
      <point x="190" y="0" type="line"/>
      <point x="10" y="469" type="line"/>
      <point x="102" y="503" type="line"/>
      <point x="236" y="135" type="line"/>
      <point x="364" y="485" type="line"/>
      <point x="463" y="485" type="line"/>
    </contour>
  </outline>
</glyph>
<glyph name="w" format="2">
  <advance width="702"/>
  <unicode hex="0077"/>
  <outline>
    <contour>
      <point x="541" y="0" type="line"/>
      <point x="453" y="0" type="line"/>
      <point x="346" y="345" type="line"/>
      <point x="245" y="0" type="line"/>
      <point x="157" y="0" type="line"/>
      <point x="10" y="468" type="line"/>
      <point x="102" y="502" type="line"/>
      <point x="202" y="143" type="line"/>
      <point x="297" y="485" type="line"/>
      <point x="398" y="485" type="line"/>
      <point x="498" y="143" type="line"/>
      <point x="593" y="485" type="line"/>
      <point x="692" y="485" type="line"/>
    </contour>
  </outline>
</glyph>
<glyph name="x" format="2">
  <advance width="470"/>
  <unicode hex="0078"/>
  <outline>
    <contour>
      <point x="117" y="0" type="line"/>
      <point x="10" y="0" type="line"/>
      <point x="173" y="247" type="line"/>
      <point x="28" y="468" type="line"/>
      <point x="114" y="502" type="line"/>
      <point x="238" y="306" type="line"/>
      <point x="355" y="485" type="line"/>
      <point x="460" y="485" type="line"/>
      <point x="293" y="232" type="line"/>
      <point x="445" y="0" type="line"/>
      <point x="339" y="0" type="line"/>
      <point x="228" y="174" type="line"/>
    </contour>
  </outline>
</glyph>
<glyph name="y" format="2">
  <advance width="473"/>
  <unicode hex="0079"/>
  <anchor x="232" y="485" name="top"/>
  <outline>
    <contour>
      <point x="159" y="-61" type="curve" smooth="yes"/>
      <point x="187" y="13" type="line"/>
      <point x="10" y="469" type="line"/>
      <point x="101" y="503" type="line"/>
      <point x="236" y="137" type="line"/>
      <point x="364" y="485" type="line"/>
      <point x="463" y="485" type="line"/>
      <point x="248" y="-88" type="line" smooth="yes"/>
      <point x="223" y="-155"/>
      <point x="155" y="-204"/>
      <point x="80" y="-221" type="curve"/>
      <point x="48" y="-147" type="line"/>
      <point x="96" y="-126"/>
      <point x="142" y="-106"/>
    </contour>
  </outline>
</glyph>
<glyph name="z" format="2">
  <advance width="434"/>
  <unicode hex="007A"/>
  <anchor x="225" y="485" name="top"/>
  <outline>
    <contour>
      <point x="409" y="485" type="line"/>
      <point x="414" y="432" type="line"/>
      <point x="138" y="76" type="line"/>
      <point x="406" y="76" type="line"/>
      <point x="416" y="0" type="line"/>
      <point x="30" y="0" type="line"/>
      <point x="18" y="50" type="line"/>
      <point x="290" y="407" type="line"/>
      <point x="59" y="407" type="line"/>
      <point x="38" y="485" type="line"/>
    </contour>
  </outline>
</glyph>
<glyph name="braceleft" format="2">
  <advance width="279"/>
  <unicode hex="007B"/>
  <outline>
    <contour>
      <point x="162" y="310" type="curve"/>
      <point x="194" y="289"/>
      <point x="211" y="252"/>
      <point x="211" y="204" type="curve" smooth="yes"/>
      <point x="211" y="185"/>
      <point x="205" y="162"/>
      <point x="194" y="135" type="curve" smooth="yes"/>
      <point x="182" y="107"/>
      <point x="176" y="85"/>
      <point x="176" y="70" type="curve" smooth="yes"/>
      <point x="176" y="51"/>
      <point x="193" y="30"/>
      <point x="230" y="30" type="curve" smooth="yes"/>
      <point x="260" y="30" type="line"/>
      <point x="269" y="-42" type="line"/>
      <point x="242" y="-42" type="line" smooth="yes"/>
      <point x="139" y="-42"/>
      <point x="94" y="-3"/>
      <point x="94" y="74" type="curve" smooth="yes"/>
      <point x="94" y="93"/>
      <point x="100" y="117"/>
      <point x="112" y="145" type="curve" smooth="yes"/>
      <point x="123" y="173"/>
      <point x="129" y="196"/>
      <point x="129" y="214" type="curve" smooth="yes"/>
      <point x="129" y="249"/>
      <point x="97" y="276"/>
      <point x="69" y="276" type="curve" smooth="yes"/>
      <point x="30" y="276" type="line"/>
      <point x="30" y="339" type="line"/>
      <point x="69" y="339" type="line" smooth="yes"/>
      <point x="101" y="339"/>
      <point x="123" y="370"/>
      <point x="123" y="409" type="curve" smooth="yes"/>
      <point x="123" y="432"/>
      <point x="119" y="456"/>
      <point x="110" y="483" type="curve" smooth="yes"/>
      <point x="101" y="509"/>
      <point x="96" y="532"/>
      <point x="96" y="553" type="curve" smooth="yes"/>
      <point x="96" y="624"/>
      <point x="149" y="659"/>
      <point x="242" y="659" type="curve" smooth="yes"/>
      <point x="269" y="659" type="line"/>
      <point x="260" y="586" type="line"/>
      <point x="230" y="586" type="line" smooth="yes"/>
      <point x="190" y="586"/>
      <point x="176" y="564"/>
      <point x="176" y="547" type="curve" smooth="yes"/>
      <point x="176" y="532"/>
      <point x="182" y="511"/>
      <point x="194" y="484" type="curve" smooth="yes"/>
      <point x="205" y="457"/>
      <point x="211" y="434"/>
      <point x="211" y="413" type="curve" smooth="yes"/>
      <point x="211" y="361"/>
      <point x="197" y="329"/>
    </contour>
  </outline>
</glyph>
<glyph name="bar" format="2">
  <advance width="275"/>
  <unicode hex="007C"/>
  <outline>
    <contour>
      <point x="90" y="711" type="line"/>
      <point x="185" y="704" type="line"/>
      <point x="185" y="-7" type="line"/>
      <point x="90" y="0" type="line"/>
    </contour>
  </outline>
</glyph>
<glyph name="braceright" format="2">
  <advance width="278"/>
  <unicode hex="007D"/>
  <outline>
    <contour>
      <point x="116" y="306" type="curve"/>
      <point x="84" y="327"/>
      <point x="67" y="364"/>
      <point x="67" y="412" type="curve" smooth="yes"/>
      <point x="67" y="431"/>
      <point x="73" y="454"/>
      <point x="84" y="481" type="curve" smooth="yes"/>
      <point x="96" y="509"/>
      <point x="102" y="531"/>
      <point x="102" y="546" type="curve" smooth="yes"/>
      <point x="102" y="565"/>
      <point x="85" y="586"/>
      <point x="48" y="586" type="curve" smooth="yes"/>
      <point x="18" y="586" type="line"/>
      <point x="9" y="658" type="line"/>
      <point x="36" y="658" type="line" smooth="yes"/>
      <point x="139" y="658"/>
      <point x="184" y="619"/>
      <point x="184" y="542" type="curve" smooth="yes"/>
      <point x="184" y="523"/>
      <point x="178" y="499"/>
      <point x="166" y="471" type="curve" smooth="yes"/>
      <point x="155" y="443"/>
      <point x="149" y="420"/>
      <point x="149" y="402" type="curve" smooth="yes"/>
      <point x="149" y="367"/>
      <point x="181" y="340"/>
      <point x="209" y="340" type="curve" smooth="yes"/>
      <point x="248" y="340" type="line"/>
      <point x="248" y="277" type="line"/>
      <point x="209" y="277" type="line" smooth="yes"/>
      <point x="177" y="277"/>
      <point x="155" y="246"/>
      <point x="155" y="207" type="curve" smooth="yes"/>
      <point x="155" y="184"/>
      <point x="159" y="160"/>
      <point x="168" y="133" type="curve" smooth="yes"/>
      <point x="177" y="107"/>
      <point x="182" y="84"/>
      <point x="182" y="63" type="curve" smooth="yes"/>
      <point x="182" y="-8"/>
      <point x="129" y="-43"/>
      <point x="36" y="-43" type="curve" smooth="yes"/>
      <point x="9" y="-43" type="line"/>
      <point x="18" y="30" type="line"/>
      <point x="48" y="30" type="line" smooth="yes"/>
      <point x="88" y="30"/>
      <point x="102" y="52"/>
      <point x="102" y="69" type="curve" smooth="yes"/>
      <point x="102" y="84"/>
      <point x="96" y="105"/>
      <point x="84" y="132" type="curve" smooth="yes"/>
      <point x="73" y="159"/>
      <point x="67" y="182"/>
      <point x="67" y="203" type="curve" smooth="yes"/>
      <point x="67" y="255"/>
      <point x="81" y="287"/>
    </contour>
  </outline>
</glyph>
<glyph name="asciitilde" format="2">
  <advance width="431"/>
  <unicode hex="007E"/>
  <outline>
    <contour>
      <point x="30" y="188" type="line"/>
      <point x="30" y="283"/>
      <point x="80" y="317"/>
      <point x="140" y="317" type="curve" smooth="yes"/>
      <point x="173" y="317"/>
      <point x="200" y="310"/>
      <point x="222" y="297" type="curve" smooth="yes"/>
      <point x="243" y="284"/>
      <point x="263" y="277"/>
      <point x="282" y="277" type="curve" smooth="yes"/>
      <point x="295" y="277"/>
      <point x="318" y="285"/>
      <point x="319" y="318" type="curve"/>
      <point x="401" y="318" type="line"/>
      <point x="401" y="222"/>
      <point x="351" y="188"/>
      <point x="291" y="188" type="curve" smooth="yes"/>
      <point x="261" y="188"/>
      <point x="234" y="195"/>
      <point x="211" y="208" type="curve" smooth="yes"/>
      <point x="187" y="221"/>
      <point x="166" y="227"/>
      <point x="147" y="227" type="curve" smooth="yes"/>
      <point x="131" y="227"/>
      <point x="114" y="220"/>
      <point x="111" y="188" type="curve"/>
    </contour>
  </outline>
</glyph>
<glyph name="exclamdown" format="2">
  <advance width="181"/>
  <unicode hex="00A1"/>
  <outline>
    <contour>
      <point x="91" y="580" type="curve" smooth="yes"/>
      <point x="58" y="580"/>
      <point x="30" y="608"/>
      <point x="30" y="641" type="curve" smooth="yes"/>
      <point x="30" y="674"/>
      <point x="58" y="702"/>
      <point x="91" y="702" type="curve" smooth="yes"/>
      <point x="124" y="702"/>
      <point x="151" y="674"/>
      <point x="151" y="641" type="curve" smooth="yes"/>
      <point x="151" y="608"/>
      <point x="124" y="580"/>
    </contour>
    <contour>
      <point x="128" y="471" type="line"/>
      <point x="143" y="0" type="line"/>
      <point x="38" y="0" type="line"/>
      <point x="54" y="505" type="line"/>
    </contour>
  </outline>
</glyph>
<glyph name="cent" format="2">
  <advance width="464"/>
  <unicode hex="00A2"/>
  <outline>
    <contour>
      <point x="327" y="473" type="line"/>
      <point x="239" y="476" type="line"/>
      <point x="239" y="598" type="line"/>
      <point x="327" y="608" type="line"/>
    </contour>
    <contour>
      <point x="328" y="16" type="line"/>
      <point x="328" y="-113" type="line"/>
      <point x="240" y="-113" type="line"/>
      <point x="240" y="13" type="line"/>
    </contour>
    <contour>
      <point x="407" y="102" type="curve"/>
      <point x="436" y="33" type="line"/>
      <point x="393" y="4"/>
      <point x="312" y="-13"/>
      <point x="271" y="-13" type="curve" smooth="yes"/>
      <point x="122" y="-13"/>
      <point x="30" y="91"/>
      <point x="30" y="243" type="curve" smooth="yes"/>
      <point x="31" y="394"/>
      <point x="124" y="498"/>
      <point x="275" y="498" type="curve" smooth="yes"/>
      <point x="315" y="498"/>
      <point x="395" y="480"/>
      <point x="438" y="451" type="curve"/>
      <point x="410" y="383" type="line"/>
      <point x="369" y="400"/>
      <point x="331" y="416"/>
      <point x="274" y="416" type="curve" smooth="yes"/>
      <point x="183" y="416"/>
      <point x="129" y="340"/>
      <point x="128" y="244" type="curve" smooth="yes"/>
      <point x="128" y="143"/>
      <point x="179" y="69"/>
      <point x="271" y="69" type="curve" smooth="yes"/>
      <point x="330" y="69"/>
      <point x="366" y="82"/>
    </contour>
  </outline>
</glyph>
<glyph name="sterling" format="2">
  <advance width="468"/>
  <unicode hex="00A3"/>
  <outline>
    <contour>
      <point x="61" y="0" type="line"/>
      <point x="52" y="75" type="line"/>
      <point x="103" y="75"/>
      <point x="124" y="109"/>
      <point x="124" y="160" type="curve" smooth="yes"/>
      <point x="124" y="310" type="line"/>
      <point x="51" y="310" type="line"/>
      <point x="50" y="383" type="line"/>
      <point x="124" y="383" type="line"/>
      <point x="124" y="507" type="line" smooth="yes"/>
      <point x="124" y="615"/>
      <point x="174" y="684"/>
      <point x="278" y="684" type="curve" smooth="yes"/>
      <point x="307" y="684"/>
      <point x="343" y="673"/>
      <point x="360" y="661" type="curve"/>
      <point x="335" y="589" type="line"/>
      <point x="322" y="594"/>
      <point x="301" y="600"/>
      <point x="288" y="600" type="curve" smooth="yes"/>
      <point x="239" y="600"/>
      <point x="221" y="564"/>
      <point x="221" y="515" type="curve" smooth="yes"/>
      <point x="221" y="383" type="line"/>
      <point x="348" y="383" type="line"/>
      <point x="380" y="310" type="line"/>
      <point x="221" y="310" type="line"/>
      <point x="221" y="212" type="line" smooth="yes"/>
      <point x="221" y="159"/>
      <point x="216" y="104"/>
      <point x="193" y="75" type="curve"/>
      <point x="445" y="75" type="line"/>
      <point x="458" y="0" type="line"/>
    </contour>
  </outline>
</glyph>
<glyph name="currency" format="2">
  <advance width="682"/>
  <unicode hex="00A4"/>
  <outline>
    <contour>
      <point x="87" y="-72" type="line"/>
      <point x="30" y="-4" type="line"/>
      <point x="130" y="99" type="line"/>
      <point x="106" y="139"/>
      <point x="91" y="188"/>
      <point x="91" y="243" type="curve" smooth="yes"/>
      <point x="91" y="296"/>
      <point x="107" y="346"/>
      <point x="132" y="383" type="curve"/>
      <point x="30" y="487" type="line"/>
      <point x="87" y="556" type="line"/>
      <point x="194" y="448" type="line"/>
      <point x="235" y="477"/>
      <point x="287" y="497"/>
      <point x="344" y="498" type="curve"/>
      <point x="401" y="497"/>
      <point x="450" y="479"/>
      <point x="490" y="450" type="curve"/>
      <point x="595" y="556" type="line"/>
      <point x="652" y="487" type="line"/>
      <point x="553" y="385" type="line"/>
      <point x="578" y="346"/>
      <point x="593" y="296"/>
      <point x="594" y="241" type="curve"/>
      <point x="593" y="186"/>
      <point x="577" y="138"/>
      <point x="552" y="99" type="curve"/>
      <point x="652" y="-4" type="line"/>
      <point x="595" y="-72" type="line"/>
      <point x="489" y="35" type="line"/>
      <point x="448" y="4"/>
      <point x="395" y="-13"/>
      <point x="338" y="-13" type="curve" smooth="yes"/>
      <point x="282" y="-12"/>
      <point x="232" y="6"/>
      <point x="192" y="35" type="curve"/>
    </contour>
    <contour>
      <point x="495" y="240" type="curve" smooth="yes"/>
      <point x="495" y="336"/>
      <point x="432" y="408"/>
      <point x="344" y="408" type="curve" smooth="yes"/>
      <point x="257" y="408"/>
      <point x="191" y="336"/>
      <point x="190" y="244" type="curve" smooth="yes"/>
      <point x="190" y="148"/>
      <point x="251" y="76"/>
      <point x="339" y="75" type="curve" smooth="yes"/>
      <point x="426" y="75"/>
      <point x="494" y="147"/>
    </contour>
  </outline>
</glyph>
<glyph name="yen" format="2">
  <advance width="579"/>
  <unicode hex="00A5"/>
  <outline>
    <contour>
      <point x="66" y="311" type="line"/>
      <point x="504" y="311" type="line"/>
      <point x="513" y="238" type="line"/>
      <point x="75" y="238" type="line"/>
    </contour>
    <contour>
      <point x="66" y="144" type="line"/>
      <point x="504" y="144" type="line"/>
      <point x="513" y="72" type="line"/>
      <point x="75" y="72" type="line"/>
    </contour>
    <contour>
      <point x="331" y="0" type="line"/>
      <point x="235" y="0" type="line"/>
      <point x="235" y="270" type="line"/>
      <point x="10" y="663" type="line"/>
      <point x="103" y="697" type="line"/>
      <point x="283" y="366" type="line"/>
      <point x="467" y="680" type="line"/>
      <point x="569" y="680" type="line"/>
      <point x="332" y="271" type="line"/>
    </contour>
  </outline>
</glyph>
<glyph name="brokenbar" format="2">
  <advance width="275"/>
  <unicode hex="00A6"/>
  <outline>
    <contour>
      <point x="90" y="711" type="line"/>
      <point x="185" y="704" type="line"/>
      <point x="185" y="406" type="line"/>
      <point x="90" y="413" type="line"/>
    </contour>
    <contour>
      <point x="90" y="294" type="line"/>
      <point x="185" y="288" type="line"/>
      <point x="185" y="-7" type="line"/>
      <point x="90" y="0" type="line"/>
    </contour>
  </outline>
</glyph>
<glyph name="section" format="2">
  <advance width="583"/>
  <unicode hex="00A7"/>
  <outline>
    <contour>
      <point x="436" y="93" type="curve"/>
      <point x="405" y="173" type="line"/>
      <point x="439" y="190"/>
      <point x="456" y="218"/>
      <point x="456" y="252" type="curve" smooth="yes"/>
      <point x="456" y="319"/>
      <point x="392" y="353"/>
      <point x="281" y="402" type="curve" smooth="yes"/>
      <point x="164" y="454"/>
      <point x="105" y="501"/>
      <point x="105" y="604" type="curve" smooth="yes"/>
      <point x="105" y="703"/>
      <point x="189" y="780"/>
      <point x="328" y="780" type="curve" smooth="yes"/>
      <point x="396" y="780"/>
      <point x="463" y="758"/>
      <point x="508" y="735" type="curve"/>
      <point x="476" y="659" type="line"/>
      <point x="441" y="676"/>
      <point x="399" y="695"/>
      <point x="335" y="695" type="curve" smooth="yes"/>
      <point x="259" y="695"/>
      <point x="201" y="666"/>
      <point x="201" y="606" type="curve" smooth="yes"/>
      <point x="201" y="537"/>
      <point x="260" y="506"/>
      <point x="377" y="453" type="curve" smooth="yes"/>
      <point x="488" y="403"/>
      <point x="553" y="353"/>
      <point x="553" y="254" type="curve" smooth="yes"/>
      <point x="553" y="181"/>
      <point x="512" y="123"/>
    </contour>
    <contour>
      <point x="52" y="-69" type="curve"/>
      <point x="74" y="7" type="line"/>
      <point x="111" y="-12"/>
      <point x="181" y="-36"/>
      <point x="242" y="-36" type="curve" smooth="yes"/>
      <point x="339" y="-36"/>
      <point x="391" y="3"/>
      <point x="391" y="62" type="curve" smooth="yes"/>
      <point x="391" y="129"/>
      <point x="327" y="163"/>
      <point x="216" y="212" type="curve" smooth="yes"/>
      <point x="99" y="264"/>
      <point x="40" y="311"/>
      <point x="40" y="414" type="curve" smooth="yes"/>
      <point x="40" y="481"/>
      <point x="79" y="538"/>
      <point x="147" y="568" type="curve"/>
      <point x="196" y="493" type="line"/>
      <point x="159" y="480"/>
      <point x="136" y="454"/>
      <point x="136" y="416" type="curve" smooth="yes"/>
      <point x="136" y="347"/>
      <point x="195" y="316"/>
      <point x="312" y="263" type="curve" smooth="yes"/>
      <point x="423" y="213"/>
      <point x="488" y="163"/>
      <point x="488" y="64" type="curve" smooth="yes"/>
      <point x="488" y="-43"/>
      <point x="400" y="-119"/>
      <point x="243" y="-119" type="curve" smooth="yes"/>
      <point x="186" y="-119"/>
      <point x="79" y="-93"/>
    </contour>
  </outline>
</glyph>
<glyph name="dieresis" format="2">
  <advance width="302"/>
  <unicode hex="00A8"/>
  <outline>
    <contour>
      <point x="238" y="610" type="curve" smooth="yes"/>
      <point x="209" y="610"/>
      <point x="184" y="635"/>
      <point x="184" y="664" type="curve" smooth="yes"/>
      <point x="184" y="693"/>
      <point x="209" y="718"/>
      <point x="238" y="718" type="curve" smooth="yes"/>
      <point x="269" y="718"/>
      <point x="292" y="693"/>
      <point x="292" y="664" type="curve" smooth="yes"/>
      <point x="292" y="635"/>
      <point x="269" y="610"/>
    </contour>
    <contour>
      <point x="64" y="610" type="curve" smooth="yes"/>
      <point x="35" y="610"/>
      <point x="10" y="635"/>
      <point x="10" y="664" type="curve" smooth="yes"/>
      <point x="10" y="693"/>
      <point x="35" y="718"/>
      <point x="64" y="718" type="curve" smooth="yes"/>
      <point x="95" y="718"/>
      <point x="118" y="693"/>
      <point x="118" y="664" type="curve" smooth="yes"/>
      <point x="118" y="635"/>
      <point x="95" y="610"/>
    </contour>
  </outline>
</glyph>
<glyph name="copyright" format="2">
  <advance width="807"/>
  <unicode hex="00A9"/>
  <outline>
    <contour>
      <point x="777" y="336" type="curve" smooth="yes"/>
      <point x="777" y="131"/>
      <point x="632" y="-33"/>
      <point x="403" y="-33" type="curve" smooth="yes"/>
      <point x="174" y="-33"/>
      <point x="30" y="131"/>
      <point x="30" y="336" type="curve" smooth="yes"/>
      <point x="30" y="541"/>
      <point x="174" y="706"/>
      <point x="403" y="706" type="curve" smooth="yes"/>
      <point x="632" y="706"/>
      <point x="777" y="541"/>
    </contour>
    <contour>
      <point x="101" y="337" type="curve" smooth="yes"/>
      <point x="101" y="162"/>
      <point x="216" y="29"/>
      <point x="403" y="29" type="curve" smooth="yes"/>
      <point x="591" y="29"/>
      <point x="706" y="162"/>
      <point x="706" y="337" type="curve" smooth="yes"/>
      <point x="706" y="512"/>
      <point x="591" y="645"/>
      <point x="403" y="645" type="curve" smooth="yes"/>
      <point x="216" y="645"/>
      <point x="101" y="512"/>
    </contour>
    <contour>
      <point x="419" y="104" type="curve" smooth="yes"/>
      <point x="276" y="104"/>
      <point x="197" y="200"/>
      <point x="197" y="339" type="curve" smooth="yes"/>
      <point x="197" y="478"/>
      <point x="285" y="572"/>
      <point x="422" y="572" type="curve" smooth="yes"/>
      <point x="461" y="572"/>
      <point x="528" y="558"/>
      <point x="569" y="529" type="curve"/>
      <point x="542" y="458" type="line"/>
      <point x="503" y="477"/>
      <point x="478" y="490"/>
      <point x="422" y="490" type="curve" smooth="yes"/>
      <point x="338" y="490"/>
      <point x="295" y="428"/>
      <point x="295" y="340" type="curve" smooth="yes"/>
      <point x="295" y="241"/>
      <point x="333" y="185"/>
      <point x="420" y="185" type="curve" smooth="yes"/>
      <point x="475" y="185"/>
      <point x="502" y="199"/>
      <point x="539" y="218" type="curve"/>
      <point x="567" y="148" type="line"/>
      <point x="526" y="119"/>
      <point x="458" y="104"/>
    </contour>
  </outline>
</glyph>
<glyph name="ordfeminine" format="2">
  <advance width="330"/>
  <unicode hex="00AA"/>
  <outline>
    <contour>
      <point x="106" y="469" type="curve" smooth="yes"/>
      <point x="106" y="449"/>
      <point x="120" y="431"/>
      <point x="148" y="431" type="curve" smooth="yes"/>
      <point x="177" y="431"/>
      <point x="204" y="447"/>
      <point x="224" y="468" type="curve"/>
      <point x="224" y="508" type="line"/>
      <point x="164" y="508" type="line" smooth="yes"/>
      <point x="129" y="508"/>
      <point x="106" y="494"/>
    </contour>
    <contour>
      <point x="67" y="611" type="curve"/>
      <point x="50" y="673" type="line"/>
      <point x="74" y="690"/>
      <point x="131" y="702"/>
      <point x="159" y="702" type="curve" smooth="yes"/>
      <point x="240" y="702"/>
      <point x="300" y="646"/>
      <point x="300" y="581" type="curve" smooth="yes"/>
      <point x="300" y="371" type="line"/>
      <point x="254" y="371" type="line"/>
      <point x="237" y="402" type="line"/>
      <point x="216" y="383"/>
      <point x="181" y="363"/>
      <point x="146" y="363" type="curve" smooth="yes"/>
      <point x="74" y="363"/>
      <point x="30" y="406"/>
      <point x="30" y="466" type="curve" smooth="yes"/>
      <point x="30" y="530"/>
      <point x="81" y="567"/>
      <point x="152" y="567" type="curve" smooth="yes"/>
      <point x="222" y="567" type="line"/>
      <point x="222" y="571" type="line" smooth="yes"/>
      <point x="222" y="603"/>
      <point x="204" y="632"/>
      <point x="160" y="632" type="curve" smooth="yes"/>
      <point x="123" y="632"/>
      <point x="91" y="620"/>
    </contour>
  </outline>
</glyph>
<glyph name="guillemotleft" format="2">
  <advance width="382"/>
  <unicode hex="00AB"/>
  <outline>
    <contour>
      <point x="190" y="222" type="line"/>
      <point x="190" y="268" type="line"/>
      <point x="341" y="407" type="line"/>
      <point x="362" y="343" type="line"/>
      <point x="263" y="245" type="line"/>
      <point x="362" y="147" type="line"/>
      <point x="341" y="83" type="line"/>
    </contour>
    <contour>
      <point x="30" y="222" type="line"/>
      <point x="30" y="268" type="line"/>
      <point x="180" y="407" type="line"/>
      <point x="202" y="343" type="line"/>
      <point x="103" y="245" type="line"/>
      <point x="202" y="147" type="line"/>
      <point x="180" y="83" type="line"/>
    </contour>
  </outline>
</glyph>
<glyph name="logicalnot" format="2">
  <advance width="514"/>
  <unicode hex="00AC"/>
  <outline>
    <contour>
      <point x="476" y="406" type="line"/>
      <point x="484" y="356" type="line"/>
      <point x="484" y="112" type="line"/>
      <point x="400" y="117" type="line"/>
      <point x="400" y="330" type="line"/>
      <point x="18" y="330" type="line"/>
      <point x="10" y="406" type="line"/>
    </contour>
  </outline>
</glyph>
<glyph name="registered" format="2">
  <advance width="719"/>
  <unicode hex="00AE"/>
  <outline>
    <contour>
      <point x="689" y="487" type="curve" smooth="yes"/>
      <point x="689" y="306"/>
      <point x="563" y="162"/>
      <point x="360" y="162" type="curve" smooth="yes"/>
      <point x="157" y="162"/>
      <point x="30" y="306"/>
      <point x="30" y="487" type="curve" smooth="yes"/>
      <point x="30" y="670"/>
      <point x="157" y="814"/>
      <point x="360" y="814" type="curve" smooth="yes"/>
      <point x="563" y="814"/>
      <point x="689" y="670"/>
    </contour>
    <contour>
      <point x="96" y="488" type="curve" smooth="yes"/>
      <point x="96" y="336"/>
      <point x="195" y="222"/>
      <point x="360" y="221" type="curve" smooth="yes"/>
      <point x="523" y="222"/>
      <point x="623" y="336"/>
      <point x="623" y="488" type="curve" smooth="yes"/>
      <point x="623" y="643"/>
      <point x="523" y="755"/>
      <point x="360" y="755" type="curve" smooth="yes"/>
      <point x="195" y="755"/>
      <point x="96" y="643"/>
    </contour>
    <contour>
      <point x="340" y="622" type="curve" smooth="yes"/>
      <point x="306" y="622" type="line"/>
      <point x="306" y="511" type="line"/>
      <point x="338" y="511" type="line" smooth="yes"/>
      <point x="387" y="511"/>
      <point x="427" y="519"/>
      <point x="427" y="566" type="curve" smooth="yes"/>
      <point x="427" y="618"/>
      <point x="392" y="622"/>
    </contour>
    <contour>
      <point x="525" y="304" type="line"/>
      <point x="445" y="304" type="line"/>
      <point x="369" y="455" type="line"/>
      <point x="360" y="454"/>
      <point x="353" y="454"/>
      <point x="341" y="454" type="curve" smooth="yes"/>
      <point x="306" y="454" type="line"/>
      <point x="306" y="304" type="line"/>
      <point x="235" y="304" type="line"/>
      <point x="235" y="680" type="line"/>
      <point x="359" y="680" type="line" smooth="yes"/>
      <point x="439" y="680"/>
      <point x="500" y="648"/>
      <point x="500" y="569" type="curve" smooth="yes"/>
      <point x="500" y="518"/>
      <point x="471" y="486"/>
      <point x="436" y="470" type="curve"/>
    </contour>
  </outline>
</glyph>
<glyph name="macron" format="2">
  <advance width="271"/>
  <unicode hex="00AF"/>
  <anchor x="142" y="485" name="_top"/>
  <outline>
    <contour>
      <point x="10" y="626" type="line"/>
      <point x="10" y="702" type="line"/>
      <point x="252" y="702" type="line"/>
      <point x="261" y="626" type="line"/>
    </contour>
  </outline>
</glyph>
<glyph name="degree" format="2">
  <advance width="246"/>
  <unicode hex="00B0"/>
  <outline>
    <contour>
      <point x="123" y="713" type="curve" smooth="yes"/>
      <point x="184" y="713"/>
      <point x="236" y="665"/>
      <point x="236" y="604" type="curve" smooth="yes"/>
      <point x="236" y="543"/>
      <point x="184" y="497"/>
      <point x="123" y="497" type="curve" smooth="yes"/>
      <point x="62" y="497"/>
      <point x="10" y="543"/>
      <point x="10" y="604" type="curve" smooth="yes"/>
      <point x="10" y="665"/>
      <point x="62" y="713"/>
    </contour>
    <contour>
      <point x="123" y="553" type="curve" smooth="yes"/>
      <point x="151" y="553"/>
      <point x="173" y="576"/>
      <point x="173" y="603" type="curve" smooth="yes"/>
      <point x="173" y="631"/>
      <point x="151" y="653"/>
      <point x="123" y="653" type="curve" smooth="yes"/>
      <point x="95" y="653"/>
      <point x="73" y="631"/>
      <point x="73" y="604" type="curve" smooth="yes"/>
      <point x="73" y="577"/>
      <point x="95" y="553"/>
    </contour>
  </outline>
</glyph>
<glyph name="plusminus" format="2">
  <advance width="480"/>
  <unicode hex="00B1"/>
  <outline>
    <contour>
      <point x="442" y="368" type="line"/>
      <point x="450" y="300" type="line"/>
      <point x="283" y="300" type="line"/>
      <point x="283" y="124" type="line"/>
      <point x="199" y="129" type="line"/>
      <point x="199" y="300" type="line"/>
      <point x="39" y="300" type="line"/>
      <point x="30" y="368" type="line"/>
      <point x="199" y="368" type="line"/>
      <point x="199" y="534" type="line"/>
      <point x="283" y="531" type="line"/>
      <point x="283" y="368" type="line"/>
    </contour>
    <contour>
      <point x="444" y="69" type="line"/>
      <point x="450" y="0" type="line"/>
      <point x="39" y="0" type="line"/>
      <point x="31" y="69" type="line"/>
    </contour>
  </outline>
</glyph>
<glyph name="twosuperior" format="2">
  <advance width="362"/>
  <unicode hex="00B2"/>
  <outline>
    <contour>
      <point x="173" y="771" type="curve" smooth="yes"/>
      <point x="285" y="771"/>
      <point x="329" y="701"/>
      <point x="329" y="641" type="curve" smooth="yes"/>
      <point x="329" y="584"/>
      <point x="295" y="538"/>
      <point x="222" y="475" type="curve" smooth="yes"/>
      <point x="136" y="403" type="line"/>
      <point x="332" y="403" type="line"/>
      <point x="342" y="336" type="line"/>
      <point x="25" y="336" type="line"/>
      <point x="25" y="399" type="line"/>
      <point x="171" y="523" type="line" smooth="yes"/>
      <point x="223" y="568"/>
      <point x="241" y="602"/>
      <point x="241" y="641" type="curve" smooth="yes"/>
      <point x="241" y="670"/>
      <point x="218" y="700"/>
      <point x="169" y="700" type="curve" smooth="yes"/>
      <point x="120" y="700"/>
      <point x="70" y="672"/>
      <point x="49" y="661" type="curve"/>
      <point x="16" y="725" type="line"/>
      <point x="39" y="736"/>
      <point x="94" y="771"/>
    </contour>
  </outline>
</glyph>
<glyph name="threesuperior" format="2">
  <advance width="362"/>
  <unicode hex="00B3"/>
  <outline>
    <contour>
      <point x="164" y="771" type="curve" smooth="yes"/>
      <point x="268" y="771"/>
      <point x="319" y="713"/>
      <point x="319" y="645" type="curve" smooth="yes"/>
      <point x="319" y="594"/>
      <point x="282" y="552"/>
      <point x="245" y="539" type="curve"/>
      <point x="288" y="530"/>
      <point x="327" y="484"/>
      <point x="327" y="421" type="curve" smooth="yes"/>
      <point x="327" y="341"/>
      <point x="260" y="278"/>
      <point x="153" y="278" type="curve" smooth="yes"/>
      <point x="97" y="278"/>
      <point x="40" y="301"/>
      <point x="0" y="322" type="curve"/>
      <point x="37" y="382" type="line"/>
      <point x="74" y="361"/>
      <point x="101" y="348"/>
      <point x="148" y="348" type="curve" smooth="yes"/>
      <point x="200" y="348"/>
      <point x="240" y="375"/>
      <point x="240" y="420" type="curve" smooth="yes"/>
      <point x="240" y="475"/>
      <point x="207" y="504"/>
      <point x="127" y="504" type="curve" smooth="yes"/>
      <point x="105" y="504" type="line"/>
      <point x="95" y="571" type="line"/>
      <point x="132" y="571" type="line" smooth="yes"/>
      <point x="204" y="571"/>
      <point x="231" y="604"/>
      <point x="231" y="644" type="curve" smooth="yes"/>
      <point x="231" y="673"/>
      <point x="208" y="700"/>
      <point x="155" y="700" type="curve" smooth="yes"/>
      <point x="106" y="700"/>
      <point x="71" y="679"/>
      <point x="46" y="662" type="curve"/>
      <point x="12" y="722" type="line"/>
      <point x="56" y="750"/>
      <point x="103" y="771"/>
    </contour>
  </outline>
</glyph>
<glyph name="acute" format="2">
  <advance width="176"/>
  <unicode hex="00B4"/>
  <anchor x="76" y="485" name="_top"/>
  <outline>
    <contour>
      <point x="76" y="589" type="line"/>
      <point x="10" y="606" type="line"/>
      <point x="64" y="747" type="line"/>
      <point x="166" y="747" type="line"/>
    </contour>
  </outline>
</glyph>
<glyph name="mu" format="2">
  <advance width="551"/>
  <unicode hex="00B5"/>
  <outline>
    <contour>
      <point x="162" y="-208" type="line"/>
      <point x="66" y="-219" type="line"/>
      <point x="66" y="368" type="line"/>
      <point x="162" y="368" type="line"/>
    </contour>
    <contour>
      <point x="395" y="485" type="line"/>
      <point x="491" y="485" type="line"/>
      <point x="491" y="0" type="line"/>
      <point x="424" y="0" type="line"/>
      <point x="407" y="64" type="line"/>
      <point x="358" y="19"/>
      <point x="288" y="-16"/>
      <point x="222" y="-16" type="curve" smooth="yes"/>
      <point x="112" y="-16"/>
      <point x="66" y="61"/>
      <point x="66" y="165" type="curve" smooth="yes"/>
      <point x="66" y="485" type="line"/>
      <point x="162" y="485" type="line"/>
      <point x="162" y="174" type="line" smooth="yes"/>
      <point x="162" y="109"/>
      <point x="179" y="66"/>
      <point x="242" y="66" type="curve" smooth="yes"/>
      <point x="291" y="66"/>
      <point x="348" y="102"/>
      <point x="395" y="143" type="curve"/>
    </contour>
  </outline>
</glyph>
<glyph name="paragraph" format="2">
  <advance width="861"/>
  <unicode hex="00B6"/>
  <outline>
    <contour>
      <point x="424" y="0" type="line"/>
      <point x="328" y="0" type="line"/>
      <point x="328" y="250" type="line"/>
      <point x="297" y="250" type="line" smooth="yes"/>
      <point x="154" y="250"/>
      <point x="30" y="317"/>
      <point x="30" y="468" type="curve" smooth="yes"/>
      <point x="30" y="620"/>
      <point x="142" y="680"/>
      <point x="286" y="680" type="curve" smooth="yes"/>
      <point x="831" y="680" type="line"/>
      <point x="831" y="604" type="line"/>
      <point x="735" y="604" type="line"/>
      <point x="735" y="0" type="line"/>
      <point x="638" y="0" type="line"/>
      <point x="638" y="604" type="line"/>
      <point x="424" y="604" type="line"/>
    </contour>
  </outline>
</glyph>
<glyph name="periodcentered" format="2">
  <advance width="180"/>
  <unicode hex="00B7"/>
  <outline>
    <contour>
      <point x="91" y="201" type="curve" smooth="yes"/>
      <point x="56" y="201"/>
      <point x="30" y="229"/>
      <point x="30" y="262" type="curve" smooth="yes"/>
      <point x="30" y="295"/>
      <point x="56" y="322"/>
      <point x="91" y="322" type="curve" smooth="yes"/>
      <point x="124" y="322"/>
      <point x="150" y="295"/>
      <point x="150" y="262" type="curve" smooth="yes"/>
      <point x="150" y="229"/>
      <point x="124" y="201"/>
    </contour>
  </outline>
</glyph>
<glyph name="cedilla" format="2">
  <advance width="223"/>
  <unicode hex="00B8"/>
  <outline>
    <contour>
      <point x="51" y="-78" type="curve"/>
      <point x="87" y="13" type="line"/>
      <point x="160" y="13" type="line"/>
      <point x="138" y="-42" type="line"/>
      <point x="181" y="-53"/>
      <point x="213" y="-90"/>
      <point x="213" y="-125" type="curve" smooth="yes"/>
      <point x="213" y="-190"/>
      <point x="155" y="-221"/>
      <point x="94" y="-221" type="curve" smooth="yes"/>
      <point x="69" y="-221"/>
      <point x="30" y="-211"/>
      <point x="10" y="-198" type="curve"/>
      <point x="32" y="-139" type="line"/>
      <point x="47" y="-146"/>
      <point x="75" y="-156"/>
      <point x="94" y="-156" type="curve" smooth="yes"/>
      <point x="115" y="-156"/>
      <point x="140" y="-147"/>
      <point x="140" y="-127" type="curve" smooth="yes"/>
      <point x="140" y="-103"/>
      <point x="103" y="-83"/>
    </contour>
  </outline>
</glyph>
<glyph name="onesuperior" format="2">
  <advance width="278"/>
  <unicode hex="00B9"/>
  <outline>
    <contour>
      <point x="208" y="336" type="line"/>
      <point x="121" y="336" type="line"/>
      <point x="121" y="676" type="line"/>
      <point x="44" y="637" type="line"/>
      <point x="10" y="697" type="line"/>
      <point x="151" y="764" type="line"/>
      <point x="208" y="764" type="line"/>
    </contour>
  </outline>
</glyph>
<glyph name="ordmasculine" format="2">
  <advance width="384"/>
  <unicode hex="00BA"/>
  <outline>
    <contour>
      <point x="191" y="702" type="curve" smooth="yes"/>
      <point x="291" y="702"/>
      <point x="354" y="636"/>
      <point x="354" y="531" type="curve" smooth="yes"/>
      <point x="354" y="428"/>
      <point x="285" y="363"/>
      <point x="189" y="363" type="curve" smooth="yes"/>
      <point x="92" y="363"/>
      <point x="30" y="427"/>
      <point x="30" y="532" type="curve" smooth="yes"/>
      <point x="30" y="636"/>
      <point x="96" y="702"/>
    </contour>
    <contour>
      <point x="192" y="632" type="curve" smooth="yes"/>
      <point x="153" y="632"/>
      <point x="115" y="604"/>
      <point x="115" y="532" type="curve" smooth="yes"/>
      <point x="115" y="464"/>
      <point x="147" y="432"/>
      <point x="190" y="432" type="curve" smooth="yes"/>
      <point x="233" y="432"/>
      <point x="268" y="462"/>
      <point x="268" y="531" type="curve" smooth="yes"/>
      <point x="268" y="599"/>
      <point x="237" y="632"/>
    </contour>
  </outline>
</glyph>
<glyph name="guillemotright" format="2">
  <advance width="383"/>
  <unicode hex="00BB"/>
  <outline>
    <contour>
      <point x="192" y="268" type="line"/>
      <point x="192" y="222" type="line"/>
      <point x="43" y="83" type="line"/>
      <point x="20" y="147" type="line"/>
      <point x="119" y="245" type="line"/>
      <point x="20" y="343" type="line"/>
      <point x="43" y="407" type="line"/>
    </contour>
    <contour>
      <point x="353" y="268" type="line"/>
      <point x="353" y="222" type="line"/>
      <point x="203" y="83" type="line"/>
      <point x="181" y="147" type="line"/>
      <point x="280" y="245" type="line"/>
      <point x="181" y="343" type="line"/>
      <point x="203" y="407" type="line"/>
    </contour>
  </outline>
</glyph>
<glyph name="questiondown" format="2">
  <advance width="419"/>
  <unicode hex="00BF"/>
  <outline>
    <contour>
      <point x="254" y="521" type="curve" smooth="yes"/>
      <point x="221" y="521"/>
      <point x="193" y="549"/>
      <point x="193" y="582" type="curve" smooth="yes"/>
      <point x="193" y="615"/>
      <point x="221" y="643"/>
      <point x="254" y="643" type="curve" smooth="yes"/>
      <point x="287" y="643"/>
      <point x="315" y="615"/>
      <point x="315" y="582" type="curve" smooth="yes"/>
      <point x="315" y="549"/>
      <point x="287" y="521"/>
    </contour>
    <contour>
      <point x="224" y="-59" type="curve" smooth="yes"/>
      <point x="91" y="-59"/>
      <point x="30" y="12"/>
      <point x="30" y="112" type="curve" smooth="yes"/>
      <point x="30" y="187"/>
      <point x="102" y="270"/>
      <point x="203" y="319" type="curve"/>
      <point x="215" y="484" type="line"/>
      <point x="284" y="455" type="line"/>
      <point x="293" y="270" type="line"/>
      <point x="193" y="237"/>
      <point x="122" y="180"/>
      <point x="122" y="113" type="curve" smooth="yes"/>
      <point x="122" y="52"/>
      <point x="162" y="22"/>
      <point x="227" y="22" type="curve" smooth="yes"/>
      <point x="284" y="22"/>
      <point x="337" y="44"/>
      <point x="397" y="85" type="curve"/>
      <point x="409" y="-1" type="line"/>
      <point x="353" y="-38"/>
      <point x="300" y="-59"/>
    </contour>
  </outline>
</glyph>
<glyph name="AE" format="2">
  <advance width="907"/>
  <unicode hex="00C6"/>
  <outline>
    <contour>
      <point x="455" y="0" type="line"/>
      <point x="455" y="182" type="line"/>
      <point x="218" y="182" type="line"/>
      <point x="100" y="-10" type="line"/>
      <point x="10" y="4" type="line"/>
      <point x="444" y="680" type="line"/>
      <point x="840" y="680" type="line"/>
      <point x="852" y="606" type="line"/>
      <point x="552" y="606" type="line"/>
      <point x="552" y="383" type="line"/>
      <point x="783" y="383" type="line"/>
      <point x="796" y="309" type="line"/>
      <point x="552" y="309" type="line"/>
      <point x="552" y="75" type="line"/>
      <point x="875" y="75" type="line"/>
      <point x="887" y="0" type="line"/>
    </contour>
    <contour>
      <point x="455" y="548" type="line"/>
      <point x="269" y="259" type="line"/>
      <point x="455" y="259" type="line"/>
    </contour>
  </outline>
</glyph>
<glyph name="Eth" format="2">
  <advance width="678"/>
  <unicode hex="00D0"/>
  <outline>
    <contour>
      <point x="286" y="300" type="line"/>
      <point x="29" y="300" type="line"/>
      <point x="19" y="375" type="line"/>
      <point x="277" y="375" type="line"/>
    </contour>
    <contour>
      <point x="331" y="0" type="curve" smooth="yes"/>
      <point x="90" y="0" type="line"/>
      <point x="90" y="680" type="line"/>
      <point x="335" y="680" type="line" smooth="yes"/>
      <point x="546" y="680"/>
      <point x="638" y="535"/>
      <point x="638" y="344" type="curve" smooth="yes"/>
      <point x="638" y="145"/>
      <point x="530" y="0"/>
    </contour>
    <contour>
      <point x="339" y="598" type="curve" smooth="yes"/>
      <point x="186" y="598" type="line"/>
      <point x="186" y="80" type="line"/>
      <point x="331" y="80" type="line" smooth="yes"/>
      <point x="456" y="80"/>
      <point x="541" y="171"/>
      <point x="541" y="343" type="curve" smooth="yes"/>
      <point x="541" y="494"/>
      <point x="478" y="598"/>
    </contour>
  </outline>
</glyph>
<glyph name="multiply" format="2">
  <advance width="528"/>
  <unicode hex="00D7"/>
  <outline>
    <contour>
      <point x="310" y="251" type="line"/>
      <point x="498" y="474" type="line"/>
      <point x="400" y="474" type="line"/>
      <point x="265" y="319" type="line"/>
      <point x="144" y="474" type="line"/>
      <point x="46" y="474" type="line"/>
      <point x="218" y="253" type="line"/>
      <point x="30" y="30" type="line"/>
      <point x="128" y="30" type="line"/>
      <point x="263" y="185" type="line"/>
      <point x="384" y="30" type="line"/>
      <point x="482" y="30" type="line"/>
    </contour>
  </outline>
</glyph>
<glyph name="Thorn" format="2">
  <advance width="572"/>
  <unicode hex="00DE"/>
  <outline>
    <contour>
      <point x="285" y="600" type="curve" smooth="yes"/>
      <point x="186" y="600" type="line"/>
      <point x="186" y="680" type="line"/>
      <point x="90" y="680" type="line"/>
      <point x="90" y="0" type="line"/>
      <point x="186" y="0" type="line"/>
      <point x="186" y="170" type="line"/>
      <point x="275" y="170" type="line" smooth="yes"/>
      <point x="418" y="170"/>
      <point x="541" y="237"/>
      <point x="542" y="388" type="curve" smooth="yes"/>
      <point x="542" y="540"/>
      <point x="429" y="600"/>
    </contour>
    <contour>
      <point x="279" y="250" type="curve" smooth="yes"/>
      <point x="186" y="250" type="line"/>
      <point x="186" y="519" type="line"/>
      <point x="284" y="519" type="line" smooth="yes"/>
      <point x="381" y="519"/>
      <point x="442" y="487"/>
      <point x="442" y="384" type="curve"/>
      <point x="438" y="289"/>
      <point x="371" y="250"/>
    </contour>
  </outline>
</glyph>
<glyph name="germandbls" format="2">
  <advance width="592"/>
  <unicode hex="00DF"/>
  <outline>
    <contour>
      <point x="70" y="0" type="line"/>
      <point x="70" y="473" type="line" smooth="yes"/>
      <point x="70" y="608"/>
      <point x="158" y="691"/>
      <point x="294" y="691" type="curve" smooth="yes"/>
      <point x="417" y="691"/>
      <point x="515" y="629"/>
      <point x="515" y="505" type="curve" smooth="yes"/>
      <point x="515" y="444"/>
      <point x="483" y="389"/>
      <point x="432" y="364" type="curve"/>
      <point x="499" y="341"/>
      <point x="557" y="279"/>
      <point x="557" y="191" type="curve" smooth="yes"/>
      <point x="557" y="59"/>
      <point x="451" y="0"/>
      <point x="308" y="0" type="curve" smooth="yes"/>
      <point x="233" y="0" type="line"/>
      <point x="233" y="79" type="line"/>
      <point x="304" y="79" type="line" smooth="yes"/>
      <point x="388" y="79"/>
      <point x="457" y="112"/>
      <point x="457" y="192" type="curve" smooth="yes"/>
      <point x="457" y="272"/>
      <point x="397" y="313"/>
      <point x="314" y="313" type="curve" smooth="yes"/>
      <point x="244" y="313" type="line"/>
      <point x="244" y="390" type="line"/>
      <point x="275" y="390" type="line" smooth="yes"/>
      <point x="371" y="390"/>
      <point x="416" y="432"/>
      <point x="416" y="500" type="curve" smooth="yes"/>
      <point x="416" y="572"/>
      <point x="361" y="608"/>
      <point x="296" y="608" type="curve" smooth="yes"/>
      <point x="215" y="608"/>
      <point x="166" y="553"/>
      <point x="166" y="472" type="curve" smooth="yes"/>
      <point x="166" y="0" type="line"/>
    </contour>
  </outline>
</glyph>
<glyph name="ae" format="2">
  <advance width="812"/>
  <unicode hex="00E6"/>
  <outline>
    <contour>
      <point x="370" y="156" type="curve"/>
      <point x="404" y="77" type="line"/>
      <point x="371" y="38"/>
      <point x="311" y="-12"/>
      <point x="216" y="-12" type="curve" smooth="yes"/>
      <point x="101" y="-12"/>
      <point x="47" y="52"/>
      <point x="47" y="140" type="curve" smooth="yes"/>
      <point x="47" y="237"/>
      <point x="120" y="290"/>
      <point x="225" y="290" type="curve" smooth="yes"/>
      <point x="340" y="290" type="line"/>
      <point x="340" y="294" type="line" smooth="yes"/>
      <point x="340" y="361"/>
      <point x="319" y="412"/>
      <point x="243" y="412" type="curve" smooth="yes"/>
      <point x="186" y="412"/>
      <point x="139" y="395"/>
      <point x="103" y="379" type="curve"/>
      <point x="76" y="455" type="line"/>
      <point x="113" y="480"/>
      <point x="200" y="498"/>
      <point x="241" y="498" type="curve" smooth="yes"/>
      <point x="353" y="498"/>
      <point x="437" y="420"/>
      <point x="437" y="329" type="curve" smooth="yes"/>
      <point x="437" y="226" type="line"/>
      <point x="223" y="226" type="line" smooth="yes"/>
      <point x="164" y="226"/>
      <point x="133" y="185"/>
      <point x="133" y="140" type="curve" smooth="yes"/>
      <point x="133" y="103"/>
      <point x="159" y="64"/>
      <point x="214" y="64" type="curve" smooth="yes"/>
      <point x="301" y="64"/>
      <point x="337" y="109"/>
    </contour>
    <contour>
      <point x="782" y="221" type="curve"/>
      <point x="438" y="221" type="line"/>
      <point x="445" y="132"/>
      <point x="492" y="68"/>
      <point x="601" y="68" type="curve" smooth="yes"/>
      <point x="658" y="68"/>
      <point x="694" y="86"/>
      <point x="747" y="111" type="curve"/>
      <point x="777" y="41" type="line"/>
      <point x="729" y="12"/>
      <point x="669" y="-12"/>
      <point x="601" y="-12" type="curve" smooth="yes"/>
      <point x="428" y="-12"/>
      <point x="338" y="91"/>
      <point x="338" y="243" type="curve" smooth="yes"/>
      <point x="338" y="394"/>
      <point x="425" y="498"/>
      <point x="570" y="498" type="curve" smooth="yes"/>
      <point x="727" y="498"/>
      <point x="782" y="369"/>
    </contour>
    <contour>
      <point x="440" y="286" type="curve"/>
      <point x="689" y="286" type="line"/>
      <point x="677" y="366"/>
      <point x="640" y="416"/>
      <point x="567" y="416" type="curve" smooth="yes"/>
      <point x="492" y="416"/>
      <point x="449" y="365"/>
    </contour>
  </outline>
</glyph>
<glyph name="divide" format="2">
  <advance width="503"/>
  <unicode hex="00F7"/>
  <outline>
    <contour>
      <point x="251" y="360" type="curve" smooth="yes"/>
      <point x="214" y="360"/>
      <point x="184" y="390"/>
      <point x="184" y="426" type="curve" smooth="yes"/>
      <point x="184" y="463"/>
      <point x="214" y="493"/>
      <point x="251" y="493" type="curve" smooth="yes"/>
      <point x="288" y="493"/>
      <point x="317" y="463"/>
      <point x="317" y="426" type="curve" smooth="yes"/>
      <point x="317" y="390"/>
      <point x="288" y="360"/>
    </contour>
    <contour>
      <point x="464" y="311" type="line"/>
      <point x="473" y="235" type="line"/>
      <point x="39" y="235" type="line"/>
      <point x="30" y="311" type="line"/>
    </contour>
    <contour>
      <point x="252" y="40" type="curve" smooth="yes"/>
      <point x="215" y="40"/>
      <point x="185" y="71"/>
      <point x="185" y="107" type="curve" smooth="yes"/>
      <point x="185" y="144"/>
      <point x="215" y="174"/>
      <point x="252" y="174" type="curve" smooth="yes"/>
      <point x="289" y="174"/>
      <point x="319" y="144"/>
      <point x="319" y="107" type="curve" smooth="yes"/>
      <point x="319" y="71"/>
      <point x="289" y="40"/>
    </contour>
  </outline>
</glyph>
<glyph name="oslash" format="2">
  <advance width="559"/>
  <unicode hex="00F8"/>
  <outline>
    <contour>
      <point x="270" y="-13" type="curve" smooth="yes"/>
      <point x="421" y="-13"/>
      <point x="515" y="91"/>
      <point x="515" y="242" type="curve" smooth="yes"/>
      <point x="515" y="394"/>
      <point x="423" y="498"/>
      <point x="274" y="498" type="curve" smooth="yes"/>
      <point x="124" y="498"/>
      <point x="31" y="394"/>
      <point x="30" y="243" type="curve" smooth="yes"/>
      <point x="30" y="91"/>
      <point x="122" y="-13"/>
    </contour>
    <contour>
      <point x="271" y="69" type="curve" smooth="yes"/>
      <point x="179" y="69"/>
      <point x="128" y="143"/>
      <point x="128" y="244" type="curve" smooth="yes"/>
      <point x="129" y="340"/>
      <point x="183" y="416"/>
      <point x="274" y="416" type="curve" smooth="yes"/>
      <point x="366" y="416"/>
      <point x="417" y="342"/>
      <point x="417" y="241" type="curve" smooth="yes"/>
      <point x="416" y="145"/>
      <point x="362" y="69"/>
    </contour>
    <contour>
      <point x="219" y="34" type="line"/>
      <point x="415" y="398" type="line"/>
      <point x="343" y="446" type="line"/>
      <point x="144" y="74" type="line"/>
    </contour>
  </outline>
</glyph>
<glyph name="thorn" format="2">
  <advance width="533"/>
  <unicode hex="00FE"/>
  <outline>
    <contour>
      <point x="262" y="498" type="curve" smooth="yes"/>
      <point x="237.434" y="498"/>
      <point x="198.508" y="488.307"/>
      <point x="162" y="467.845" type="curve"/>
      <point x="162" y="706" type="line"/>
      <point x="66" y="695" type="line"/>
      <point x="66" y="-219" type="line"/>
      <point x="162" y="-208" type="line"/>
      <point x="162" y="14.901" type="line"/>
      <point x="198.591" y="-4.943"/>
      <point x="237.326" y="-13"/>
      <point x="261" y="-13" type="curve" smooth="yes"/>
      <point x="407" y="-13"/>
      <point x="503" y="88"/>
      <point x="503" y="239" type="curve" smooth="yes"/>
      <point x="503" y="395"/>
      <point x="411" y="498"/>
    </contour>
    <contour>
      <point x="262" y="69" type="curve" smooth="yes"/>
      <point x="222.846" y="69"/>
      <point x="191.241" y="78.909"/>
      <point x="162" y="101.968" type="curve"/>
      <point x="162" y="380.559" type="line"/>
      <point x="190.454" y="404.649"/>
      <point x="220.552" y="416"/>
      <point x="262" y="416" type="curve" smooth="yes"/>
      <point x="354" y="416"/>
      <point x="405" y="342"/>
      <point x="405" y="238" type="curve" smooth="yes"/>
      <point x="405" y="142"/>
      <point x="353" y="69"/>
    </contour>
  </outline>
</glyph>
<glyph name="Aogonek" format="2">
  <advance width="625"/>
  <unicode hex="0104"/>
  <outline>
    <contour>
      <point x="522" y="6" type="curve"/>
      <point x="615" y="6" type="line"/>
      <point x="588" y="-15"/>
      <point x="557" y="-64"/>
      <point x="557" y="-93" type="curve" smooth="yes"/>
      <point x="557" y="-121"/>
      <point x="574" y="-134"/>
      <point x="598" y="-134" type="curve" smooth="yes"/>
      <point x="613" y="-134"/>
      <point x="631" y="-127"/>
      <point x="646" y="-115" type="curve"/>
      <point x="676" y="-174" type="line"/>
      <point x="651" y="-195"/>
      <point x="621" y="-205"/>
      <point x="585" y="-205" type="curve" smooth="yes"/>
      <point x="520" y="-205"/>
      <point x="475" y="-161"/>
      <point x="475" y="-101" type="curve" smooth="yes"/>
      <point x="475" y="-66"/>
      <point x="497" y="-18"/>
    </contour>
    <component base="A"/>
  </outline>
</glyph>
<glyph name="aogonek" format="2">
  <advance width="493"/>
  <unicode hex="0105"/>
  <outline>
    <contour>
      <point x="371" y="29" type="curve"/>
      <point x="437" y="0" type="line"/>
      <point x="410" y="-21"/>
      <point x="379" y="-70"/>
      <point x="379" y="-99" type="curve" smooth="yes"/>
      <point x="379" y="-127"/>
      <point x="396" y="-140"/>
      <point x="420" y="-140" type="curve" smooth="yes"/>
      <point x="435" y="-140"/>
      <point x="453" y="-133"/>
      <point x="468" y="-121" type="curve"/>
      <point x="498" y="-180" type="line"/>
      <point x="473" y="-201"/>
      <point x="443" y="-211"/>
      <point x="407" y="-211" type="curve" smooth="yes"/>
      <point x="342" y="-211"/>
      <point x="297" y="-167"/>
      <point x="297" y="-107" type="curve" smooth="yes"/>
      <point x="297" y="-57"/>
      <point x="331" y="-5"/>
    </contour>
    <component base="a"/>
  </outline>
</glyph>
<glyph name="dcaron" format="2">
  <advance width="706"/>
  <unicode hex="010F"/>
  <outline>
    <contour>
      <point x="614" y="722" type="curve" smooth="yes"/>
      <point x="647" y="722"/>
      <point x="676" y="693"/>
      <point x="676" y="650" type="curve" smooth="yes"/>
      <point x="676" y="582"/>
      <point x="627" y="503"/>
      <point x="564" y="470" type="curve"/>
      <point x="541" y="515" type="line"/>
      <point x="573" y="540"/>
      <point x="597" y="562"/>
      <point x="602" y="601" type="curve"/>
      <point x="578" y="602"/>
      <point x="553" y="632"/>
      <point x="553" y="661" type="curve" smooth="yes"/>
      <point x="553" y="690"/>
      <point x="581" y="722"/>
    </contour>
    <component base="d"/>
  </outline>
</glyph>
<glyph name="dcroat" format="2">
  <advance width="544"/>
  <unicode hex="0111"/>
  <outline>
    <contour>
      <point x="407" y="142" type="line"/>
      <point x="366" y="92"/>
      <point x="330" y="69"/>
      <point x="271" y="69" type="curve" smooth="yes"/>
      <point x="179" y="69"/>
      <point x="128" y="143"/>
      <point x="128" y="247" type="curve" smooth="yes"/>
      <point x="128" y="343"/>
      <point x="180" y="416"/>
      <point x="271" y="416" type="curve" smooth="yes"/>
      <point x="328" y="416"/>
      <point x="369" y="395"/>
      <point x="410" y="343" type="curve"/>
      <point x="438" y="411" type="line"/>
      <point x="395" y="475"/>
      <point x="312" y="498"/>
      <point x="272" y="498" type="curve" smooth="yes"/>
      <point x="126" y="498"/>
      <point x="30" y="397"/>
      <point x="30" y="246" type="curve" smooth="yes"/>
      <point x="30" y="90"/>
      <point x="122" y="-13"/>
      <point x="271" y="-13" type="curve" smooth="yes"/>
      <point x="312" y="-13"/>
      <point x="393" y="14"/>
      <point x="436" y="73" type="curve"/>
    </contour>
    <contour>
      <point x="474" y="555" type="line"/>
      <point x="549" y="555" type="line"/>
      <point x="540" y="625" type="line"/>
      <point x="474" y="625" type="line"/>
      <point x="474" y="705" type="line"/>
      <point x="377" y="695" type="line"/>
      <point x="377" y="625" type="line"/>
      <point x="285" y="625" type="line"/>
      <point x="295" y="555" type="line"/>
      <point x="377" y="555" type="line"/>
      <point x="377" y="82" type="line"/>
      <point x="419" y="0" type="line"/>
      <point x="474" y="0" type="line"/>
    </contour>
  </outline>
</glyph>
<glyph name="gcommaaccent" format="2">
  <advance width="540"/>
  <unicode hex="0123"/>
  <outline>
    <contour>
      <point x="265" y="553" type="curve" smooth="yes"/>
      <point x="232" y="553"/>
      <point x="204" y="582"/>
      <point x="204" y="626" type="curve" smooth="yes"/>
      <point x="204" y="693"/>
      <point x="251" y="758"/>
      <point x="307" y="787" type="curve"/>
      <point x="331" y="741" type="line"/>
      <point x="306" y="728"/>
      <point x="281" y="706"/>
      <point x="276" y="674" type="curve"/>
      <point x="300" y="673"/>
      <point x="326" y="644"/>
      <point x="326" y="615" type="curve" smooth="yes"/>
      <point x="326" y="584"/>
      <point x="298" y="553"/>
    </contour>
    <contour>
      <point x="474" y="485" type="line"/>
      <point x="474" y="-43" type="line" smooth="yes"/>
      <point x="474" y="-150"/>
      <point x="391" y="-230"/>
      <point x="242" y="-230" type="curve" smooth="yes"/>
      <point x="201" y="-230"/>
      <point x="115" y="-213"/>
      <point x="70" y="-182" type="curve"/>
      <point x="99" y="-113" type="line"/>
      <point x="146" y="-134"/>
      <point x="180" y="-152"/>
      <point x="239" y="-152" type="curve" smooth="yes"/>
      <point x="319" y="-152"/>
      <point x="377" y="-114"/>
      <point x="377" y="-42" type="curve" smooth="yes"/>
      <point x="377" y="412" type="line"/>
      <point x="419" y="485" type="line"/>
    </contour>
    <contour>
      <point x="407" y="142" type="curve"/>
      <point x="436" y="73" type="line"/>
      <point x="393" y="14"/>
      <point x="312" y="-13"/>
      <point x="271" y="-13" type="curve" smooth="yes"/>
      <point x="122" y="-13"/>
      <point x="30" y="90"/>
      <point x="30" y="246" type="curve" smooth="yes"/>
      <point x="30" y="397"/>
      <point x="126" y="498"/>
      <point x="272" y="498" type="curve" smooth="yes"/>
      <point x="312" y="498"/>
      <point x="395" y="475"/>
      <point x="438" y="411" type="curve"/>
      <point x="410" y="343" type="line"/>
      <point x="369" y="395"/>
      <point x="328" y="416"/>
      <point x="271" y="416" type="curve" smooth="yes"/>
      <point x="180" y="416"/>
      <point x="128" y="343"/>
      <point x="128" y="247" type="curve" smooth="yes"/>
      <point x="128" y="143"/>
      <point x="179" y="69"/>
      <point x="271" y="69" type="curve" smooth="yes"/>
      <point x="330" y="69"/>
      <point x="366" y="92"/>
    </contour>
  </outline>
</glyph>
<glyph name="Iogonek" format="2">
  <advance width="276"/>
  <unicode hex="012E"/>
  <anchor x="137" y="0" name="_bottom"/>
  <outline>
    <contour>
      <point x="90" y="0" type="curve"/>
      <point x="186" y="0" type="line"/>
      <point x="159" y="-21"/>
      <point x="127" y="-70"/>
      <point x="127" y="-99" type="curve" smooth="yes"/>
      <point x="127" y="-127"/>
      <point x="144" y="-140"/>
      <point x="168" y="-140" type="curve" smooth="yes"/>
      <point x="183" y="-140"/>
      <point x="201" y="-133"/>
      <point x="216" y="-121" type="curve"/>
      <point x="246" y="-180" type="line"/>
      <point x="221" y="-201"/>
      <point x="191" y="-211"/>
      <point x="155" y="-211" type="curve" smooth="yes"/>
      <point x="90" y="-211"/>
      <point x="45" y="-167"/>
      <point x="45" y="-107" type="curve" smooth="yes"/>
      <point x="45" y="-72"/>
      <point x="65" y="-24"/>
    </contour>
    <component base="I"/>
  </outline>
</glyph>
<glyph name="iogonek" format="2">
  <advance width="217"/>
  <unicode hex="012F"/>
  <outline>
    <contour>
      <point x="60" y="0" type="curve"/>
      <point x="157" y="0" type="line"/>
      <point x="130" y="-21"/>
      <point x="98" y="-70"/>
      <point x="98" y="-99" type="curve" smooth="yes"/>
      <point x="98" y="-127"/>
      <point x="115" y="-140"/>
      <point x="139" y="-140" type="curve" smooth="yes"/>
      <point x="154" y="-140"/>
      <point x="172" y="-133"/>
      <point x="187" y="-121" type="curve"/>
      <point x="217" y="-180" type="line"/>
      <point x="192" y="-201"/>
      <point x="162" y="-211"/>
      <point x="126" y="-211" type="curve" smooth="yes"/>
      <point x="61" y="-211"/>
      <point x="16" y="-167"/>
      <point x="16" y="-107" type="curve" smooth="yes"/>
      <point x="16" y="-72"/>
      <point x="35" y="-24"/>
    </contour>
    <component base="dotlessi"/>
    <component base="dotaccent" xOffset="36"/>
  </outline>
</glyph>
<glyph name="dotlessi" format="2">
  <advance width="217"/>
  <unicode hex="0131"/>
  <anchor x="110" y="485" name="top"/>
  <outline>
    <contour>
      <point x="157" y="0" type="line"/>
      <point x="60" y="0" type="line"/>
      <point x="60" y="485" type="line"/>
      <point x="157" y="485" type="line"/>
    </contour>
  </outline>
</glyph>
<glyph name="lacute" format="2">
  <advance width="236"/>
  <unicode hex="013A"/>
  <outline>
    <contour>
      <point x="166" y="0" type="line"/>
      <point x="70" y="0" type="line"/>
      <point x="70" y="673" type="line"/>
      <point x="166" y="685" type="line"/>
    </contour>
    <contour>
      <point x="154" y="739" type="line"/>
      <point x="88" y="756" type="line"/>
      <point x="142" y="897" type="line"/>
      <point x="244" y="897" type="line"/>
    </contour>
  </outline>
</glyph>
<glyph name="lcaron" format="2">
  <advance width="398"/>
  <unicode hex="013E"/>
  <outline>
    <contour>
      <point x="306" y="722" type="curve" smooth="yes"/>
      <point x="339" y="722"/>
      <point x="368" y="693"/>
      <point x="368" y="650" type="curve" smooth="yes"/>
      <point x="368" y="582"/>
      <point x="319" y="503"/>
      <point x="256" y="470" type="curve"/>
      <point x="233" y="515" type="line"/>
      <point x="265" y="540"/>
      <point x="289" y="562"/>
      <point x="294" y="601" type="curve"/>
      <point x="270" y="602"/>
      <point x="245" y="632"/>
      <point x="245" y="661" type="curve" smooth="yes"/>
      <point x="245" y="690"/>
      <point x="273" y="722"/>
    </contour>
    <component base="l"/>
  </outline>
</glyph>
<glyph name="Lslash" format="2">
  <advance width="515"/>
  <unicode hex="0141"/>
  <outline>
    <contour>
      <point x="90" y="0" type="line"/>
      <point x="505" y="0" type="line"/>
      <point x="493" y="75" type="line"/>
      <point x="186" y="75" type="line"/>
      <point x="186" y="306.379" type="line"/>
      <point x="337" y="429" type="line"/>
      <point x="297" y="493" type="line"/>
      <point x="186" y="403.255" type="line"/>
      <point x="186" y="680" type="line"/>
      <point x="90" y="680" type="line"/>
      <point x="90" y="325.638" type="line"/>
      <point x="15" y="265" type="line"/>
      <point x="55" y="200" type="line"/>
      <point x="90" y="228.422" type="line"/>
    </contour>
  </outline>
</glyph>
<glyph name="lslash" format="2">
  <advance width="321"/>
  <unicode hex="0142"/>
  <outline>
    <contour>
      <point x="281" y="514" type="line"/>
      <point x="321" y="450" type="line"/>
      <point x="209" y="358" type="line"/>
      <point x="209" y="0" type="line"/>
      <point x="113" y="0" type="line"/>
      <point x="113" y="281" type="line"/>
      <point x="40" y="221" type="line"/>
      <point x="0" y="286" type="line"/>
      <point x="113" y="378" type="line"/>
      <point x="113" y="695" type="line"/>
      <point x="209" y="706" type="line"/>
      <point x="209" y="454" type="line"/>
    </contour>
  </outline>
</glyph>
<glyph name="OE" format="2">
  <advance width="952"/>
  <unicode hex="0152"/>
  <outline>
    <contour>
      <point x="536" y="653" type="curve"/>
      <point x="506" y="584" type="line"/>
      <point x="457" y="601"/>
      <point x="426" y="612"/>
      <point x="361" y="612" type="curve" smooth="yes"/>
      <point x="237" y="612"/>
      <point x="140" y="501"/>
      <point x="140" y="337" type="curve" smooth="yes"/>
      <point x="140" y="190"/>
      <point x="218" y="68"/>
      <point x="353" y="68" type="curve" smooth="yes"/>
      <point x="418" y="68"/>
      <point x="465" y="81"/>
      <point x="502" y="98" type="curve"/>
      <point x="539" y="26" type="line"/>
      <point x="494" y="3"/>
      <point x="414" y="-14"/>
      <point x="357" y="-14" type="curve" smooth="yes"/>
      <point x="148" y="-14"/>
      <point x="40" y="145"/>
      <point x="40" y="336" type="curve" smooth="yes"/>
      <point x="40" y="540"/>
      <point x="164" y="694"/>
      <point x="363" y="694" type="curve" smooth="yes"/>
      <point x="403" y="694"/>
      <point x="487" y="682"/>
    </contour>
    <contour>
      <point x="932" y="0" type="line"/>
      <point x="500" y="0" type="line"/>
      <point x="500" y="680" type="line"/>
      <point x="883" y="680" type="line"/>
      <point x="896" y="606" type="line"/>
      <point x="596" y="606" type="line"/>
      <point x="596" y="383" type="line"/>
      <point x="827" y="383" type="line"/>
      <point x="840" y="309" type="line"/>
      <point x="596" y="309" type="line"/>
      <point x="596" y="75" type="line"/>
      <point x="919" y="75" type="line"/>
    </contour>
  </outline>
</glyph>
<glyph name="oe" format="2">
  <advance width="811"/>
  <unicode hex="0153"/>
  <outline>
    <contour>
      <point x="407" y="102" type="curve"/>
      <point x="436" y="33" type="line"/>
      <point x="393" y="4"/>
      <point x="312" y="-13"/>
      <point x="271" y="-13" type="curve" smooth="yes"/>
      <point x="122" y="-13"/>
      <point x="30" y="91"/>
      <point x="30" y="243" type="curve" smooth="yes"/>
      <point x="31" y="394"/>
      <point x="124" y="498"/>
      <point x="275" y="498" type="curve" smooth="yes"/>
      <point x="315" y="498"/>
      <point x="395" y="480"/>
      <point x="438" y="451" type="curve"/>
      <point x="410" y="383" type="line"/>
      <point x="369" y="400"/>
      <point x="331" y="416"/>
      <point x="274" y="416" type="curve" smooth="yes"/>
      <point x="183" y="416"/>
      <point x="129" y="340"/>
      <point x="128" y="244" type="curve" smooth="yes"/>
      <point x="128" y="143"/>
      <point x="179" y="69"/>
      <point x="271" y="69" type="curve" smooth="yes"/>
      <point x="330" y="69"/>
      <point x="366" y="82"/>
    </contour>
    <contour>
      <point x="781" y="221" type="curve"/>
      <point x="437" y="221" type="line"/>
      <point x="444" y="132"/>
      <point x="491" y="68"/>
      <point x="600" y="68" type="curve" smooth="yes"/>
      <point x="657" y="68"/>
      <point x="693" y="86"/>
      <point x="746" y="111" type="curve"/>
      <point x="776" y="41" type="line"/>
      <point x="728" y="12"/>
      <point x="668" y="-12"/>
      <point x="600" y="-12" type="curve" smooth="yes"/>
      <point x="427" y="-12"/>
      <point x="337" y="91"/>
      <point x="337" y="243" type="curve" smooth="yes"/>
      <point x="337" y="394"/>
      <point x="424" y="498"/>
      <point x="569" y="498" type="curve" smooth="yes"/>
      <point x="726" y="498"/>
      <point x="781" y="369"/>
    </contour>
    <contour>
      <point x="439" y="286" type="curve"/>
      <point x="688" y="286" type="line"/>
      <point x="676" y="366"/>
      <point x="639" y="416"/>
      <point x="566" y="416" type="curve" smooth="yes"/>
      <point x="491" y="416"/>
      <point x="448" y="365"/>
    </contour>
  </outline>
</glyph>
<glyph name="tcaron" format="2">
  <advance width="473"/>
  <unicode hex="0165"/>
  <outline>
    <contour>
      <point x="381" y="722" type="curve" smooth="yes"/>
      <point x="414" y="722"/>
      <point x="443" y="693"/>
      <point x="443" y="650" type="curve" smooth="yes"/>
      <point x="443" y="582"/>
      <point x="394" y="503"/>
      <point x="331" y="470" type="curve"/>
      <point x="308" y="515" type="line"/>
      <point x="340" y="540"/>
      <point x="364" y="562"/>
      <point x="369" y="601" type="curve"/>
      <point x="345" y="602"/>
      <point x="320" y="632"/>
      <point x="320" y="661" type="curve" smooth="yes"/>
      <point x="320" y="690"/>
      <point x="348" y="722"/>
    </contour>
    <component base="t"/>
  </outline>
</glyph>
<glyph name="uogonek" format="2">
  <advance width="541"/>
  <unicode hex="0173"/>
  <outline>
    <contour>
      <point x="415" y="29" type="curve"/>
      <point x="481" y="0" type="line"/>
      <point x="454" y="-21"/>
      <point x="423" y="-70"/>
      <point x="423" y="-99" type="curve" smooth="yes"/>
      <point x="423" y="-127"/>
      <point x="440" y="-140"/>
      <point x="464" y="-140" type="curve" smooth="yes"/>
      <point x="479" y="-140"/>
      <point x="497" y="-133"/>
      <point x="512" y="-121" type="curve"/>
      <point x="542" y="-180" type="line"/>
      <point x="517" y="-201"/>
      <point x="487" y="-211"/>
      <point x="451" y="-211" type="curve" smooth="yes"/>
      <point x="386" y="-211"/>
      <point x="341" y="-167"/>
      <point x="341" y="-107" type="curve" smooth="yes"/>
      <point x="341" y="-57"/>
      <point x="375" y="-5"/>
    </contour>
    <component base="u"/>
  </outline>
</glyph>
<glyph name="florin" format="2">
  <advance width="374"/>
  <unicode hex="0192"/>
  <outline>
    <contour>
      <point x="65" y="475" type="line"/>
      <point x="139" y="475" type="line"/>
      <point x="139" y="542" type="line" smooth="yes"/>
      <point x="139" y="639"/>
      <point x="197" y="702"/>
      <point x="293" y="702" type="curve" smooth="yes"/>
      <point x="322" y="702"/>
      <point x="357" y="691"/>
      <point x="374" y="680" type="curve"/>
      <point x="350" y="606" type="line"/>
      <point x="337" y="611"/>
      <point x="317" y="617"/>
      <point x="302" y="617" type="curve" smooth="yes"/>
      <point x="254" y="617"/>
      <point x="235" y="582"/>
      <point x="235" y="533" type="curve" smooth="yes"/>
      <point x="235" y="475" type="line"/>
      <point x="325" y="475" type="line"/>
      <point x="356" y="401" type="line"/>
      <point x="235" y="401" type="line"/>
      <point x="235" y="64" type="line" smooth="yes"/>
      <point x="235" y="-32"/>
      <point x="178" y="-94"/>
      <point x="83" y="-94" type="curve" smooth="yes"/>
      <point x="54" y="-94"/>
      <point x="17" y="-84"/>
      <point x="0" y="-73" type="curve"/>
      <point x="24" y="0" type="line"/>
      <point x="37" y="-5"/>
      <point x="57" y="-11"/>
      <point x="72" y="-11" type="curve" smooth="yes"/>
      <point x="121" y="-11"/>
      <point x="139" y="24"/>
      <point x="139" y="73" type="curve" smooth="yes"/>
      <point x="139" y="401" type="line"/>
      <point x="66" y="401" type="line"/>
    </contour>
  </outline>
</glyph>
<glyph name="circumflex" format="2">
  <advance width="343"/>
  <unicode hex="02C6"/>
  <anchor x="176" y="485" name="_top"/>
  <outline>
    <contour>
      <point x="172" y="676" type="line"/>
      <point x="97" y="589" type="line"/>
      <point x="10" y="599" type="line"/>
      <point x="138" y="747" type="line"/>
      <point x="204" y="747" type="line"/>
      <point x="333" y="599" type="line"/>
      <point x="247" y="589" type="line"/>
    </contour>
  </outline>
</glyph>
<glyph name="caron" format="2">
  <advance width="343"/>
  <unicode hex="02C7"/>
  <anchor x="171" y="485" name="_top"/>
  <outline>
    <contour>
      <point x="171" y="660" type="line"/>
      <point x="246" y="747" type="line"/>
      <point x="333" y="737" type="line"/>
      <point x="205" y="589" type="line"/>
      <point x="139" y="589" type="line"/>
      <point x="10" y="737" type="line"/>
      <point x="96" y="747" type="line"/>
    </contour>
  </outline>
</glyph>
<glyph name="uni02C9" format="2">
  <advance width="271"/>
  <unicode hex="02C9"/>
  <outline>
    <contour>
      <point x="10" y="626" type="line"/>
      <point x="10" y="702" type="line"/>
      <point x="251" y="702" type="line"/>
      <point x="261" y="626" type="line"/>
    </contour>
  </outline>
</glyph>
<glyph name="breve" format="2">
  <advance width="297"/>
  <unicode hex="02D8"/>
  <outline>
    <contour>
      <point x="220" y="742" type="curve"/>
      <point x="287" y="742" type="line"/>
      <point x="287" y="666"/>
      <point x="244" y="596"/>
      <point x="148" y="595" type="curve" smooth="yes"/>
      <point x="52" y="596"/>
      <point x="10" y="666"/>
      <point x="10" y="742" type="curve"/>
      <point x="77" y="742" type="line"/>
      <point x="77" y="706"/>
      <point x="99" y="665"/>
      <point x="148" y="665" type="curve" smooth="yes"/>
      <point x="196" y="665"/>
      <point x="220" y="706"/>
    </contour>
  </outline>
</glyph>
<glyph name="dotaccent" format="2">
  <advance width="140"/>
  <unicode hex="02D9"/>
  <anchor x="74" y="485" name="_top"/>
  <outline>
    <contour>
      <point x="71" y="606" type="curve" smooth="yes"/>
      <point x="38" y="606"/>
      <point x="10" y="633"/>
      <point x="10" y="666" type="curve" smooth="yes"/>
      <point x="10" y="699"/>
      <point x="38" y="727"/>
      <point x="71" y="727" type="curve" smooth="yes"/>
      <point x="104" y="727"/>
      <point x="130" y="699"/>
      <point x="130" y="666" type="curve" smooth="yes"/>
      <point x="130" y="633"/>
      <point x="104" y="606"/>
    </contour>
  </outline>
</glyph>
<glyph name="ring" format="2">
  <advance width="215"/>
  <unicode hex="02DA"/>
  <outline>
    <contour>
      <point x="108" y="776" type="curve" smooth="yes"/>
      <point x="160" y="776"/>
      <point x="205" y="736"/>
      <point x="205" y="683" type="curve" smooth="yes"/>
      <point x="205" y="631"/>
      <point x="160" y="594"/>
      <point x="108" y="594" type="curve" smooth="yes"/>
      <point x="55" y="594"/>
      <point x="10" y="631"/>
      <point x="10" y="683" type="curve" smooth="yes"/>
      <point x="10" y="736"/>
      <point x="55" y="776"/>
    </contour>
    <contour>
      <point x="108" y="642" type="curve" smooth="yes"/>
      <point x="131" y="642"/>
      <point x="149" y="662"/>
      <point x="149" y="683" type="curve" smooth="yes"/>
      <point x="149" y="707"/>
      <point x="131" y="725"/>
      <point x="108" y="725" type="curve" smooth="yes"/>
      <point x="85" y="725"/>
      <point x="66" y="707"/>
      <point x="66" y="683" type="curve" smooth="yes"/>
      <point x="66" y="662"/>
      <point x="85" y="642"/>
    </contour>
  </outline>
</glyph>
<glyph name="ogonek" format="2">
  <advance width="221"/>
  <unicode hex="02DB"/>
  <anchor x="99" y="0" name="_bottom"/>
  <outline>
    <contour>
      <point x="57" y="4" type="curve"/>
      <point x="150" y="4" type="line"/>
      <point x="123" y="-17"/>
      <point x="92" y="-66"/>
      <point x="92" y="-95" type="curve" smooth="yes"/>
      <point x="92" y="-123"/>
      <point x="109" y="-136"/>
      <point x="133" y="-136" type="curve" smooth="yes"/>
      <point x="148" y="-136"/>
      <point x="166" y="-129"/>
      <point x="181" y="-117" type="curve"/>
      <point x="211" y="-176" type="line"/>
      <point x="186" y="-197"/>
      <point x="156" y="-207"/>
      <point x="120" y="-207" type="curve" smooth="yes"/>
      <point x="55" y="-207"/>
      <point x="10" y="-163"/>
      <point x="10" y="-103" type="curve" smooth="yes"/>
      <point x="10" y="-68"/>
      <point x="32" y="-20"/>
    </contour>
  </outline>
</glyph>
<glyph name="tilde" format="2">
  <advance width="323"/>
  <unicode hex="02DC"/>
  <anchor x="162" y="485" name="_top"/>
  <outline>
    <contour>
      <point x="250" y="707" type="curve"/>
      <point x="313" y="707" type="line"/>
      <point x="313" y="627"/>
      <point x="269" y="601"/>
      <point x="218" y="601" type="curve" smooth="yes"/>
      <point x="194" y="601"/>
      <point x="174" y="608"/>
      <point x="159" y="622" type="curve" smooth="yes"/>
      <point x="143" y="636"/>
      <point x="126" y="643"/>
      <point x="109" y="643" type="curve" smooth="yes"/>
      <point x="93" y="643"/>
      <point x="76" y="627"/>
      <point x="75" y="606" type="curve"/>
      <point x="10" y="606" type="line"/>
      <point x="10" y="686"/>
      <point x="53" y="711"/>
      <point x="105" y="711" type="curve" smooth="yes"/>
      <point x="131" y="711"/>
      <point x="152" y="704"/>
      <point x="167" y="691" type="curve"/>
      <point x="182" y="677"/>
      <point x="199" y="670"/>
      <point x="217" y="670" type="curve" smooth="yes"/>
      <point x="234" y="670"/>
      <point x="249" y="684"/>
    </contour>
  </outline>
</glyph>
<glyph name="hungarumlaut" format="2">
  <advance width="342"/>
  <unicode hex="02DD"/>
  <outline>
    <contour>
      <point x="76" y="589" type="line"/>
      <point x="10" y="606" type="line"/>
      <point x="64" y="747" type="line"/>
      <point x="166" y="747" type="line"/>
    </contour>
    <contour>
      <point x="242" y="589" type="line"/>
      <point x="176" y="606" type="line"/>
      <point x="230" y="747" type="line"/>
      <point x="332" y="747" type="line"/>
    </contour>
  </outline>
</glyph>
<glyph name="pi" format="2">
  <advance width="619"/>
  <unicode hex="03C0"/>
  <outline>
    <contour>
      <point x="203" y="0" type="line"/>
      <point x="107" y="0" type="line"/>
      <point x="107" y="409" type="line"/>
      <point x="10" y="409" type="line"/>
      <point x="10" y="485" type="line"/>
      <point x="609" y="485" type="line"/>
      <point x="609" y="409" type="line"/>
      <point x="511" y="409" type="line"/>
      <point x="511" y="0" type="line"/>
      <point x="415" y="0" type="line"/>
      <point x="415" y="409" type="line"/>
      <point x="203" y="409" type="line"/>
    </contour>
  </outline>
</glyph>
<glyph name="tm_Anusvara" format="2">
  <unicode hex="0B82"/>
  <outline>
    <contour>
      <point x="0" y="626" type="curve" smooth="yes"/>
      <point x="-64" y="626"/>
      <point x="-122" y="673"/>
      <point x="-122" y="740" type="curve" smooth="yes"/>
      <point x="-122" y="808"/>
      <point x="-64" y="855"/>
      <point x="0" y="855" type="curve" smooth="yes"/>
      <point x="65" y="855"/>
      <point x="122" y="808"/>
      <point x="122" y="740" type="curve" smooth="yes"/>
      <point x="122" y="673"/>
      <point x="65" y="626"/>
    </contour>
    <contour>
      <point x="0" y="688" type="curve" smooth="yes"/>
      <point x="32" y="688"/>
      <point x="55" y="710"/>
      <point x="55" y="740" type="curve" smooth="yes"/>
      <point x="55" y="771"/>
      <point x="32" y="794"/>
      <point x="0" y="794" type="curve" smooth="yes"/>
      <point x="-31" y="794"/>
      <point x="-53" y="771"/>
      <point x="-53" y="740" type="curve" smooth="yes"/>
      <point x="-53" y="710"/>
      <point x="-31" y="688"/>
    </contour>
  </outline>
</glyph>
<glyph name="tm_Visarga" format="2">
  <advance width="686"/>
  <unicode hex="0B83"/>
  <outline>
    <contour>
      <point x="343" y="298" type="curve" smooth="yes"/>
      <point x="279" y="298"/>
      <point x="221" y="345"/>
      <point x="221" y="411" type="curve" smooth="yes"/>
      <point x="221" y="480"/>
      <point x="279" y="527"/>
      <point x="343" y="527" type="curve" smooth="yes"/>
      <point x="407" y="527"/>
      <point x="465" y="480"/>
      <point x="465" y="411" type="curve" smooth="yes"/>
      <point x="465" y="345"/>
      <point x="407" y="298"/>
    </contour>
    <contour>
      <point x="343" y="360" type="curve" smooth="yes"/>
      <point x="374" y="360"/>
      <point x="397" y="382"/>
      <point x="397" y="411" type="curve" smooth="yes"/>
      <point x="397" y="443"/>
      <point x="374" y="465"/>
      <point x="343" y="465" type="curve" smooth="yes"/>
      <point x="312" y="465"/>
      <point x="289" y="443"/>
      <point x="289" y="411" type="curve" smooth="yes"/>
      <point x="289" y="382"/>
      <point x="312" y="360"/>
    </contour>
    <contour>
      <point x="172" y="-14" type="curve" smooth="yes"/>
      <point x="108" y="-14"/>
      <point x="50" y="33"/>
      <point x="50" y="100" type="curve" smooth="yes"/>
      <point x="50" y="168"/>
      <point x="108" y="215"/>
      <point x="172" y="215" type="curve" smooth="yes"/>
      <point x="236" y="215"/>
      <point x="294" y="168"/>
      <point x="294" y="100" type="curve" smooth="yes"/>
      <point x="294" y="33"/>
      <point x="236" y="-14"/>
    </contour>
    <contour>
      <point x="514" y="-14" type="curve" smooth="yes"/>
      <point x="450" y="-14"/>
      <point x="392" y="33"/>
      <point x="392" y="100" type="curve" smooth="yes"/>
      <point x="392" y="168"/>
      <point x="450" y="215"/>
      <point x="514" y="215" type="curve" smooth="yes"/>
      <point x="578" y="215"/>
      <point x="636" y="168"/>
      <point x="636" y="100" type="curve" smooth="yes"/>
      <point x="636" y="33"/>
      <point x="578" y="-14"/>
    </contour>
    <contour>
      <point x="172" y="49" type="curve" smooth="yes"/>
      <point x="203" y="49"/>
      <point x="226" y="70"/>
      <point x="226" y="100" type="curve" smooth="yes"/>
      <point x="226" y="131"/>
      <point x="203" y="154"/>
      <point x="172" y="154" type="curve" smooth="yes"/>
      <point x="141" y="154"/>
      <point x="118" y="131"/>
      <point x="118" y="100" type="curve" smooth="yes"/>
      <point x="118" y="70"/>
      <point x="141" y="49"/>
    </contour>
    <contour>
      <point x="514" y="49" type="curve" smooth="yes"/>
      <point x="545" y="49"/>
      <point x="568" y="70"/>
      <point x="568" y="100" type="curve" smooth="yes"/>
      <point x="568" y="131"/>
      <point x="545" y="154"/>
      <point x="514" y="154" type="curve" smooth="yes"/>
      <point x="483" y="154"/>
      <point x="460" y="131"/>
      <point x="460" y="100" type="curve" smooth="yes"/>
      <point x="460" y="70"/>
      <point x="483" y="49"/>
    </contour>
  </outline>
</glyph>
<glyph name="tm_A" format="2">
  <advance width="1078"/>
  <unicode hex="0B85"/>
  <outline>
    <contour>
      <point x="988" y="-126" type="line"/>
      <point x="901" y="-126" type="line"/>
      <point x="901" y="513" type="line"/>
      <point x="988" y="513" type="line"/>
    </contour>
    <contour>
      <point x="461" y="531" type="curve" smooth="yes"/>
      <point x="638" y="531"/>
      <point x="749" y="404"/>
      <point x="749" y="230" type="curve" smooth="yes"/>
      <point x="749" y="13"/>
      <point x="581" y="-144"/>
      <point x="326" y="-144" type="curve" smooth="yes"/>
      <point x="154" y="-144"/>
      <point x="30" y="-73"/>
      <point x="30" y="26" type="curve" smooth="yes"/>
      <point x="30" y="84"/>
      <point x="73" y="125"/>
      <point x="154" y="125" type="curve" smooth="yes"/>
      <point x="901" y="125" type="line"/>
      <point x="901" y="58" type="line"/>
      <point x="154" y="58" type="line" smooth="yes"/>
      <point x="131" y="58"/>
      <point x="121" y="44"/>
      <point x="121" y="26" type="curve" smooth="yes"/>
      <point x="121" y="-28"/>
      <point x="207" y="-69"/>
      <point x="326" y="-69" type="curve" smooth="yes"/>
      <point x="528" y="-69"/>
      <point x="658" y="58"/>
      <point x="658" y="230" type="curve" smooth="yes"/>
      <point x="658" y="360"/>
      <point x="584" y="456"/>
      <point x="461" y="456" type="curve" smooth="yes"/>
      <point x="366" y="456"/>
      <point x="297" y="402"/>
      <point x="297" y="329" type="curve" smooth="yes"/>
      <point x="297" y="302"/>
      <point x="318" y="281"/>
      <point x="346" y="281" type="curve" smooth="yes"/>
      <point x="374" y="281"/>
      <point x="395" y="302"/>
      <point x="395" y="329" type="curve" smooth="yes"/>
      <point x="395" y="356"/>
      <point x="375" y="376"/>
      <point x="347" y="376" type="curve" smooth="yes"/>
      <point x="318" y="376"/>
      <point x="297" y="356"/>
      <point x="297" y="329" type="curve"/>
      <point x="234" y="329" type="line"/>
      <point x="233" y="398"/>
      <point x="283" y="447"/>
      <point x="351" y="447" type="curve" smooth="yes"/>
      <point x="424" y="447"/>
      <point x="476" y="398"/>
      <point x="476" y="329" type="curve" smooth="yes"/>
      <point x="475" y="258"/>
      <point x="421" y="208"/>
      <point x="346" y="209" type="curve" smooth="yes"/>
      <point x="270" y="210"/>
      <point x="216" y="260"/>
      <point x="216" y="329" type="curve" smooth="yes"/>
      <point x="216" y="446"/>
      <point x="319" y="531"/>
    </contour>
  </outline>
</glyph>
<glyph name="tm_Aa" format="2">
  <advance width="1281"/>
  <unicode hex="0B86"/>
  <outline>
    <contour>
      <point x="941" y="58" type="line"/>
      <point x="941" y="125" type="line"/>
      <point x="154" y="125" type="line" smooth="yes"/>
      <point x="73" y="125"/>
      <point x="30" y="84"/>
      <point x="30" y="26" type="curve" smooth="yes"/>
      <point x="30" y="-73"/>
      <point x="154" y="-144"/>
      <point x="326" y="-144" type="curve" smooth="yes"/>
      <point x="581" y="-144"/>
      <point x="749" y="13"/>
      <point x="749" y="230" type="curve" smooth="yes"/>
      <point x="749" y="404"/>
      <point x="638" y="531"/>
      <point x="461" y="531" type="curve" smooth="yes"/>
      <point x="319" y="531"/>
      <point x="216" y="446"/>
      <point x="216" y="329" type="curve" smooth="yes"/>
      <point x="216" y="260"/>
      <point x="270" y="210"/>
      <point x="346" y="209" type="curve" smooth="yes"/>
      <point x="421" y="208"/>
      <point x="475" y="258"/>
      <point x="476" y="329" type="curve" smooth="yes"/>
      <point x="476" y="398"/>
      <point x="424" y="447"/>
      <point x="351" y="447" type="curve" smooth="yes"/>
      <point x="283" y="447"/>
      <point x="233" y="398"/>
      <point x="234" y="329" type="curve"/>
      <point x="297" y="329" type="line"/>
      <point x="297" y="356"/>
      <point x="318" y="376"/>
      <point x="347" y="376" type="curve" smooth="yes"/>
      <point x="375" y="376"/>
      <point x="395" y="356"/>
      <point x="395" y="329" type="curve" smooth="yes"/>
      <point x="395" y="302"/>
      <point x="374" y="281"/>
      <point x="346" y="281" type="curve" smooth="yes"/>
      <point x="318" y="281"/>
      <point x="297" y="302"/>
      <point x="297" y="329" type="curve" smooth="yes"/>
      <point x="297" y="402"/>
      <point x="366" y="456"/>
      <point x="461" y="456" type="curve" smooth="yes"/>
      <point x="584" y="456"/>
      <point x="658" y="360"/>
      <point x="658" y="230" type="curve" smooth="yes"/>
      <point x="658" y="58"/>
      <point x="528" y="-69"/>
      <point x="326" y="-69" type="curve" smooth="yes"/>
      <point x="207" y="-69"/>
      <point x="121" y="-28"/>
      <point x="121" y="26" type="curve" smooth="yes"/>
      <point x="121" y="44"/>
      <point x="131" y="58"/>
      <point x="154" y="58" type="curve" smooth="yes"/>
    </contour>
    <contour>
      <point x="1097" y="102" type="curve" smooth="yes"/>
      <point x="1055" y="102"/>
      <point x="1017" y="89"/>
      <point x="988" y="66" type="curve"/>
      <point x="988" y="513" type="line"/>
      <point x="901" y="513" type="line"/>
      <point x="901" y="-126" type="line"/>
      <point x="988" y="-126" type="line"/>
      <point x="988" y="-77" type="line" smooth="yes"/>
      <point x="988" y="-17"/>
      <point x="1028" y="27"/>
      <point x="1089" y="27" type="curve" smooth="yes"/>
      <point x="1147" y="27"/>
      <point x="1180" y="-20"/>
      <point x="1180" y="-75" type="curve" smooth="yes"/>
      <point x="1180" y="-207"/>
      <point x="1061" y="-302"/>
      <point x="886" y="-302" type="curve" smooth="yes"/>
      <point x="797" y="-302"/>
      <point x="738" y="-266"/>
      <point x="738" y="-221" type="curve" smooth="yes"/>
      <point x="738" y="-191"/>
      <point x="758" y="-173"/>
      <point x="785" y="-173" type="curve" smooth="yes"/>
      <point x="806" y="-173" type="line"/>
      <point x="806" y="-105" type="line"/>
      <point x="785" y="-105" type="line" smooth="yes"/>
      <point x="705" y="-105"/>
      <point x="647" y="-151"/>
      <point x="647" y="-221" type="curve" smooth="yes"/>
      <point x="647" y="-309"/>
      <point x="744" y="-377"/>
      <point x="886" y="-377" type="curve" smooth="yes"/>
      <point x="1115" y="-377"/>
      <point x="1271" y="-250"/>
      <point x="1271" y="-75" type="curve" smooth="yes"/>
      <point x="1271" y="29"/>
      <point x="1202" y="102"/>
    </contour>
  </outline>
</glyph>
<glyph name="tm_I" format="2">
  <advance width="1047"/>
  <unicode hex="0B87"/>
  <outline>
    <contour>
      <point x="492" y="531" type="curve" smooth="yes"/>
      <point x="630" y="531"/>
      <point x="720" y="435"/>
      <point x="720" y="302" type="curve" smooth="yes"/>
      <point x="720" y="11"/>
      <point x="446" y="-198"/>
      <point x="182" y="-198" type="curve" smooth="yes"/>
      <point x="94" y="-198"/>
      <point x="30" y="-147"/>
      <point x="30" y="-77" type="curve" smooth="yes"/>
      <point x="30" y="56"/>
      <point x="209" y="152"/>
      <point x="413" y="152" type="curve" smooth="yes"/>
      <point x="609" y="152"/>
      <point x="782" y="56"/>
      <point x="782" y="-77" type="curve" smooth="yes"/>
      <point x="782" y="-147"/>
      <point x="719" y="-198"/>
      <point x="630" y="-198" type="curve" smooth="yes"/>
      <point x="373" y="-198"/>
      <point x="102" y="44"/>
      <point x="102" y="331" type="curve" smooth="yes"/>
      <point x="102" y="552"/>
      <point x="287" y="711"/>
      <point x="540" y="711" type="curve" smooth="yes"/>
      <point x="782" y="711"/>
      <point x="957" y="552"/>
      <point x="957" y="331" type="curve" smooth="yes"/>
      <point x="957" y="-148" type="line"/>
      <point x="871" y="-148" type="line"/>
      <point x="871" y="329" type="line" smooth="yes"/>
      <point x="871" y="507"/>
      <point x="732" y="636"/>
      <point x="540" y="636" type="curve" smooth="yes"/>
      <point x="339" y="636"/>
      <point x="193" y="509"/>
      <point x="193" y="331" type="curve" smooth="yes"/>
      <point x="193" y="82"/>
      <point x="416" y="-123"/>
      <point x="630" y="-123" type="curve" smooth="yes"/>
      <point x="665" y="-123"/>
      <point x="692" y="-103"/>
      <point x="692" y="-77" type="curve" smooth="yes"/>
      <point x="692" y="13"/>
      <point x="557" y="77"/>
      <point x="413" y="77" type="curve" smooth="yes"/>
      <point x="261" y="77"/>
      <point x="121" y="13"/>
      <point x="121" y="-77" type="curve" smooth="yes"/>
      <point x="121" y="-103"/>
      <point x="147" y="-123"/>
      <point x="182" y="-123" type="curve" smooth="yes"/>
      <point x="402" y="-123"/>
      <point x="629" y="55"/>
      <point x="629" y="302" type="curve" smooth="yes"/>
      <point x="629" y="392"/>
      <point x="577" y="456"/>
      <point x="492" y="456" type="curve" smooth="yes"/>
      <point x="399" y="456"/>
      <point x="332" y="403"/>
      <point x="332" y="329" type="curve" smooth="yes"/>
      <point x="332" y="295"/>
      <point x="357" y="271"/>
      <point x="391" y="271" type="curve" smooth="yes"/>
      <point x="425" y="271"/>
      <point x="450" y="295"/>
      <point x="450" y="329" type="curve" smooth="yes"/>
      <point x="450" y="362"/>
      <point x="426" y="386"/>
      <point x="392" y="386" type="curve" smooth="yes"/>
      <point x="357" y="386"/>
      <point x="332" y="362"/>
      <point x="332" y="329" type="curve"/>
      <point x="279" y="329" type="line"/>
      <point x="278" y="398"/>
      <point x="328" y="447"/>
      <point x="396" y="447" type="curve" smooth="yes"/>
      <point x="469" y="447"/>
      <point x="521" y="398"/>
      <point x="521" y="329" type="curve" smooth="yes"/>
      <point x="520" y="258"/>
      <point x="466" y="208"/>
      <point x="391" y="209" type="curve" smooth="yes"/>
      <point x="315" y="210"/>
      <point x="261" y="260"/>
      <point x="261" y="329" type="curve" smooth="yes"/>
      <point x="261" y="446"/>
      <point x="350" y="531"/>
    </contour>
  </outline>
</glyph>
<glyph name="tm_Ii" format="2">
  <advance width="765"/>
  <unicode hex="0B88"/>
  <outline>
    <contour>
      <point x="518" y="0" type="line"/>
      <point x="518" y="446" type="line"/>
      <point x="755" y="446" type="line"/>
      <point x="743" y="513" type="line"/>
      <point x="90" y="513" type="line"/>
      <point x="90" y="0" type="line"/>
      <point x="176" y="0" type="line"/>
      <point x="176" y="446" type="line"/>
      <point x="431" y="446" type="line"/>
      <point x="431" y="0" type="line"/>
    </contour>
    <contour>
      <point x="303" y="165" type="curve" smooth="yes"/>
      <point x="274" y="165"/>
      <point x="250" y="189"/>
      <point x="250" y="219" type="curve" smooth="yes"/>
      <point x="250" y="248"/>
      <point x="274" y="273"/>
      <point x="303" y="273" type="curve" smooth="yes"/>
      <point x="333" y="273"/>
      <point x="358" y="248"/>
      <point x="358" y="219" type="curve" smooth="yes"/>
      <point x="358" y="189"/>
      <point x="333" y="165"/>
    </contour>
    <contour>
      <point x="644" y="165" type="curve" smooth="yes"/>
      <point x="615" y="165"/>
      <point x="591" y="189"/>
      <point x="591" y="219" type="curve" smooth="yes"/>
      <point x="591" y="248"/>
      <point x="615" y="273"/>
      <point x="644" y="273" type="curve" smooth="yes"/>
      <point x="674" y="273"/>
      <point x="699" y="248"/>
      <point x="699" y="219" type="curve" smooth="yes"/>
      <point x="699" y="189"/>
      <point x="674" y="165"/>
    </contour>
  </outline>
</glyph>
<glyph name="tm_Uu" format="2">
  <advance width="1671"/>
  <unicode hex="0B8A"/>
  <outline>
    <contour>
      <point x="77" y="68" type="line"/>
      <point x="77" y="0" type="line"/>
      <point x="1661" y="0" type="line"/>
      <point x="1661" y="68" type="line"/>
      <point x="506" y="68" type="line"/>
      <point x="573" y="114"/>
      <point x="611" y="187"/>
      <point x="611" y="273" type="curve" smooth="yes"/>
      <point x="611" y="422"/>
      <point x="490" y="531"/>
      <point x="323" y="531" type="curve" smooth="yes"/>
      <point x="153" y="531"/>
      <point x="30" y="422"/>
      <point x="30" y="273" type="curve" smooth="yes"/>
      <point x="30" y="187"/>
      <point x="98" y="125"/>
      <point x="190" y="125" type="curve" smooth="yes"/>
      <point x="280" y="125"/>
      <point x="346" y="185"/>
      <point x="346" y="267" type="curve" smooth="yes"/>
      <point x="346" y="348"/>
      <point x="280" y="407"/>
      <point x="190" y="407" type="curve" smooth="yes"/>
      <point x="113" y="407"/>
      <point x="56" y="348"/>
      <point x="56" y="268" type="curve"/>
      <point x="112" y="268" type="line"/>
      <point x="112" y="311"/>
      <point x="143" y="343"/>
      <point x="188" y="343" type="curve" smooth="yes"/>
      <point x="232" y="343"/>
      <point x="264" y="311"/>
      <point x="264" y="268" type="curve" smooth="yes"/>
      <point x="264" y="224"/>
      <point x="232" y="192"/>
      <point x="188" y="192" type="curve" smooth="yes"/>
      <point x="143" y="192"/>
      <point x="112" y="224"/>
      <point x="112" y="268" type="curve" smooth="yes"/>
      <point x="112" y="377"/>
      <point x="192" y="456"/>
      <point x="323" y="456" type="curve" smooth="yes"/>
      <point x="437" y="456"/>
      <point x="520" y="379"/>
      <point x="520" y="273" type="curve" smooth="yes"/>
      <point x="520" y="154"/>
      <point x="428" y="68"/>
      <point x="300" y="68" type="curve" smooth="yes"/>
    </contour>
    <contour>
      <point x="775" y="302" type="curve" smooth="yes"/>
      <point x="775" y="389"/>
      <point x="848" y="452"/>
      <point x="948" y="452" type="curve" smooth="yes"/>
      <point x="1058" y="452"/>
      <point x="1137" y="379"/>
      <point x="1137" y="277" type="curve" smooth="yes"/>
      <point x="1137" y="122" type="line"/>
      <point x="1223" y="122" type="line"/>
      <point x="1223" y="446" type="line"/>
      <point x="1389" y="446" type="line"/>
      <point x="1389" y="122" type="line"/>
      <point x="1475" y="122" type="line"/>
      <point x="1475" y="446" type="line"/>
      <point x="1619" y="446" type="line"/>
      <point x="1607" y="513" type="line"/>
      <point x="1137" y="513" type="line"/>
      <point x="1137" y="443" type="line"/>
      <point x="1093" y="495"/>
      <point x="1026" y="527"/>
      <point x="948" y="527" type="curve" smooth="yes"/>
      <point x="797" y="527"/>
      <point x="687" y="432"/>
      <point x="687" y="302" type="curve" smooth="yes"/>
      <point x="687" y="189"/>
      <point x="783" y="107"/>
      <point x="917" y="107" type="curve" smooth="yes"/>
      <point x="998" y="107"/>
      <point x="1060" y="162"/>
      <point x="1060" y="233" type="curve" smooth="yes"/>
      <point x="1060" y="309"/>
      <point x="1000" y="360"/>
      <point x="921" y="360" type="curve" smooth="yes"/>
      <point x="846" y="360"/>
      <point x="791" y="309"/>
      <point x="791" y="233" type="curve" smooth="yes"/>
      <point x="791" y="172"/>
      <point x="846" y="125"/>
      <point x="921" y="125" type="curve"/>
      <point x="921" y="172" type="line"/>
      <point x="884" y="172"/>
      <point x="858" y="198"/>
      <point x="858" y="233" type="curve" smooth="yes"/>
      <point x="858" y="271"/>
      <point x="884" y="294"/>
      <point x="921" y="294" type="curve" smooth="yes"/>
      <point x="957" y="294"/>
      <point x="983" y="271"/>
      <point x="983" y="233" type="curve" smooth="yes"/>
      <point x="983" y="198"/>
      <point x="957" y="172"/>
      <point x="921" y="172" type="curve" smooth="yes"/>
      <point x="817" y="172"/>
      <point x="775" y="226"/>
    </contour>
  </outline>
</glyph>
<glyph name="tm_Ee" format="2">
  <advance width="876"/>
  <unicode hex="0B8F"/>
  <outline>
    <contour>
      <point x="141" y="237" type="curve" smooth="yes"/>
      <point x="141" y="362"/>
      <point x="220" y="446"/>
      <point x="395" y="446" type="curve" smooth="yes"/>
      <point x="596" y="446" type="line"/>
      <point x="596" y="33" type="line" smooth="yes"/>
      <point x="596" y="-31"/>
      <point x="592" y="-62"/>
      <point x="545" y="-77" type="curve" smooth="yes"/>
      <point x="223" y="-185" type="line"/>
      <point x="255" y="-250" type="line"/>
      <point x="614" y="-133" type="line" smooth="yes"/>
      <point x="678" y="-113"/>
      <point x="683" y="-61"/>
      <point x="683" y="8" type="curve" smooth="yes"/>
      <point x="683" y="446" type="line"/>
      <point x="866" y="446" type="line"/>
      <point x="855" y="513" type="line"/>
      <point x="386" y="513" type="line" smooth="yes"/>
      <point x="164" y="513"/>
      <point x="50" y="397"/>
      <point x="50" y="237" type="curve" smooth="yes"/>
      <point x="50" y="96"/>
      <point x="160" y="-18"/>
      <point x="333" y="-18" type="curve" smooth="yes"/>
      <point x="438" y="-18"/>
      <point x="514" y="50"/>
      <point x="514" y="142" type="curve" smooth="yes"/>
      <point x="514" y="235"/>
      <point x="441" y="302"/>
      <point x="339" y="302" type="curve" smooth="yes"/>
      <point x="244" y="302"/>
      <point x="175" y="236"/>
      <point x="175" y="143" type="curve" smooth="yes"/>
      <point x="175" y="134"/>
      <point x="176" y="125"/>
      <point x="178" y="117" type="curve"/>
      <point x="153" y="149"/>
      <point x="141" y="190"/>
    </contour>
    <contour>
      <point x="246" y="142" type="curve" smooth="yes"/>
      <point x="246" y="195"/>
      <point x="285" y="234"/>
      <point x="339" y="234" type="curve" smooth="yes"/>
      <point x="393" y="234"/>
      <point x="432" y="195"/>
      <point x="432" y="142" type="curve" smooth="yes"/>
      <point x="432" y="88"/>
      <point x="393" y="50"/>
      <point x="339" y="50" type="curve" smooth="yes"/>
      <point x="285" y="50"/>
      <point x="246" y="88"/>
    </contour>
  </outline>
</glyph>
<glyph name="tm_Ai" format="2">
  <advance width="821"/>
  <unicode hex="0B90"/>
  <outline>
    <contour>
      <point x="666" y="-27" type="curve" smooth="yes"/>
      <point x="666" y="-83"/>
      <point x="640" y="-131"/>
      <point x="572" y="-131" type="curve" smooth="yes"/>
      <point x="506" y="-131"/>
      <point x="459" y="-82"/>
      <point x="459" y="-17" type="curve" smooth="yes"/>
      <point x="459" y="52" type="line"/>
      <point x="372" y="52" type="line"/>
      <point x="372" y="-17" type="line" smooth="yes"/>
      <point x="372" y="-82"/>
      <point x="324" y="-131"/>
      <point x="257" y="-131" type="curve" smooth="yes"/>
      <point x="189" y="-131"/>
      <point x="140" y="-85"/>
      <point x="141" y="-23" type="curve" smooth="yes"/>
      <point x="142" y="57"/>
      <point x="190" y="97"/>
      <point x="320" y="114" type="curve" smooth="yes"/>
      <point x="501" y="139" type="line" smooth="yes"/>
      <point x="676" y="162"/>
      <point x="771" y="248"/>
      <point x="771" y="355" type="curve" smooth="yes"/>
      <point x="771" y="460"/>
      <point x="697" y="531"/>
      <point x="586" y="531" type="curve" smooth="yes"/>
      <point x="499" y="531"/>
      <point x="442" y="482"/>
      <point x="407" y="412" type="curve"/>
      <point x="407" y="368" type="line"/>
      <point x="453" y="368" type="line"/>
      <point x="453" y="412" type="line"/>
      <point x="417" y="482"/>
      <point x="354" y="531"/>
      <point x="261" y="531" type="curve" smooth="yes"/>
      <point x="143" y="531"/>
      <point x="57" y="441"/>
      <point x="57" y="337" type="curve" smooth="yes"/>
      <point x="57" y="269"/>
      <point x="106" y="220"/>
      <point x="174" y="220" type="curve" smooth="yes"/>
      <point x="239" y="220"/>
      <point x="287" y="265"/>
      <point x="288" y="328" type="curve" smooth="yes"/>
      <point x="290" y="389"/>
      <point x="242" y="433"/>
      <point x="174" y="433" type="curve" smooth="yes"/>
      <point x="113" y="433"/>
      <point x="70" y="389"/>
      <point x="71" y="328" type="curve"/>
      <point x="127" y="328" type="line"/>
      <point x="127" y="356"/>
      <point x="148" y="376"/>
      <point x="177" y="376" type="curve" smooth="yes"/>
      <point x="205" y="376"/>
      <point x="225" y="356"/>
      <point x="225" y="328" type="curve" smooth="yes"/>
      <point x="225" y="300"/>
      <point x="205" y="279"/>
      <point x="177" y="279" type="curve" smooth="yes"/>
      <point x="148" y="279"/>
      <point x="127" y="300"/>
      <point x="127" y="328" type="curve" smooth="yes"/>
      <point x="127" y="395"/>
      <point x="179" y="456"/>
      <point x="261" y="456" type="curve" smooth="yes"/>
      <point x="334" y="456"/>
      <point x="388" y="408"/>
      <point x="388" y="343" type="curve" smooth="yes"/>
      <point x="388" y="274" type="line"/>
      <point x="474" y="274" type="line"/>
      <point x="474" y="343" type="line" smooth="yes"/>
      <point x="474" y="408"/>
      <point x="522" y="456"/>
      <point x="586" y="456" type="curve" smooth="yes"/>
      <point x="644" y="456"/>
      <point x="680" y="416"/>
      <point x="680" y="355" type="curve" smooth="yes"/>
      <point x="679" y="284"/>
      <point x="613" y="228"/>
      <point x="501" y="212" type="curve" smooth="yes"/>
      <point x="320" y="188" type="line" smooth="yes"/>
      <point x="127" y="162"/>
      <point x="50" y="93"/>
      <point x="50" y="-23" type="curve" smooth="yes"/>
      <point x="50" y="-129"/>
      <point x="137" y="-205"/>
      <point x="257" y="-205" type="curve" smooth="yes"/>
      <point x="355" y="-205"/>
      <point x="415" y="-156"/>
      <point x="441" y="-86" type="curve"/>
      <point x="441" y="-30" type="line"/>
      <point x="393" y="-32" type="line"/>
      <point x="393" y="-86" type="line"/>
      <point x="419" y="-156"/>
      <point x="476" y="-205"/>
      <point x="572" y="-205" type="curve" smooth="yes"/>
      <point x="679" y="-205"/>
      <point x="757" y="-132"/>
      <point x="757" y="-32" type="curve" smooth="yes"/>
      <point x="757" y="10"/>
      <point x="746" y="50"/>
      <point x="719" y="101" type="curve"/>
      <point x="631" y="95" type="line"/>
      <point x="656" y="50"/>
      <point x="666" y="-3"/>
    </contour>
  </outline>
</glyph>
<glyph name="tm_O" format="2">
  <advance width="829"/>
  <unicode hex="0B92"/>
  <outline>
    <contour>
      <point x="408" y="534" type="curve" smooth="yes"/>
      <point x="192" y="534"/>
      <point x="45" y="423"/>
      <point x="45" y="269" type="curve" smooth="yes"/>
      <point x="45" y="172"/>
      <point x="102" y="102"/>
      <point x="194" y="102" type="curve" smooth="yes"/>
      <point x="270" y="102"/>
      <point x="324" y="152"/>
      <point x="324" y="222" type="curve" smooth="yes"/>
      <point x="324" y="291"/>
      <point x="272" y="340"/>
      <point x="200" y="340" type="curve" smooth="yes"/>
      <point x="134" y="340"/>
      <point x="87" y="290"/>
      <point x="87" y="222" type="curve" smooth="yes"/>
      <point x="87" y="155"/>
      <point x="127" y="106"/>
      <point x="194" y="106" type="curve"/>
      <point x="194" y="174" type="line"/>
      <point x="166" y="174"/>
      <point x="146" y="194"/>
      <point x="146" y="222" type="curve" smooth="yes"/>
      <point x="146" y="249"/>
      <point x="166" y="269"/>
      <point x="195" y="269" type="curve" smooth="yes"/>
      <point x="223" y="269"/>
      <point x="243" y="249"/>
      <point x="243" y="222" type="curve" smooth="yes"/>
      <point x="242" y="194"/>
      <point x="222" y="174"/>
      <point x="194" y="174" type="curve" smooth="yes"/>
      <point x="151" y="174"/>
      <point x="120" y="214"/>
      <point x="120" y="269" type="curve" smooth="yes"/>
      <point x="120" y="379"/>
      <point x="241" y="459"/>
      <point x="408" y="459" type="curve" smooth="yes"/>
      <point x="567" y="459"/>
      <point x="683" y="382"/>
      <point x="683" y="276" type="curve" smooth="yes"/>
      <point x="683" y="221"/>
      <point x="658" y="185"/>
      <point x="615" y="185" type="curve" smooth="yes"/>
      <point x="568" y="185"/>
      <point x="539" y="220"/>
      <point x="538" y="269" type="curve"/>
      <point x="467" y="269" type="line"/>
      <point x="467" y="176"/>
      <point x="529" y="110"/>
      <point x="615" y="110" type="curve" smooth="yes"/>
      <point x="708" y="110"/>
      <point x="774" y="176"/>
      <point x="774" y="276" type="curve" smooth="yes"/>
      <point x="774" y="426"/>
      <point x="620" y="534"/>
    </contour>
    <contour>
      <point x="731" y="-35" type="line"/>
      <point x="731" y="32" type="line"/>
      <point x="657" y="32" type="line" smooth="yes"/>
      <point x="579" y="32"/>
      <point x="538" y="66"/>
      <point x="538" y="133" type="curve" smooth="yes"/>
      <point x="538" y="269" type="line"/>
      <point x="460" y="269" type="line"/>
      <point x="460" y="133" type="line" smooth="yes"/>
      <point x="460" y="36"/>
      <point x="534" y="-35"/>
      <point x="657" y="-35" type="curve" smooth="yes"/>
    </contour>
    <contour>
      <point x="417" y="-144" type="curve" smooth="yes"/>
      <point x="345" y="-144"/>
      <point x="303" y="-105"/>
      <point x="303" y="-50" type="curve" smooth="yes"/>
      <point x="303" y="0" type="line"/>
      <point x="217" y="0" type="line"/>
      <point x="217" y="-50" type="line" smooth="yes"/>
      <point x="217" y="-148"/>
      <point x="295" y="-219"/>
      <point x="417" y="-219" type="curve" smooth="yes"/>
      <point x="533" y="-219"/>
      <point x="608" y="-148"/>
      <point x="608" y="-50" type="curve" smooth="yes"/>
      <point x="608" y="0" type="line"/>
      <point x="530" y="19" type="line"/>
      <point x="530" y="-50" type="line" smooth="yes"/>
      <point x="530" y="-105"/>
      <point x="488" y="-144"/>
    </contour>
  </outline>
</glyph>
<glyph name="tm_Nga" format="2">
  <advance width="1006"/>
  <unicode hex="0B99"/>
  <outline>
    <contour>
      <point x="433" y="446" type="line"/>
      <point x="617" y="446" type="line"/>
      <point x="605" y="513" type="line"/>
      <point x="90" y="513" type="line"/>
      <point x="90" y="0" type="line"/>
      <point x="176" y="0" type="line"/>
      <point x="176" y="446" type="line"/>
      <point x="347" y="446" type="line"/>
      <point x="347" y="153" type="line"/>
      <point x="433" y="153" type="line"/>
    </contour>
    <contour>
      <point x="916" y="513" type="line"/>
      <point x="830" y="513" type="line"/>
      <point x="830" y="68" type="line"/>
      <point x="347" y="68" type="line"/>
      <point x="347" y="0" type="line"/>
      <point x="916" y="0" type="line"/>
    </contour>
    <contour>
      <point x="626" y="196" type="curve" smooth="yes"/>
      <point x="626" y="121"/>
      <point x="586" y="68"/>
      <point x="489" y="68" type="curve"/>
      <point x="489" y="10" type="line"/>
      <point x="630" y="10"/>
      <point x="716" y="79"/>
      <point x="716" y="196" type="curve" smooth="yes"/>
      <point x="716" y="300"/>
      <point x="647" y="373"/>
      <point x="543" y="373" type="curve" smooth="yes"/>
      <point x="440" y="373"/>
      <point x="365" y="297"/>
      <point x="365" y="194" type="curve"/>
      <point x="433" y="194" type="line"/>
      <point x="433" y="254"/>
      <point x="473" y="298"/>
      <point x="535" y="298" type="curve" smooth="yes"/>
      <point x="592" y="298"/>
      <point x="626" y="251"/>
    </contour>
  </outline>
</glyph>
<glyph name="tm_Ca" format="2">
  <advance width="694"/>
  <unicode hex="0B9A"/>
  <anchor x="392" y="0" name="abvm1"/>
  <anchor x="714" y="0" name="abvm2"/>
  <outline>
    <contour>
      <point x="490" y="205" type="curve" smooth="yes"/>
      <point x="490" y="446" type="line"/>
      <point x="664" y="446" type="line"/>
      <point x="652" y="513" type="line"/>
      <point x="162" y="513" type="line"/>
      <point x="162" y="263" type="line"/>
      <point x="248" y="263" type="line"/>
      <point x="248" y="446" type="line"/>
      <point x="404" y="446" type="line"/>
      <point x="404" y="205" type="line" smooth="yes"/>
      <point x="404" y="119"/>
      <point x="346" y="57"/>
      <point x="246" y="57" type="curve" smooth="yes"/>
      <point x="176" y="57"/>
      <point x="131" y="94"/>
      <point x="131" y="144" type="curve" smooth="yes"/>
      <point x="131" y="202"/>
      <point x="178" y="236"/>
      <point x="263" y="236" type="curve" smooth="yes"/>
      <point x="664" y="236" type="line"/>
      <point x="652" y="303" type="line"/>
      <point x="261" y="303" type="line" smooth="yes"/>
      <point x="124" y="303"/>
      <point x="40" y="241"/>
      <point x="40" y="144" type="curve" smooth="yes"/>
      <point x="40" y="50"/>
      <point x="123" y="-18"/>
      <point x="246" y="-18" type="curve" smooth="yes"/>
      <point x="396" y="-18"/>
      <point x="490" y="76"/>
    </contour>
  </outline>
</glyph>
<glyph name="tm_Ja" format="2">
  <advance width="821"/>
  <unicode hex="0B9C"/>
  <outline>
    <contour>
      <point x="474" y="274" type="line"/>
      <point x="474" y="343" type="line" smooth="yes"/>
      <point x="474" y="408"/>
      <point x="522" y="456"/>
      <point x="586" y="456" type="curve" smooth="yes"/>
      <point x="644" y="456"/>
      <point x="680" y="416"/>
      <point x="680" y="355" type="curve" smooth="yes"/>
      <point x="679" y="284"/>
      <point x="613" y="228"/>
      <point x="501" y="212" type="curve" smooth="yes"/>
      <point x="320" y="188" type="line" smooth="yes"/>
      <point x="127" y="162"/>
      <point x="50" y="93"/>
      <point x="50" y="-23" type="curve" smooth="yes"/>
      <point x="50" y="-129"/>
      <point x="128" y="-205"/>
      <point x="248" y="-205" type="curve" smooth="yes"/>
      <point x="432" y="-205"/>
      <point x="478" y="14"/>
      <point x="616" y="14" type="curve" smooth="yes"/>
      <point x="653" y="14"/>
      <point x="680" y="-15"/>
      <point x="680" y="-59" type="curve" smooth="yes"/>
      <point x="680" y="-100"/>
      <point x="642" y="-134"/>
      <point x="590" y="-134" type="curve" smooth="yes"/>
      <point x="489" y="-134" type="line"/>
      <point x="489" y="-202" type="line"/>
      <point x="590" y="-202" type="line" smooth="yes"/>
      <point x="695" y="-202"/>
      <point x="771" y="-140"/>
      <point x="771" y="-59" type="curve" smooth="yes"/>
      <point x="771" y="29"/>
      <point x="706" y="88"/>
      <point x="616" y="88" type="curve" smooth="yes"/>
      <point x="440" y="88"/>
      <point x="384" y="-131"/>
      <point x="248" y="-131" type="curve" smooth="yes"/>
      <point x="180" y="-131"/>
      <point x="140" y="-85"/>
      <point x="141" y="-23" type="curve" smooth="yes"/>
      <point x="142" y="57"/>
      <point x="190" y="97"/>
      <point x="320" y="114" type="curve" smooth="yes"/>
      <point x="501" y="139" type="line" smooth="yes"/>
      <point x="676" y="162"/>
      <point x="771" y="248"/>
      <point x="771" y="355" type="curve" smooth="yes"/>
      <point x="771" y="460"/>
      <point x="697" y="531"/>
      <point x="586" y="531" type="curve" smooth="yes"/>
      <point x="499" y="531"/>
      <point x="442" y="482"/>
      <point x="407" y="412" type="curve"/>
      <point x="407" y="368" type="line"/>
      <point x="453" y="368" type="line"/>
      <point x="453" y="412" type="line"/>
      <point x="417" y="482"/>
      <point x="354" y="531"/>
      <point x="261" y="531" type="curve" smooth="yes"/>
      <point x="143" y="531"/>
      <point x="57" y="441"/>
      <point x="57" y="337" type="curve" smooth="yes"/>
      <point x="57" y="269"/>
      <point x="106" y="220"/>
      <point x="174" y="220" type="curve" smooth="yes"/>
      <point x="239" y="220"/>
      <point x="287" y="265"/>
      <point x="288" y="328" type="curve" smooth="yes"/>
      <point x="290" y="389"/>
      <point x="242" y="433"/>
      <point x="174" y="433" type="curve" smooth="yes"/>
      <point x="113" y="433"/>
      <point x="70" y="389"/>
      <point x="71" y="328" type="curve"/>
      <point x="127" y="328" type="line"/>
      <point x="127" y="356"/>
      <point x="148" y="376"/>
      <point x="177" y="376" type="curve" smooth="yes"/>
      <point x="205" y="376"/>
      <point x="225" y="356"/>
      <point x="225" y="328" type="curve" smooth="yes"/>
      <point x="225" y="300"/>
      <point x="205" y="279"/>
      <point x="177" y="279" type="curve" smooth="yes"/>
      <point x="148" y="279"/>
      <point x="127" y="300"/>
      <point x="127" y="328" type="curve" smooth="yes"/>
      <point x="127" y="395"/>
      <point x="179" y="456"/>
      <point x="261" y="456" type="curve" smooth="yes"/>
      <point x="334" y="456"/>
      <point x="388" y="408"/>
      <point x="388" y="343" type="curve" smooth="yes"/>
      <point x="388" y="274" type="line"/>
    </contour>
  </outline>
</glyph>
<glyph name="tm_Nya" format="2">
  <advance width="1259"/>
  <unicode hex="0B9E"/>
  <anchor x="692" y="0" name="abvm1"/>
  <anchor x="1150" y="0" name="abvm2"/>
  <outline>
    <contour>
      <point x="393" y="237" type="curve" smooth="yes"/>
      <point x="393" y="362"/>
      <point x="472" y="446"/>
      <point x="647" y="446" type="curve" smooth="yes"/>
      <point x="750" y="446" type="line"/>
      <point x="750" y="513" type="line"/>
      <point x="638" y="513" type="line" smooth="yes"/>
      <point x="417" y="513"/>
      <point x="302" y="397"/>
      <point x="302" y="237" type="curve" smooth="yes"/>
      <point x="302" y="96"/>
      <point x="412" y="-18"/>
      <point x="585" y="-18" type="curve" smooth="yes"/>
      <point x="690" y="-18"/>
      <point x="766" y="50"/>
      <point x="766" y="142" type="curve" smooth="yes"/>
      <point x="766" y="235"/>
      <point x="693" y="302"/>
      <point x="591" y="302" type="curve" smooth="yes"/>
      <point x="496" y="302"/>
      <point x="427" y="236"/>
      <point x="427" y="143" type="curve" smooth="yes"/>
      <point x="427" y="63"/>
      <point x="496" y="5"/>
      <point x="591" y="5" type="curve"/>
      <point x="591" y="50" type="line"/>
      <point x="537" y="50"/>
      <point x="498" y="88"/>
      <point x="498" y="142" type="curve" smooth="yes"/>
      <point x="498" y="195"/>
      <point x="537" y="234"/>
      <point x="591" y="234" type="curve" smooth="yes"/>
      <point x="645" y="234"/>
      <point x="684" y="195"/>
      <point x="684" y="142" type="curve" smooth="yes"/>
      <point x="684" y="88"/>
      <point x="645" y="50"/>
      <point x="591" y="50" type="curve" smooth="yes"/>
      <point x="458" y="50"/>
      <point x="393" y="128"/>
    </contour>
    <contour>
      <point x="1016" y="352" type="curve" smooth="yes"/>
      <point x="974" y="352"/>
      <point x="936" y="336"/>
      <point x="908" y="309" type="curve"/>
      <point x="908" y="446" type="line"/>
      <point x="1092" y="446" type="line"/>
      <point x="1080" y="513" type="line"/>
      <point x="688" y="513" type="line"/>
      <point x="688" y="446" type="line"/>
      <point x="822" y="446" type="line"/>
      <point x="822" y="0" type="line"/>
      <point x="908" y="0" type="line"/>
      <point x="908" y="155" type="line" smooth="yes"/>
      <point x="908" y="226"/>
      <point x="953" y="277"/>
      <point x="1015" y="277" type="curve" smooth="yes"/>
      <point x="1093" y="277"/>
      <point x="1119" y="209"/>
      <point x="1119" y="133" type="curve" smooth="yes"/>
      <point x="1119" y="-58"/>
      <point x="947" y="-181"/>
      <point x="663" y="-181" type="curve" smooth="yes"/>
      <point x="352" y="-181"/>
      <point x="161" y="-34"/>
      <point x="161" y="188" type="curve" smooth="yes"/>
      <point x="161" y="322"/>
      <point x="222" y="443"/>
      <point x="304" y="513" type="curve"/>
      <point x="216" y="523" type="line"/>
      <point x="131" y="445"/>
      <point x="70" y="316"/>
      <point x="70" y="190" type="curve" smooth="yes"/>
      <point x="70" y="-77"/>
      <point x="299" y="-256"/>
      <point x="663" y="-256" type="curve" smooth="yes"/>
      <point x="1000" y="-256"/>
      <point x="1209" y="-101"/>
      <point x="1209" y="133" type="curve" smooth="yes"/>
      <point x="1209" y="252"/>
      <point x="1142" y="352"/>
    </contour>
  </outline>
</glyph>
